<svg width="86" height="75" viewBox="0 0 86 75" fill="none" xmlns="http://www.w3.org/2000/svg">
<g id="Buttons/Square-Medium/SoundOn/Default">
<g id="Button/Square-Medium">
<rect id="Background" y="1" width="86" height="74" rx="4" fill="#01699C"/>
<rect id="Background_2" x="0.5" y="0.5" width="85" height="69" rx="4.5" fill="#029AE0" stroke="#01699C"/>
</g>
<g id="Icons/SoundOn">
<path id="Vector" d="M40.8752 18.1708L33.5455 24.6116L30.5325 27.2595H25.2366C24.9437 27.2571 24.6532 27.3153 24.382 27.4309C24.1107 27.5464 23.864 27.717 23.6561 27.9327C23.4482 28.1484 23.2832 28.4051 23.1706 28.6878C23.058 28.9706 23 29.2738 23 29.5801V40.4017C23.0015 41.0167 23.2358 41.606 23.6517 42.0409C24.0675 42.4757 24.6311 42.7207 25.2192 42.7223H30.5325L33.5397 45.3641L40.8752 51.8292C41.2722 52.1793 41.7566 52.4034 42.2714 52.4751C42.7862 52.5468 43.3098 52.463 43.7806 52.2338C44.2514 52.0045 44.6496 51.6393 44.9284 51.1811C45.2072 50.7229 45.3549 50.191 45.3542 49.6479V20.3521C45.3549 19.809 45.2072 19.2771 44.9284 18.8189C44.6496 18.3607 44.2514 17.9955 43.7806 17.7662C43.3098 17.537 42.7862 17.4532 42.2714 17.5249C41.7566 17.5966 41.2722 17.8207 40.8752 18.1708Z" fill="#F5FCFD"/>
<path id="Vector_2" d="M56.1875 26.9176C55.7947 26.4901 55.2624 26.25 54.7074 26.25C54.1525 26.25 53.6202 26.4901 53.2273 26.9176C53.03 27.1279 52.8733 27.3791 52.7663 27.6563C52.6593 27.9336 52.6042 28.2314 52.6042 28.5322C52.6042 28.8331 52.6593 29.1309 52.7663 29.4082C52.8733 29.6854 53.03 29.9366 53.2273 30.1468C54.4047 31.4374 55.0657 33.1841 55.0657 35.0049C55.0657 36.8257 54.4047 38.5724 53.2273 39.863C53.03 40.0733 52.8733 40.3244 52.7663 40.6017C52.6593 40.879 52.6042 41.1768 52.6042 41.4776C52.6042 41.7785 52.6593 42.0763 52.7663 42.3535C52.8733 42.6308 53.03 42.8819 53.2273 43.0922C53.4175 43.3056 53.6458 43.474 53.8982 43.5871C54.1506 43.7001 54.4215 43.7554 54.6943 43.7495C54.971 43.756 55.2461 43.701 55.5028 43.5881C55.7595 43.4751 55.9924 43.3064 56.1875 43.0922C58.1488 40.9445 59.25 38.0365 59.25 35.0049C59.25 31.9734 58.1488 29.0654 56.1875 26.9176Z" fill="#F5FCFD"/>
</g>
</g>
</svg>
