<svg width="50" height="13" viewBox="0 0 50 13" fill="none" xmlns="http://www.w3.org/2000/svg">
<g id="Level/Stars/1-3">
<g id="Level/Stars/0-3">
<g id="Star/Small/Unactive">
<path id="StarIcon" d="M6.04338 0.673569C6.34448 -0.224523 7.65552 -0.224523 7.95662 0.673569L8.91954 3.54562C9.05419 3.94726 9.4404 4.21919 9.87616 4.21919H12.9922C13.9666 4.21919 14.3717 5.42757 13.5834 5.98262L11.0625 7.75764C10.71 8.00587 10.5624 8.44586 10.6971 8.8475L11.66 11.7196C11.9611 12.6176 10.9005 13.3645 10.1122 12.8094L7.59122 11.0344C7.23869 10.7862 6.76131 10.7862 6.40877 11.0344L3.88783 12.8094C3.09953 13.3645 2.03888 12.6176 2.33998 11.7196L3.3029 8.8475C3.43756 8.44586 3.29004 8.00587 2.9375 7.75764L0.416555 5.98262C-0.371745 5.42756 0.0333883 4.21919 1.00778 4.21919H4.12384C4.5596 4.21919 4.9458 3.94726 5.08046 3.54562L6.04338 0.673569Z" fill="#01699C"/>
</g>
<g id="Star/Small/Unactive_2">
<path id="StarIcon_2" d="M24.0434 0.673569C24.3445 -0.224523 25.6555 -0.224523 25.9566 0.673569L26.9195 3.54562C27.0542 3.94726 27.4404 4.21919 27.8762 4.21919H30.9922C31.9666 4.21919 32.3717 5.42757 31.5834 5.98262L29.0625 7.75764C28.71 8.00587 28.5624 8.44586 28.6971 8.8475L29.66 11.7196C29.9611 12.6176 28.9005 13.3645 28.1122 12.8094L25.5912 11.0344C25.2387 10.7862 24.7613 10.7862 24.4088 11.0344L21.8878 12.8094C21.0995 13.3645 20.0389 12.6176 20.34 11.7196L21.3029 8.8475C21.4376 8.44586 21.29 8.00587 20.9375 7.75764L18.4166 5.98262C17.6283 5.42756 18.0334 4.21919 19.0078 4.21919H22.1238C22.5596 4.21919 22.9458 3.94726 23.0805 3.54562L24.0434 0.673569Z" fill="#01699C"/>
</g>
<g id="Star/Small/Unactive_3">
<path id="StarIcon_3" d="M42.0434 0.673569C42.3445 -0.224523 43.6555 -0.224523 43.9566 0.673569L44.9195 3.54562C45.0542 3.94726 45.4404 4.21919 45.8762 4.21919H48.9922C49.9666 4.21919 50.3717 5.42757 49.5834 5.98262L47.0625 7.75764C46.71 8.00587 46.5624 8.44586 46.6971 8.8475L47.66 11.7196C47.9611 12.6176 46.9005 13.3645 46.1122 12.8094L43.5912 11.0344C43.2387 10.7862 42.7613 10.7862 42.4088 11.0344L39.8878 12.8094C39.0995 13.3645 38.0389 12.6176 38.34 11.7196L39.3029 8.8475C39.4376 8.44586 39.29 8.00587 38.9375 7.75764L36.4166 5.98262C35.6283 5.42756 36.0334 4.21919 37.0078 4.21919H40.1238C40.5596 4.21919 40.9458 3.94726 41.0805 3.54562L42.0434 0.673569Z" fill="#01699C"/>
</g>
</g>
<g id="Star/Small/Active">
<path id="StarIcon_4" d="M6.04338 0.673569C6.34448 -0.224523 7.65552 -0.224523 7.95662 0.673569L8.91954 3.54562C9.05419 3.94726 9.4404 4.21919 9.87616 4.21919H12.9922C13.9666 4.21919 14.3717 5.42757 13.5834 5.98262L11.0625 7.75764C10.71 8.00587 10.5624 8.44586 10.6971 8.8475L11.66 11.7196C11.9611 12.6176 10.9005 13.3645 10.1122 12.8094L7.59122 11.0344C7.23869 10.7862 6.76131 10.7862 6.40877 11.0344L3.88783 12.8094C3.09953 13.3645 2.03888 12.6176 2.33998 11.7196L3.3029 8.8475C3.43756 8.44586 3.29004 8.00587 2.9375 7.75764L0.416555 5.98262C-0.371745 5.42756 0.0333883 4.21919 1.00778 4.21919H4.12384C4.5596 4.21919 4.9458 3.94726 5.08046 3.54562L6.04338 0.673569Z" fill="#F5FCFD"/>
</g>
</g>
</svg>
