<svg width="50" height="13" viewBox="0 0 50 13" fill="none" xmlns="http://www.w3.org/2000/svg">
<g id="Level/Stars/3-3">
<g id="Star/Small/Active">
<path id="StarIcon" d="M6.04338 0.673569C6.34448 -0.224523 7.65552 -0.224523 7.95662 0.673569L8.91954 3.54562C9.05419 3.94726 9.4404 4.21919 9.87616 4.21919H12.9922C13.9666 4.21919 14.3717 5.42757 13.5834 5.98262L11.0625 7.75764C10.71 8.00587 10.5624 8.44586 10.6971 8.8475L11.66 11.7196C11.9611 12.6176 10.9005 13.3645 10.1122 12.8094L7.59122 11.0344C7.23869 10.7862 6.76131 10.7862 6.40877 11.0344L3.88783 12.8094C3.09953 13.3645 2.03888 12.6176 2.33998 11.7196L3.3029 8.8475C3.43756 8.44586 3.29004 8.00587 2.9375 7.75764L0.416555 5.98262C-0.371745 5.42756 0.0333883 4.21919 1.00778 4.21919H4.12384C4.5596 4.21919 4.9458 3.94726 5.08046 3.54562L6.04338 0.673569Z" fill="#F5FCFD"/>
</g>
<g id="Star/Small/Active_2">
<path id="StarIcon_2" d="M23.9101 0.673569C24.2112 -0.224523 25.5222 -0.224523 25.8233 0.673569L26.7862 3.54562C26.9209 3.94726 27.3071 4.21919 27.7429 4.21919H30.8589C31.8333 4.21919 32.2384 5.42757 31.4501 5.98262L28.9292 7.75764C28.5767 8.00587 28.4291 8.44586 28.5638 8.8475L29.5267 11.7196C29.8278 12.6176 28.7672 13.3645 27.9789 12.8094L25.4579 11.0344C25.1054 10.7862 24.628 10.7862 24.2755 11.0344L21.7545 12.8094C20.9662 13.3645 19.9056 12.6176 20.2067 11.7196L21.1696 8.8475C21.3043 8.44586 21.1567 8.00587 20.8042 7.75764L18.2833 5.98262C17.495 5.42756 17.9001 4.21919 18.8745 4.21919H21.9905C22.4263 4.21919 22.8125 3.94726 22.9472 3.54562L23.9101 0.673569Z" fill="#F5FCFD"/>
</g>
<g id="Star/Small/Active_3">
<path id="StarIcon_3" d="M41.7768 0.673569C42.0779 -0.224523 43.3889 -0.224523 43.69 0.673569L44.6529 3.54562C44.7876 3.94726 45.1738 4.21919 45.6096 4.21919H48.7256C49.7 4.21919 50.1051 5.42757 49.3168 5.98262L46.7959 7.75764C46.4434 8.00587 46.2958 8.44586 46.4305 8.8475L47.3934 11.7196C47.6945 12.6176 46.6339 13.3645 45.8456 12.8094L43.3246 11.0344C42.9721 10.7862 42.4947 10.7862 42.1422 11.0344L39.6212 12.8094C38.8329 13.3645 37.7723 12.6176 38.0734 11.7196L39.0363 8.8475C39.171 8.44586 39.0234 8.00587 38.6709 7.75764L36.15 5.98262C35.3617 5.42756 35.7668 4.21919 36.7412 4.21919H39.8572C40.293 4.21919 40.6792 3.94726 40.8139 3.54562L41.7768 0.673569Z" fill="#F5FCFD"/>
</g>
</g>
</svg>
