<svg width="600" height="400" viewBox="0 0 600 400" fill="none" xmlns="http://www.w3.org/2000/svg">
<g id="Panel/Window/Large">
<g id="Panel/Body/Titled">
<path id="WindowContent" d="M0 238H600V392C600 396.418 596.418 400 592 400H7.99999C3.58171 400 0 396.418 0 392V238Z" fill="#01699C"/>
<path id="WindowContent_2" d="M0.5 80.5H599.5V388.049C599.5 392.192 596.142 395.549 592 395.549H7.99999C3.85786 395.549 0.5 392.192 0.5 388.049V80.5Z" fill="#79CDE8" stroke="#01699C"/>
</g>
<g id="Panel/Title/Example">
<g id="Panel/Title/Dummy">
<g id="Background">
<mask id="path-5-inside-1_6_674" fill="white">
<path d="M0 5C0 2.23858 2.23858 0 5 0H595C597.761 0 600 2.23858 600 5V80H0V5Z"/>
</mask>
<path d="M0 5C0 2.23858 2.23858 0 5 0H595C597.761 0 600 2.23858 600 5V80H0V5Z" fill="#029AE0"/>
<path d="M-1 5C-1 1.68629 1.68629 -1 5 -1H595C598.314 -1 601 1.68629 601 5H599C599 2.79086 597.209 1 595 1H5C2.79086 1 1 2.79086 1 5H-1ZM601 81H-1L1 79H599L601 81ZM-1 81V5C-1 1.68629 1.68629 -1 5 -1V1C2.79086 1 1 2.79086 1 5V79L-1 81ZM595 -1C598.314 -1 601 1.68629 601 5V81L599 79V5C599 2.79086 597.209 1 595 1V-1Z" fill="#01699C" mask="url(#path-5-inside-1_6_674)"/>
</g>
</g>
</g>
</g>
</svg>
