<svg width="86" height="75" viewBox="0 0 86 75" fill="none" xmlns="http://www.w3.org/2000/svg">
<g id="Buttons/Square-Medium/SoundOff/Default">
<g id="Button/Square-Medium">
<rect id="Background" y="1" width="86" height="74" rx="4" fill="#01699C"/>
<rect id="Background_2" x="0.5" y="0.5" width="85" height="69" rx="4.5" fill="#029AE0" stroke="#01699C"/>
</g>
<g id="Icons/SoundOff">
<path id="Vector" d="M40.2555 18.164L33.173 24.6122L30.2784 27.2545H25.1443C24.5761 27.2561 24.0315 27.5011 23.6297 27.9361C23.2279 28.371 23.0015 28.9605 23 29.5756V40.4175C23 41.0336 23.2257 41.6246 23.6277 42.0609C24.0297 42.4972 24.5751 42.743 25.1443 42.7447H30.2784L33.173 45.3688L40.2555 51.8291C40.6391 52.1792 41.1072 52.4034 41.6046 52.4751C42.102 52.5468 42.608 52.463 43.0628 52.2337C43.5177 52.0044 43.9026 51.6391 44.172 51.1808C44.4414 50.7226 44.5841 50.1905 44.5833 49.6474V20.3457C44.5818 19.8036 44.4377 19.2732 44.1679 18.8165C43.898 18.3598 43.5136 17.9957 43.0596 17.7669C42.6056 17.538 42.1008 17.4538 41.6042 17.5241C41.1076 17.5945 40.6398 17.8164 40.2555 18.164Z" fill="#F5FCFD"/>
<path id="Union" d="M48.1883 26.9875C47.2706 27.9709 47.2706 29.5653 48.1883 30.5486L52.3429 35L48.1883 39.4514C47.2706 40.4347 47.2706 42.0291 48.1883 43.0124C49.1061 43.9958 50.5942 43.9958 51.5121 43.0124L55.6667 38.5611L59.8213 43.0125C60.739 43.9958 62.2271 43.9958 63.1449 43.0125C64.0628 42.0291 64.0628 40.4347 63.1449 39.4514L58.9903 35L63.1449 30.5486C64.0628 29.5652 64.0628 27.9709 63.1449 26.9875C62.2271 26.0042 60.739 26.0042 59.8213 26.9875L55.6667 31.4389L51.5121 26.9875C50.5942 26.0042 49.1062 26.0042 48.1883 26.9875Z" fill="#F5FCFD"/>
</g>
</g>
</svg>
