<svg width="42" height="40" viewBox="0 0 42 40" fill="none" xmlns="http://www.w3.org/2000/svg">
<path d="M17.8835 2.07252C18.7745 -0.690841 22.6541 -0.690839 23.5451 2.07252L26.3945 10.9096C26.793 12.1454 27.9359 12.9821 29.2254 12.9821H38.4464C41.3298 12.9821 42.5286 16.7002 40.1959 18.4081L32.736 23.8697C31.6927 24.6334 31.2562 25.9873 31.6547 27.2231L34.5041 36.0602C35.3952 38.8235 32.2565 41.1214 29.9238 39.4136L22.4638 33.952C21.4206 33.1882 20.008 33.1882 18.9647 33.952L11.5048 39.4136C9.17208 41.1214 6.03341 38.8235 6.92444 36.0602L9.77388 27.2231C10.1724 25.9873 9.73583 24.6334 8.6926 23.8697L1.23266 18.4081C-1.10006 16.7002 0.098802 12.9821 2.98221 12.9821H12.2032C13.4927 12.9821 14.6355 12.1454 15.034 10.9096L17.8835 2.07252Z" fill="#F5FCFD"/>
</svg>
