<svg width="42" height="40" viewBox="0 0 42 40" fill="none" xmlns="http://www.w3.org/2000/svg">
<path d="M18.3593 2.22596C19.1014 -0.0753204 22.3272 -0.0753203 23.0692 2.22596L25.9187 11.063C26.3831 12.5034 27.7168 13.4821 29.2254 13.4821H38.4464C40.8376 13.4821 41.8502 16.5772 39.9005 18.0046L32.4406 23.4662C31.2224 24.3581 30.7146 25.9368 31.1788 27.3765L34.0283 36.2136C34.7749 38.5292 32.1493 40.4232 30.2191 39.0101L22.7592 33.5485C21.5401 32.656 19.8885 32.656 18.6694 33.5485L11.2094 39.0101C9.2793 40.4232 6.65366 38.5292 7.40031 36.2136L10.2498 27.3765C10.714 25.9368 10.2061 24.3581 8.98797 23.4662L1.52803 18.0046C-0.421671 16.5772 0.590952 13.4821 2.98221 13.4821H12.2032C13.7118 13.4821 15.0455 12.5034 15.5099 11.063L18.3593 2.22596Z" fill="#01699C" stroke="#01699C"/>
</svg>
