<svg width="86" height="96" viewBox="0 0 86 96" fill="none" xmlns="http://www.w3.org/2000/svg">
<g id="Level/Buttons/1-Star/Hover">
<g id="Level/Button/Dummy">
<rect id="Background" x="2.5" y="2.5" width="81" height="91" rx="3.5" fill="#029AE0" stroke="#01699C" stroke-width="5"/>
<rect id="Background_2" x="2" y="2" width="82" height="92" rx="4" stroke="#F5FCFD" stroke-width="4"/>
</g>
<g id="Level/Stars/1-3">
<g id="Level/Stars/0-3">
<g id="Star/Small/Unactive">
<path id="StarIcon" d="M24.0434 71.6736C24.3445 70.7755 25.6555 70.7755 25.9566 71.6736L26.9195 74.5456C27.0542 74.9473 27.4404 75.2192 27.8762 75.2192H30.9922C31.9666 75.2192 32.3717 76.4276 31.5834 76.9826L29.0625 78.7576C28.71 79.0059 28.5624 79.4459 28.6971 79.8475L29.66 82.7196C29.9611 83.6176 28.9005 84.3645 28.1122 83.8094L25.5912 82.0344C25.2387 81.7862 24.7613 81.7862 24.4088 82.0344L21.8878 83.8094C21.0995 84.3645 20.0389 83.6176 20.34 82.7196L21.3029 79.8475C21.4376 79.4459 21.29 79.0059 20.9375 78.7576L18.4166 76.9826C17.6283 76.4276 18.0334 75.2192 19.0078 75.2192H22.1238C22.5596 75.2192 22.9458 74.9473 23.0805 74.5456L24.0434 71.6736Z" fill="#01699C"/>
</g>
<g id="Star/Small/Unactive_2">
<path id="StarIcon_2" d="M42.0434 71.6736C42.3445 70.7755 43.6555 70.7755 43.9566 71.6736L44.9195 74.5456C45.0542 74.9473 45.4404 75.2192 45.8762 75.2192H48.9922C49.9666 75.2192 50.3717 76.4276 49.5834 76.9826L47.0625 78.7576C46.71 79.0059 46.5624 79.4459 46.6971 79.8475L47.66 82.7196C47.9611 83.6176 46.9005 84.3645 46.1122 83.8094L43.5912 82.0344C43.2387 81.7862 42.7613 81.7862 42.4088 82.0344L39.8878 83.8094C39.0995 84.3645 38.0389 83.6176 38.34 82.7196L39.3029 79.8475C39.4376 79.4459 39.29 79.0059 38.9375 78.7576L36.4166 76.9826C35.6283 76.4276 36.0334 75.2192 37.0078 75.2192H40.1238C40.5596 75.2192 40.9458 74.9473 41.0805 74.5456L42.0434 71.6736Z" fill="#01699C"/>
</g>
<g id="Star/Small/Unactive_3">
<path id="StarIcon_3" d="M60.0434 71.6736C60.3445 70.7755 61.6555 70.7755 61.9566 71.6736L62.9195 74.5456C63.0542 74.9473 63.4404 75.2192 63.8762 75.2192H66.9922C67.9666 75.2192 68.3717 76.4276 67.5834 76.9826L65.0625 78.7576C64.71 79.0059 64.5624 79.4459 64.6971 79.8475L65.66 82.7196C65.9611 83.6176 64.9005 84.3645 64.1122 83.8094L61.5912 82.0344C61.2387 81.7862 60.7613 81.7862 60.4088 82.0344L57.8878 83.8094C57.0995 84.3645 56.0389 83.6176 56.34 82.7196L57.3029 79.8475C57.4376 79.4459 57.29 79.0059 56.9375 78.7576L54.4166 76.9826C53.6283 76.4276 54.0334 75.2192 55.0078 75.2192H58.1238C58.5596 75.2192 58.9458 74.9473 59.0805 74.5456L60.0434 71.6736Z" fill="#01699C"/>
</g>
</g>
<g id="Star/Small/Active">
<path id="StarIcon_4" d="M24.0434 71.6736C24.3445 70.7755 25.6555 70.7755 25.9566 71.6736L26.9195 74.5456C27.0542 74.9473 27.4404 75.2192 27.8762 75.2192H30.9922C31.9666 75.2192 32.3717 76.4276 31.5834 76.9826L29.0625 78.7576C28.71 79.0059 28.5624 79.4459 28.6971 79.8475L29.66 82.7196C29.9611 83.6176 28.9005 84.3645 28.1122 83.8094L25.5912 82.0344C25.2387 81.7862 24.7613 81.7862 24.4088 82.0344L21.8878 83.8094C21.0995 84.3645 20.0389 83.6176 20.34 82.7196L21.3029 79.8475C21.4376 79.4459 21.29 79.0059 20.9375 78.7576L18.4166 76.9826C17.6283 76.4276 18.0334 75.2192 19.0078 75.2192H22.1238C22.5596 75.2192 22.9458 74.9473 23.0805 74.5456L24.0434 71.6736Z" fill="#F5FCFD"/>
</g>
</g>
</g>
</svg>
