<svg width="86" height="75" viewBox="0 0 86 75" fill="none" xmlns="http://www.w3.org/2000/svg">
<g id="Buttons/Square-Medium/Levels/Default">
<g id="Button/Square-Medium">
<rect id="Background" y="1" width="86" height="74" rx="4" fill="#01699C"/>
<rect id="Background_2" x="0.5" y="0.5" width="85" height="69" rx="4.5" fill="#029AE0" stroke="#01699C"/>
</g>
<g id="Icons/Levels">
<path id="Rectangle" d="M38.9062 17.5H27.0938C26.4897 17.5 26 17.9897 26 18.5938V25.1562C26 25.7603 26.4897 26.25 27.0938 26.25H38.9062C39.5103 26.25 40 25.7603 40 25.1562V18.5938C40 17.9897 39.5103 17.5 38.9062 17.5Z" fill="#F5FCFD"/>
<path id="Rectangle_2" d="M38.9062 30.625H27.0938C26.4897 30.625 26 31.1147 26 31.7188V38.2812C26 38.8853 26.4897 39.375 27.0938 39.375H38.9062C39.5103 39.375 40 38.8853 40 38.2812V31.7188C40 31.1147 39.5103 30.625 38.9062 30.625Z" fill="#F5FCFD"/>
<path id="Rectangle_3" d="M38.9062 43.75H27.0938C26.4897 43.75 26 44.2397 26 44.8438V51.4062C26 52.0103 26.4897 52.5 27.0938 52.5H38.9062C39.5103 52.5 40 52.0103 40 51.4062V44.8438C40 44.2397 39.5103 43.75 38.9062 43.75Z" fill="#F5FCFD"/>
<path id="Rectangle_4" d="M59.9063 17.5H48.0938C47.4897 17.5 47 17.9897 47 18.5938V25.1562C47 25.7603 47.4897 26.25 48.0938 26.25H59.9063C60.5103 26.25 61 25.7603 61 25.1562V18.5938C61 17.9897 60.5103 17.5 59.9063 17.5Z" fill="#F5FCFD"/>
<path id="Rectangle_5" d="M59.9063 30.625H48.0938C47.4897 30.625 47 31.1147 47 31.7188V38.2812C47 38.8853 47.4897 39.375 48.0938 39.375H59.9063C60.5103 39.375 61 38.8853 61 38.2812V31.7188C61 31.1147 60.5103 30.625 59.9063 30.625Z" fill="#F5FCFD"/>
<path id="Rectangle_6" d="M59.9063 43.75H48.0938C47.4897 43.75 47 44.2397 47 44.8438V51.4062C47 52.0103 47.4897 52.5 48.0938 52.5H59.9063C60.5103 52.5 61 52.0103 61 51.4062V44.8438C61 44.2397 60.5103 43.75 59.9063 43.75Z" fill="#F5FCFD"/>
</g>
</g>
</svg>
