<svg width="86" height="75" viewBox="0 0 86 75" fill="none" xmlns="http://www.w3.org/2000/svg">
<g id="Buttons/Square-Medium/Star/Default">
<g id="Button/Square-Medium">
<rect id="Background" y="1" width="86" height="74" rx="4" fill="#01699C"/>
<rect id="Background_2" x="0.5" y="0.5" width="85" height="69" rx="4.5" fill="#029AE0" stroke="#01699C"/>
</g>
<g id="Icons/Star">
<path id="Vector" d="M40.4168 19.3135C41.1849 16.8955 44.5294 16.8955 45.2975 19.3135L47.7539 27.0459C48.0974 28.1272 49.0826 28.8594 50.1943 28.8594H58.1434C60.6291 28.8594 61.6626 32.1127 59.6516 33.607L53.2207 38.386C52.3213 39.0543 51.945 40.2389 52.2885 41.3202L54.7449 49.0526C55.5131 51.4706 52.8073 53.4812 50.7964 51.9869L44.3654 47.208C43.466 46.5397 42.2482 46.5397 41.3489 47.208L34.9179 51.9869C32.907 53.4812 30.2012 51.4706 30.9693 49.0526L33.4258 41.3202C33.7693 40.2389 33.393 39.0543 32.4936 38.386L26.0626 33.607C24.0517 32.1127 25.0852 28.8594 27.5709 28.8594H35.52C36.6316 28.8594 37.6168 28.1272 37.9604 27.0459L40.4168 19.3135Z" fill="#F5FCFD"/>
</g>
</g>
</svg>
