<svg width="86" height="88" viewBox="0 0 86 88" fill="none" xmlns="http://www.w3.org/2000/svg">
<g id="Level/Button/Locked">
<g id="Level/Button/Unlocked">
<rect id="Background" x="3" y="3.43408" width="80" height="81.1321" rx="5" fill="white" fill-opacity="0.15" stroke="#F5FCFD" stroke-width="5"/>
</g>
<g id="Icons/Locker">
<path id="Vector" fill-rule="evenodd" clip-rule="evenodd" d="M47.6667 37.6667H37.3333V33.5179C37.3333 30.1988 39.2062 27.7095 42.5 27.7095C45.7925 27.7095 47.6667 30.1988 47.6667 33.5179V37.6667ZM42.5 55.2381C40.3675 55.2381 38.625 53.481 38.625 51.3333C38.625 49.1857 40.3675 47.4286 42.5 47.4286C44.6312 47.4286 46.375 49.1857 46.375 51.3333C46.375 53.481 44.6312 55.2381 42.5 55.2381ZM54.125 37.6667H52.1875V33.7619C52.1875 28.2952 47.925 24 42.5 24C37.0737 24 32.8125 28.2952 32.8125 33.7619V37.6667H30.875C28.7425 37.6667 27 39.4238 27 41.5714V61.0952C27 63.2429 28.7425 65 30.875 65H54.125C56.2562 65 58 63.2429 58 61.0952V41.5714C58 39.4238 56.2562 37.6667 54.125 37.6667Z" fill="#F5F5F5"/>
</g>
</g>
</svg>
