<svg width="86" height="75" viewBox="0 0 86 75" fill="none" xmlns="http://www.w3.org/2000/svg">
<g id="Buttons/Square-Medium/Repeat/Default">
<g id="Button/Square-Medium">
<rect id="Background" y="1" width="86" height="74" rx="4" fill="#01699C"/>
<rect id="Background_2" x="0.5" y="0.5" width="85" height="69" rx="4.5" fill="#029AE0" stroke="#01699C"/>
</g>
<g id="Icons/Replay">
<path id="Fill" fill-rule="evenodd" clip-rule="evenodd" d="M54.6035 35.625C54.6035 35.625 51.8194 35.3125 51.3113 37.67C50.838 42.1924 47.2385 45.7089 42.8685 45.7089C38.1761 45.7089 34.3718 41.6545 34.3718 36.6536C34.3718 32.4824 37.7594 29.7614 41.6076 28.9736C42.2614 28.8396 42.8685 29.3747 42.8685 30.0839V32.2192C42.8685 33.1333 43.8348 33.6693 44.5371 33.1448L53.0365 26.8048C53.3203 26.5923 53.4891 26.2478 53.4891 25.8783C53.4891 25.5357 53.3427 25.2102 53.0912 24.9958L44.5919 17.7495C43.8968 17.157 42.8685 17.6844 42.8685 18.6319V20.9491C42.8685 21.5234 42.4653 22.0087 41.9291 22.0718C34.5074 22.9486 28 28.6185 28 36.6536C28 45.4055 34.6565 52.5006 42.8685 52.5006C50.6961 52.5006 57.111 46.0535 57.6939 37.8701C57.6939 36.5625 56.4596 35.625 54.6035 35.625Z" fill="#F5FCFD"/>
</g>
</g>
</svg>
