<svg width="14" height="13" viewBox="0 0 14 13" fill="none" xmlns="http://www.w3.org/2000/svg">
<path d="M6.04338 0.673569C6.34448 -0.224523 7.65552 -0.224523 7.95662 0.673569L8.91954 3.54562C9.05419 3.94726 9.4404 4.21919 9.87616 4.21919H12.9922C13.9666 4.21919 14.3717 5.42757 13.5834 5.98262L11.0625 7.75764C10.71 8.00587 10.5624 8.44586 10.6971 8.8475L11.66 11.7196C11.9611 12.6176 10.9005 13.3645 10.1122 12.8094L7.59122 11.0344C7.23869 10.7862 6.76131 10.7862 6.40877 11.0344L3.88783 12.8094C3.09953 13.3645 2.03888 12.6176 2.33998 11.7196L3.3029 8.8475C3.43756 8.44586 3.29004 8.00587 2.9375 7.75764L0.416555 5.98262C-0.371745 5.42757 0.0333883 4.21919 1.00778 4.21919H4.12384C4.5596 4.21919 4.9458 3.94726 5.08046 3.54562L6.04338 0.673569Z" fill="#01699C"/>
</svg>
