<svg width="600" height="80" viewBox="0 0 600 80" fill="none" xmlns="http://www.w3.org/2000/svg">
<g id="Panel/Title/Dummy">
<g id="Background">
<mask id="path-2-inside-1_6_665" fill="white">
<path d="M0 5C0 2.23858 2.23858 0 5 0H595C597.761 0 600 2.23858 600 5V80H0V5Z"/>
</mask>
<path d="M0 5C0 2.23858 2.23858 0 5 0H595C597.761 0 600 2.23858 600 5V80H0V5Z" fill="#029AE0"/>
<path d="M-1 5C-1 1.68629 1.68629 -1 5 -1H595C598.314 -1 601 1.68629 601 5H599C599 2.79086 597.209 1 595 1H5C2.79086 1 1 2.79086 1 5H-1ZM601 81H-1L1 79H599L601 81ZM-1 81V5C-1 1.68629 1.68629 -1 5 -1V1C2.79086 1 1 2.79086 1 5V79L-1 81ZM595 -1C598.314 -1 601 1.68629 601 5V81L599 79V5C599 2.79086 597.209 1 595 1V-1Z" fill="#01699C" mask="url(#path-2-inside-1_6_665)"/>
</g>
</g>
</svg>
