<svg width="1049" height="620" viewBox="0 0 1049 620" fill="none" xmlns="http://www.w3.org/2000/svg">
<g id="Buttons_Preview">
<g id="Buttons/Square-Medium/SoundOff/Hover">
<g id="Button/Square-Medium">
<g id="Background" filter="url(#filter0_d_6_416)">
<rect x="50" y="497" width="86" height="74" rx="4" fill="#01699C"/>
</g>
<rect id="Background_2" x="50.5" y="496.5" width="85" height="69" rx="4.5" fill="#029AE0" stroke="#01699C"/>
</g>
<g id="Icons/SoundOff">
<path id="Vector" d="M90.2555 514.164L83.173 520.612L80.2784 523.254H75.1443C74.5761 523.256 74.0315 523.501 73.6297 523.936C73.2279 524.371 73.0015 524.96 73 525.576V536.417C73 537.034 73.2257 537.625 73.6277 538.061C74.0297 538.497 74.5751 538.743 75.1443 538.745H80.2784L83.173 541.369L90.2555 547.829C90.6391 548.179 91.1072 548.403 91.6046 548.475C92.102 548.547 92.608 548.463 93.0628 548.234C93.5177 548.004 93.9026 547.639 94.172 547.181C94.4414 546.723 94.5841 546.191 94.5833 545.647V516.346C94.5818 515.804 94.4377 515.273 94.1679 514.816C93.898 514.36 93.5136 513.996 93.0596 513.767C92.6056 513.538 92.1008 513.454 91.6042 513.524C91.1076 513.594 90.6398 513.816 90.2555 514.164Z" fill="#F5FCFD"/>
<path id="Union" d="M98.1883 522.988C97.2706 523.971 97.2706 525.565 98.1883 526.549L102.343 531L98.1883 535.451C97.2706 536.435 97.2706 538.029 98.1883 539.012C99.1061 539.996 100.594 539.996 101.512 539.012L105.667 534.561L109.821 539.012C110.739 539.996 112.227 539.996 113.145 539.012C114.063 538.029 114.063 536.435 113.145 535.451L108.99 531L113.145 526.549C114.063 525.565 114.063 523.971 113.145 522.988C112.227 522.004 110.739 522.004 109.821 522.988L105.667 527.439L101.512 522.988C100.594 522.004 99.1062 522.004 98.1883 522.988Z" fill="#F5FCFD"/>
</g>
</g>
<g id="Buttons/Square-Medium/SoundOn/Hover">
<g id="Button/Square-Medium_2">
<g id="Background_3" filter="url(#filter1_d_6_416)">
<rect x="156" y="497" width="86" height="74" rx="4" fill="#01699C"/>
</g>
<rect id="Background_4" x="156.5" y="496.5" width="85" height="69" rx="4.5" fill="#029AE0" stroke="#01699C"/>
</g>
<g id="Icons/SoundOn">
<path id="Vector_2" d="M196.875 514.171L189.546 520.612L186.533 523.259H181.237C180.944 523.257 180.653 523.315 180.382 523.431C180.111 523.546 179.864 523.717 179.656 523.933C179.448 524.148 179.283 524.405 179.171 524.688C179.058 524.971 179 525.274 179 525.58V536.402C179.002 537.017 179.236 537.606 179.652 538.041C180.068 538.476 180.631 538.721 181.219 538.722H186.533L189.54 541.364L196.875 547.829C197.272 548.179 197.757 548.403 198.271 548.475C198.786 548.547 199.31 548.463 199.781 548.234C200.251 548.005 200.65 547.639 200.928 547.181C201.207 546.723 201.355 546.191 201.354 545.648V516.352C201.355 515.809 201.207 515.277 200.928 514.819C200.65 514.361 200.251 513.996 199.781 513.766C199.31 513.537 198.786 513.453 198.271 513.525C197.757 513.597 197.272 513.821 196.875 514.171Z" fill="#F5FCFD"/>
<path id="Vector_3" d="M212.188 522.918C211.795 522.49 211.262 522.25 210.707 522.25C210.152 522.25 209.62 522.49 209.227 522.918C209.03 523.128 208.873 523.379 208.766 523.656C208.659 523.934 208.604 524.231 208.604 524.532C208.604 524.833 208.659 525.131 208.766 525.408C208.873 525.685 209.03 525.937 209.227 526.147C210.405 527.437 211.066 529.184 211.066 531.005C211.066 532.826 210.405 534.572 209.227 535.863C209.03 536.073 208.873 536.324 208.766 536.602C208.659 536.879 208.604 537.177 208.604 537.478C208.604 537.778 208.659 538.076 208.766 538.354C208.873 538.631 209.03 538.882 209.227 539.092C209.417 539.306 209.646 539.474 209.898 539.587C210.151 539.7 210.422 539.755 210.694 539.749C210.971 539.756 211.246 539.701 211.503 539.588C211.759 539.475 211.992 539.306 212.188 539.092C214.149 536.944 215.25 534.036 215.25 531.005C215.25 527.973 214.149 525.065 212.188 522.918Z" fill="#F5FCFD"/>
</g>
</g>
<g id="Buttons/Square-Medium/Star/Hover">
<g id="Button/Square-Medium_3">
<g id="Background_5" filter="url(#filter2_d_6_416)">
<rect x="262" y="497" width="86" height="74" rx="4" fill="#01699C"/>
</g>
<rect id="Background_6" x="262.5" y="496.5" width="85" height="69" rx="4.5" fill="#029AE0" stroke="#01699C"/>
</g>
<g id="Icons/Star">
<path id="Vector_4" d="M302.417 515.313C303.185 512.896 306.529 512.896 307.298 515.313L309.754 523.046C310.097 524.127 311.083 524.859 312.194 524.859H320.143C322.629 524.859 323.663 528.113 321.652 529.607L315.221 534.386C314.321 535.054 313.945 536.239 314.289 537.32L316.745 545.053C317.513 547.471 314.807 549.481 312.796 547.987L306.365 543.208C305.466 542.54 304.248 542.54 303.349 543.208L296.918 547.987C294.907 549.481 292.201 547.471 292.969 545.053L295.426 537.32C295.769 536.239 295.393 535.054 294.494 534.386L288.063 529.607C286.052 528.113 287.085 524.859 289.571 524.859H297.52C298.632 524.859 299.617 524.127 299.96 523.046L302.417 515.313Z" fill="#F5FCFD"/>
</g>
</g>
<g id="Buttons/Square-Medium/Pause/Hover">
<g id="Button/Square-Medium_4">
<g id="Background_7" filter="url(#filter3_d_6_416)">
<rect x="368" y="497" width="86" height="74" rx="4" fill="#01699C"/>
</g>
<rect id="Background_8" x="368.5" y="496.5" width="85" height="69" rx="4.5" fill="#029AE0" stroke="#01699C"/>
</g>
<g id="Icons/Pause">
<rect id="Rectangle" x="398.5" y="514" width="9" height="34" rx="1.5" fill="#F5FCFD" stroke="#F5FCFD"/>
<rect id="Rectangle_2" x="413.5" y="514" width="9" height="34" rx="1.5" fill="#F5FCFD" stroke="#F5FCFD"/>
</g>
</g>
<g id="Buttons/Square-Medium/Home/Hover">
<g id="Button/Square-Medium_5">
<g id="Background_9" filter="url(#filter4_d_6_416)">
<rect x="474" y="497" width="86" height="74" rx="4" fill="#01699C"/>
</g>
<rect id="Background_10" x="474.5" y="496.5" width="85" height="69" rx="4.5" fill="#029AE0" stroke="#01699C"/>
</g>
<g id="Icons/Home">
<path id="Vector_5" d="M533.412 529.78L518.826 515.014L517.918 514.095C517.732 513.906 517.511 513.757 517.268 513.655C517.024 513.553 516.763 513.5 516.5 513.5C516.237 513.5 515.976 513.553 515.732 513.655C515.489 513.757 515.268 513.906 515.082 514.095L514.174 515.014L499.588 529.78C499.401 529.968 499.254 530.192 499.153 530.438C499.052 530.684 499 530.948 499 531.215C499 531.481 499.052 531.745 499.153 531.991C499.254 532.237 499.401 532.461 499.588 532.649L500.489 533.568C500.675 533.757 500.896 533.906 501.139 534.008C501.382 534.111 501.643 534.163 501.907 534.163C502.17 534.163 502.431 534.111 502.674 534.008C502.917 533.906 503.138 533.757 503.325 533.568L505.025 531.847V547.308C505.025 547.465 505.056 547.62 505.115 547.765C505.175 547.909 505.262 548.041 505.371 548.152C505.481 548.262 505.611 548.35 505.754 548.41C505.897 548.47 506.05 548.5 506.205 548.5H526.558C526.713 548.5 526.866 548.47 527.009 548.41C527.152 548.35 527.282 548.262 527.392 548.151C527.501 548.041 527.588 547.909 527.647 547.765C527.706 547.62 527.737 547.465 527.736 547.308V531.616L529.666 533.568C530.043 533.949 530.553 534.162 531.085 534.162C531.617 534.162 532.128 533.949 532.504 533.568L533.412 532.649C533.599 532.461 533.746 532.237 533.847 531.991C533.948 531.745 534 531.481 534 531.215C534 530.948 533.948 530.684 533.847 530.438C533.746 530.192 533.599 529.968 533.412 529.78Z" fill="#F5FCFD"/>
</g>
</g>
<g id="Buttons/Square-Medium/ArrowLeft/Hover">
<g id="Button/Square-Medium_6">
<g id="Background_11" filter="url(#filter5_d_6_416)">
<rect x="580" y="497" width="86" height="74" rx="4" fill="#01699C"/>
</g>
<rect id="Background_12" x="580.5" y="496.5" width="85" height="69" rx="4.5" fill="#029AE0" stroke="#01699C"/>
</g>
<g id="Icons/ArrowLeft">
<path id="Vector_6" d="M612.726 534.809C610.425 532.855 610.425 529.145 612.726 527.191L627.584 514.58C630.597 512.022 635.062 514.296 635.062 518.388V543.612C635.062 547.704 630.597 549.978 627.584 547.42L612.726 534.809Z" fill="#F5FCFD"/>
</g>
</g>
<g id="Buttons/Square-Medium/ArrowRight/Hover">
<g id="Button/Square-Medium_7">
<g id="Background_13" filter="url(#filter6_d_6_416)">
<rect x="686" y="497" width="86" height="74" rx="4" fill="#01699C"/>
</g>
<rect id="Background_14" x="686.5" y="496.5" width="85" height="69" rx="4.5" fill="#029AE0" stroke="#01699C"/>
</g>
<g id="Icons/ArrowRight">
<path id="Vector_7" d="M739.337 527.191C741.638 529.145 741.638 532.855 739.337 534.809L724.478 547.42C721.465 549.978 717 547.704 717 543.612V518.388C717 514.296 721.465 512.022 724.478 514.58L739.337 527.191Z" fill="#F5FCFD"/>
</g>
</g>
<g id="Buttons/Square-Medium/Repeat/Hover">
<g id="Button/Square-Medium_8">
<g id="Background_15" filter="url(#filter7_d_6_416)">
<rect x="792" y="497" width="86" height="74" rx="4" fill="#01699C"/>
</g>
<rect id="Background_16" x="792.5" y="496.5" width="85" height="69" rx="4.5" fill="#029AE0" stroke="#01699C"/>
</g>
<g id="Icons/Replay">
<path id="Fill" fill-rule="evenodd" clip-rule="evenodd" d="M846.604 531.625C846.604 531.625 843.819 531.313 843.311 533.67C842.838 538.192 839.239 541.709 834.868 541.709C830.176 541.709 826.372 537.655 826.372 532.654C826.372 528.482 829.759 525.761 833.608 524.974C834.261 524.84 834.868 525.375 834.868 526.084V528.219C834.868 529.133 835.835 529.669 836.537 529.145L845.036 522.805C845.32 522.592 845.489 522.248 845.489 521.878C845.489 521.536 845.343 521.21 845.091 520.996L836.592 513.749C835.897 513.157 834.868 513.684 834.868 514.632V516.949C834.868 517.523 834.465 518.009 833.929 518.072C826.507 518.949 820 524.619 820 532.654C820 541.405 826.657 548.501 834.868 548.501C842.696 548.501 849.111 542.053 849.694 533.87C849.694 532.563 848.46 531.625 846.604 531.625Z" fill="#F5FCFD"/>
</g>
</g>
<g id="Buttons/Square-Medium/Levels/Hover">
<g id="Button/Square-Medium_9">
<g id="Background_17" filter="url(#filter8_d_6_416)">
<rect x="898" y="497" width="86" height="74" rx="4" fill="#01699C"/>
</g>
<rect id="Background_18" x="898.5" y="496.5" width="85" height="69" rx="4.5" fill="#029AE0" stroke="#01699C"/>
</g>
<g id="Icons/Levels">
<path id="Rectangle_3" d="M936.906 513.5H925.094C924.49 513.5 924 513.99 924 514.594V521.156C924 521.76 924.49 522.25 925.094 522.25H936.906C937.51 522.25 938 521.76 938 521.156V514.594C938 513.99 937.51 513.5 936.906 513.5Z" fill="#F5FCFD"/>
<path id="Rectangle_4" d="M936.906 526.625H925.094C924.49 526.625 924 527.115 924 527.719V534.281C924 534.885 924.49 535.375 925.094 535.375H936.906C937.51 535.375 938 534.885 938 534.281V527.719C938 527.115 937.51 526.625 936.906 526.625Z" fill="#F5FCFD"/>
<path id="Rectangle_5" d="M936.906 539.75H925.094C924.49 539.75 924 540.24 924 540.844V547.406C924 548.01 924.49 548.5 925.094 548.5H936.906C937.51 548.5 938 548.01 938 547.406V540.844C938 540.24 937.51 539.75 936.906 539.75Z" fill="#F5FCFD"/>
<path id="Rectangle_6" d="M957.906 513.5H946.094C945.49 513.5 945 513.99 945 514.594V521.156C945 521.76 945.49 522.25 946.094 522.25H957.906C958.51 522.25 959 521.76 959 521.156V514.594C959 513.99 958.51 513.5 957.906 513.5Z" fill="#F5FCFD"/>
<path id="Rectangle_7" d="M957.906 526.625H946.094C945.49 526.625 945 527.115 945 527.719V534.281C945 534.885 945.49 535.375 946.094 535.375H957.906C958.51 535.375 959 534.885 959 534.281V527.719C959 527.115 958.51 526.625 957.906 526.625Z" fill="#F5FCFD"/>
<path id="Rectangle_8" d="M957.906 539.75H946.094C945.49 539.75 945 540.24 945 540.844V547.406C945 548.01 945.49 548.5 946.094 548.5H957.906C958.51 548.5 959 548.01 959 547.406V540.844C959 540.24 958.51 539.75 957.906 539.75Z" fill="#F5FCFD"/>
</g>
</g>
<g id="Buttons/Rect-Medium/PlayText/Default">
<g id="Button/Rect-Medium">
<rect id="Background_19" x="50" y="124" width="154" height="74" rx="5" fill="#01699C"/>
<rect id="Background_20" x="50.5" y="124.5" width="153" height="68" rx="4.5" fill="#029AE0" stroke="#01699C"/>
</g>
<text id="Play" fill="#F5FCFD" xml:space="preserve" style="white-space: pre" font-family="Rubik" font-size="36" font-weight="800" letter-spacing="0em"><tspan x="79.3281" y="173.33">PLAY</tspan></text>
</g>
<g id="Buttons/Rect-Medium/PlayIcon/Default">
<g id="Button/Rect-Medium_2">
<rect id="Background_21" x="224" y="124" width="154" height="74" rx="5" fill="#01699C"/>
<rect id="Background_22" x="224.5" y="124.5" width="153" height="68" rx="4.5" fill="#029AE0" stroke="#01699C"/>
</g>
<g id="Icons/Play">
<path id="Vector_8" d="M314.698 155.151C317.61 156.87 317.61 161.13 314.698 162.849L292.62 175.886C289.685 177.619 286 175.476 286 172.037L286 145.963C286 142.524 289.686 140.381 292.62 142.114L314.698 155.151Z" fill="#F5FCFD"/>
</g>
</g>
<g id="Buttons/Rect-Medium/PlayText/Hover">
<g id="Button/Rect-Medium_3">
<g id="Background_23" filter="url(#filter9_d_6_416)">
<rect x="50" y="248" width="154" height="74" rx="4" fill="#01699C"/>
</g>
<rect id="Background_24" x="50.5" y="248.5" width="153" height="68" rx="4.5" fill="#029AE0" stroke="#01699C"/>
</g>
<text id="Play_2" fill="#F5FCFD" xml:space="preserve" style="white-space: pre" font-family="Rubik" font-size="36" font-weight="800" letter-spacing="0em"><tspan x="79.3281" y="297.33">PLAY</tspan></text>
</g>
<g id="Buttons/Rect-Medium/PlayIcon/Hover">
<g id="Button/Rect-Medium_4">
<g id="Background_25" filter="url(#filter10_d_6_416)">
<rect x="224" y="248" width="154" height="74" rx="4" fill="#01699C"/>
</g>
<rect id="Background_26" x="224.5" y="248.5" width="153" height="68" rx="4.5" fill="#029AE0" stroke="#01699C"/>
</g>
<g id="Icons/Play_2">
<path id="Vector_9" d="M314.698 279.151C317.61 280.87 317.61 285.13 314.698 286.849L292.62 299.886C289.685 301.619 286 299.476 286 296.037L286 269.963C286 266.524 289.686 264.381 292.62 266.114L314.698 279.151Z" fill="#F5FCFD"/>
</g>
</g>
<g id="Buttons/Square-Medium/SoundOff/Default">
<g id="Button/Square-Medium_10">
<rect id="Background_27" x="50" y="373" width="86" height="74" rx="4" fill="#01699C"/>
<rect id="Background_28" x="50.5" y="372.5" width="85" height="69" rx="4.5" fill="#029AE0" stroke="#01699C"/>
</g>
<g id="Icons/SoundOff_2">
<path id="Vector_10" d="M90.2555 390.164L83.173 396.612L80.2784 399.254H75.1443C74.5761 399.256 74.0315 399.501 73.6297 399.936C73.2279 400.371 73.0015 400.96 73 401.576V412.417C73 413.034 73.2257 413.625 73.6277 414.061C74.0297 414.497 74.5751 414.743 75.1443 414.745H80.2784L83.173 417.369L90.2555 423.829C90.6391 424.179 91.1072 424.403 91.6046 424.475C92.102 424.547 92.608 424.463 93.0628 424.234C93.5177 424.004 93.9026 423.639 94.172 423.181C94.4414 422.723 94.5841 422.191 94.5833 421.647V392.346C94.5818 391.804 94.4377 391.273 94.1679 390.816C93.898 390.36 93.5136 389.996 93.0596 389.767C92.6056 389.538 92.1008 389.454 91.6042 389.524C91.1076 389.594 90.6398 389.816 90.2555 390.164Z" fill="#F5FCFD"/>
<path id="Union_2" d="M98.1883 398.988C97.2706 399.971 97.2706 401.565 98.1883 402.549L102.343 407L98.1883 411.451C97.2706 412.435 97.2706 414.029 98.1883 415.012C99.1061 415.996 100.594 415.996 101.512 415.012L105.667 410.561L109.821 415.012C110.739 415.996 112.227 415.996 113.145 415.012C114.063 414.029 114.063 412.435 113.145 411.451L108.99 407L113.145 402.549C114.063 401.565 114.063 399.971 113.145 398.988C112.227 398.004 110.739 398.004 109.821 398.988L105.667 403.439L101.512 398.988C100.594 398.004 99.1062 398.004 98.1883 398.988Z" fill="#F5FCFD"/>
</g>
</g>
<g id="Buttons/Square-Medium/SoundOn/Default">
<g id="Button/Square-Medium_11">
<rect id="Background_29" x="156" y="373" width="86" height="74" rx="4" fill="#01699C"/>
<rect id="Background_30" x="156.5" y="372.5" width="85" height="69" rx="4.5" fill="#029AE0" stroke="#01699C"/>
</g>
<g id="Icons/SoundOn_2">
<path id="Vector_11" d="M196.875 390.171L189.546 396.612L186.533 399.259H181.237C180.944 399.257 180.653 399.315 180.382 399.431C180.111 399.546 179.864 399.717 179.656 399.933C179.448 400.148 179.283 400.405 179.171 400.688C179.058 400.971 179 401.274 179 401.58V412.402C179.002 413.017 179.236 413.606 179.652 414.041C180.068 414.476 180.631 414.721 181.219 414.722H186.533L189.54 417.364L196.875 423.829C197.272 424.179 197.757 424.403 198.271 424.475C198.786 424.547 199.31 424.463 199.781 424.234C200.251 424.005 200.65 423.639 200.928 423.181C201.207 422.723 201.355 422.191 201.354 421.648V392.352C201.355 391.809 201.207 391.277 200.928 390.819C200.65 390.361 200.251 389.996 199.781 389.766C199.31 389.537 198.786 389.453 198.271 389.525C197.757 389.597 197.272 389.821 196.875 390.171Z" fill="#F5FCFD"/>
<path id="Vector_12" d="M212.188 398.918C211.795 398.49 211.262 398.25 210.707 398.25C210.152 398.25 209.62 398.49 209.227 398.918C209.03 399.128 208.873 399.379 208.766 399.656C208.659 399.934 208.604 400.231 208.604 400.532C208.604 400.833 208.659 401.131 208.766 401.408C208.873 401.685 209.03 401.937 209.227 402.147C210.405 403.437 211.066 405.184 211.066 407.005C211.066 408.826 210.405 410.572 209.227 411.863C209.03 412.073 208.873 412.324 208.766 412.602C208.659 412.879 208.604 413.177 208.604 413.478C208.604 413.778 208.659 414.076 208.766 414.354C208.873 414.631 209.03 414.882 209.227 415.092C209.417 415.306 209.646 415.474 209.898 415.587C210.151 415.7 210.422 415.755 210.694 415.749C210.971 415.756 211.246 415.701 211.503 415.588C211.759 415.475 211.992 415.306 212.188 415.092C214.149 412.944 215.25 410.036 215.25 407.005C215.25 403.973 214.149 401.065 212.188 398.918Z" fill="#F5FCFD"/>
</g>
</g>
<g id="Buttons/Square-Medium/Star/Default">
<g id="Button/Square-Medium_12">
<rect id="Background_31" x="262" y="373" width="86" height="74" rx="4" fill="#01699C"/>
<rect id="Background_32" x="262.5" y="372.5" width="85" height="69" rx="4.5" fill="#029AE0" stroke="#01699C"/>
</g>
<g id="Icons/Star_2">
<path id="Vector_13" d="M302.417 391.313C303.185 388.896 306.529 388.896 307.298 391.313L309.754 399.046C310.097 400.127 311.083 400.859 312.194 400.859H320.143C322.629 400.859 323.663 404.113 321.652 405.607L315.221 410.386C314.321 411.054 313.945 412.239 314.289 413.32L316.745 421.053C317.513 423.471 314.807 425.481 312.796 423.987L306.365 419.208C305.466 418.54 304.248 418.54 303.349 419.208L296.918 423.987C294.907 425.481 292.201 423.471 292.969 421.053L295.426 413.32C295.769 412.239 295.393 411.054 294.494 410.386L288.063 405.607C286.052 404.113 287.085 400.859 289.571 400.859H297.52C298.632 400.859 299.617 400.127 299.96 399.046L302.417 391.313Z" fill="#F5FCFD"/>
</g>
</g>
<g id="Buttons/Square-Medium/Pause/Default">
<g id="Button/Square-Medium_13">
<rect id="Background_33" x="368" y="373" width="86" height="74" rx="4" fill="#01699C"/>
<rect id="Background_34" x="368.5" y="372.5" width="85" height="69" rx="4.5" fill="#029AE0" stroke="#01699C"/>
</g>
<g id="Icons/Pause_2">
<rect id="Rectangle_9" x="398.5" y="390" width="9" height="34" rx="1.5" fill="#F5FCFD" stroke="#F5FCFD"/>
<rect id="Rectangle_10" x="413.5" y="390" width="9" height="34" rx="1.5" fill="#F5FCFD" stroke="#F5FCFD"/>
</g>
</g>
<g id="Buttons/Square-Medium/Home/Default">
<g id="Button/Square-Medium_14">
<rect id="Background_35" x="474" y="373" width="86" height="74" rx="4" fill="#01699C"/>
<rect id="Background_36" x="474.5" y="372.5" width="85" height="69" rx="4.5" fill="#029AE0" stroke="#01699C"/>
</g>
<g id="Icons/Home_2">
<path id="Vector_14" d="M533.412 405.78L518.826 391.014L517.918 390.095C517.732 389.906 517.511 389.757 517.268 389.655C517.024 389.553 516.763 389.5 516.5 389.5C516.237 389.5 515.976 389.553 515.732 389.655C515.489 389.757 515.268 389.906 515.082 390.095L514.174 391.014L499.588 405.78C499.401 405.968 499.254 406.192 499.153 406.438C499.052 406.684 499 406.948 499 407.215C499 407.481 499.052 407.745 499.153 407.991C499.254 408.237 499.401 408.461 499.588 408.649L500.489 409.568C500.675 409.757 500.896 409.906 501.139 410.008C501.382 410.111 501.643 410.163 501.907 410.163C502.17 410.163 502.431 410.111 502.674 410.008C502.917 409.906 503.138 409.757 503.325 409.568L505.025 407.847V423.308C505.025 423.465 505.056 423.62 505.115 423.765C505.175 423.909 505.262 424.041 505.371 424.152C505.481 424.262 505.611 424.35 505.754 424.41C505.897 424.47 506.05 424.5 506.205 424.5H526.558C526.713 424.5 526.866 424.47 527.009 424.41C527.152 424.35 527.282 424.262 527.392 424.151C527.501 424.041 527.588 423.909 527.647 423.765C527.706 423.62 527.737 423.465 527.736 423.308V407.616L529.666 409.568C530.043 409.949 530.553 410.162 531.085 410.162C531.617 410.162 532.128 409.949 532.504 409.568L533.412 408.649C533.599 408.461 533.746 408.237 533.847 407.991C533.948 407.745 534 407.481 534 407.215C534 406.948 533.948 406.684 533.847 406.438C533.746 406.192 533.599 405.968 533.412 405.78Z" fill="#F5FCFD"/>
</g>
</g>
<g id="Buttons/Square-Medium/ArrowLeft/Default">
<g id="Button/Square-Medium_15">
<rect id="Background_37" x="580" y="373" width="86" height="74" rx="4" fill="#01699C"/>
<rect id="Background_38" x="580.5" y="372.5" width="85" height="69" rx="4.5" fill="#029AE0" stroke="#01699C"/>
</g>
<g id="Icons/ArrowLeft_2">
<path id="Vector_15" d="M612.726 410.809C610.425 408.855 610.425 405.145 612.726 403.191L627.584 390.58C630.597 388.022 635.062 390.296 635.062 394.388V419.612C635.062 423.704 630.597 425.978 627.584 423.42L612.726 410.809Z" fill="#F5FCFD"/>
</g>
</g>
<g id="Buttons/Square-Medium/ArrowRight/Default">
<g id="Button/Square-Medium_16">
<rect id="Background_39" x="686" y="373" width="86" height="74" rx="4" fill="#01699C"/>
<rect id="Background_40" x="686.5" y="372.5" width="85" height="69" rx="4.5" fill="#029AE0" stroke="#01699C"/>
</g>
<g id="Icons/ArrowRight_2">
<path id="Vector_16" d="M739.337 403.191C741.638 405.145 741.638 408.855 739.337 410.809L724.478 423.42C721.465 425.978 717 423.704 717 419.612V394.388C717 390.296 721.465 388.022 724.478 390.58L739.337 403.191Z" fill="#F5FCFD"/>
</g>
</g>
<g id="Buttons/Square-Medium/Repeat/Default">
<g id="Button/Square-Medium_17">
<rect id="Background_41" x="792" y="373" width="86" height="74" rx="4" fill="#01699C"/>
<rect id="Background_42" x="792.5" y="372.5" width="85" height="69" rx="4.5" fill="#029AE0" stroke="#01699C"/>
</g>
<g id="Icons/Replay_2">
<path id="Fill_2" fill-rule="evenodd" clip-rule="evenodd" d="M846.604 407.625C846.604 407.625 843.819 407.313 843.311 409.67C842.838 414.192 839.239 417.709 834.868 417.709C830.176 417.709 826.372 413.655 826.372 408.654C826.372 404.482 829.759 401.761 833.608 400.974C834.261 400.84 834.868 401.375 834.868 402.084V404.219C834.868 405.133 835.835 405.669 836.537 405.145L845.036 398.805C845.32 398.592 845.489 398.248 845.489 397.878C845.489 397.536 845.343 397.21 845.091 396.996L836.592 389.749C835.897 389.157 834.868 389.684 834.868 390.632V392.949C834.868 393.523 834.465 394.009 833.929 394.072C826.507 394.949 820 400.619 820 408.654C820 417.405 826.657 424.501 834.868 424.501C842.696 424.501 849.111 418.053 849.694 409.87C849.694 408.563 848.46 407.625 846.604 407.625Z" fill="#F5FCFD"/>
</g>
</g>
<g id="Buttons/Square-Medium/Levels/Default">
<g id="Button/Square-Medium_18">
<rect id="Background_43" x="898" y="373" width="86" height="74" rx="4" fill="#01699C"/>
<rect id="Background_44" x="898.5" y="372.5" width="85" height="69" rx="4.5" fill="#029AE0" stroke="#01699C"/>
</g>
<g id="Icons/Levels_2">
<path id="Rectangle_11" d="M936.906 389.5H925.094C924.49 389.5 924 389.99 924 390.594V397.156C924 397.76 924.49 398.25 925.094 398.25H936.906C937.51 398.25 938 397.76 938 397.156V390.594C938 389.99 937.51 389.5 936.906 389.5Z" fill="#F5FCFD"/>
<path id="Rectangle_12" d="M936.906 402.625H925.094C924.49 402.625 924 403.115 924 403.719V410.281C924 410.885 924.49 411.375 925.094 411.375H936.906C937.51 411.375 938 410.885 938 410.281V403.719C938 403.115 937.51 402.625 936.906 402.625Z" fill="#F5FCFD"/>
<path id="Rectangle_13" d="M936.906 415.75H925.094C924.49 415.75 924 416.24 924 416.844V423.406C924 424.01 924.49 424.5 925.094 424.5H936.906C937.51 424.5 938 424.01 938 423.406V416.844C938 416.24 937.51 415.75 936.906 415.75Z" fill="#F5FCFD"/>
<path id="Rectangle_14" d="M957.906 389.5H946.094C945.49 389.5 945 389.99 945 390.594V397.156C945 397.76 945.49 398.25 946.094 398.25H957.906C958.51 398.25 959 397.76 959 397.156V390.594C959 389.99 958.51 389.5 957.906 389.5Z" fill="#F5FCFD"/>
<path id="Rectangle_15" d="M957.906 402.625H946.094C945.49 402.625 945 403.115 945 403.719V410.281C945 410.885 945.49 411.375 946.094 411.375H957.906C958.51 411.375 959 410.885 959 410.281V403.719C959 403.115 958.51 402.625 957.906 402.625Z" fill="#F5FCFD"/>
<path id="Rectangle_16" d="M957.906 415.75H946.094C945.49 415.75 945 416.24 945 416.844V423.406C945 424.01 945.49 424.5 946.094 424.5H957.906C958.51 424.5 959 424.01 959 423.406V416.844C959 416.24 958.51 415.75 957.906 415.75Z" fill="#F5FCFD"/>
</g>
</g>
<g id="Title">
<rect x="50" y="50" width="64" height="24" rx="4" fill="#FED70A"/>
<text id="MessageText" fill="#212121" xml:space="preserve" style="white-space: pre" font-family="Arial" font-size="14" letter-spacing="0em"><tspan x="58" y="66.8535">Buttons</tspan></text>
</g>
<rect x="0.5" y="0.5" width="1048" height="619" stroke="white"/>
</g>
<defs>
<filter id="filter0_d_6_416" x="47" y="494" width="92" height="80" filterUnits="userSpaceOnUse" color-interpolation-filters="sRGB">
<feFlood flood-opacity="0" result="BackgroundImageFix"/>
<feColorMatrix in="SourceAlpha" type="matrix" values="0 0 0 0 0 0 0 0 0 0 0 0 0 0 0 0 0 0 127 0" result="hardAlpha"/>
<feMorphology radius="3" operator="dilate" in="SourceAlpha" result="effect1_dropShadow_6_416"/>
<feOffset/>
<feComposite in2="hardAlpha" operator="out"/>
<feColorMatrix type="matrix" values="0 0 0 0 1 0 0 0 0 1 0 0 0 0 1 0 0 0 1 0"/>
<feBlend mode="normal" in2="BackgroundImageFix" result="effect1_dropShadow_6_416"/>
<feBlend mode="normal" in="SourceGraphic" in2="effect1_dropShadow_6_416" result="shape"/>
</filter>
<filter id="filter1_d_6_416" x="153" y="494" width="92" height="80" filterUnits="userSpaceOnUse" color-interpolation-filters="sRGB">
<feFlood flood-opacity="0" result="BackgroundImageFix"/>
<feColorMatrix in="SourceAlpha" type="matrix" values="0 0 0 0 0 0 0 0 0 0 0 0 0 0 0 0 0 0 127 0" result="hardAlpha"/>
<feMorphology radius="3" operator="dilate" in="SourceAlpha" result="effect1_dropShadow_6_416"/>
<feOffset/>
<feComposite in2="hardAlpha" operator="out"/>
<feColorMatrix type="matrix" values="0 0 0 0 1 0 0 0 0 1 0 0 0 0 1 0 0 0 1 0"/>
<feBlend mode="normal" in2="BackgroundImageFix" result="effect1_dropShadow_6_416"/>
<feBlend mode="normal" in="SourceGraphic" in2="effect1_dropShadow_6_416" result="shape"/>
</filter>
<filter id="filter2_d_6_416" x="259" y="494" width="92" height="80" filterUnits="userSpaceOnUse" color-interpolation-filters="sRGB">
<feFlood flood-opacity="0" result="BackgroundImageFix"/>
<feColorMatrix in="SourceAlpha" type="matrix" values="0 0 0 0 0 0 0 0 0 0 0 0 0 0 0 0 0 0 127 0" result="hardAlpha"/>
<feMorphology radius="3" operator="dilate" in="SourceAlpha" result="effect1_dropShadow_6_416"/>
<feOffset/>
<feComposite in2="hardAlpha" operator="out"/>
<feColorMatrix type="matrix" values="0 0 0 0 1 0 0 0 0 1 0 0 0 0 1 0 0 0 1 0"/>
<feBlend mode="normal" in2="BackgroundImageFix" result="effect1_dropShadow_6_416"/>
<feBlend mode="normal" in="SourceGraphic" in2="effect1_dropShadow_6_416" result="shape"/>
</filter>
<filter id="filter3_d_6_416" x="365" y="494" width="92" height="80" filterUnits="userSpaceOnUse" color-interpolation-filters="sRGB">
<feFlood flood-opacity="0" result="BackgroundImageFix"/>
<feColorMatrix in="SourceAlpha" type="matrix" values="0 0 0 0 0 0 0 0 0 0 0 0 0 0 0 0 0 0 127 0" result="hardAlpha"/>
<feMorphology radius="3" operator="dilate" in="SourceAlpha" result="effect1_dropShadow_6_416"/>
<feOffset/>
<feComposite in2="hardAlpha" operator="out"/>
<feColorMatrix type="matrix" values="0 0 0 0 1 0 0 0 0 1 0 0 0 0 1 0 0 0 1 0"/>
<feBlend mode="normal" in2="BackgroundImageFix" result="effect1_dropShadow_6_416"/>
<feBlend mode="normal" in="SourceGraphic" in2="effect1_dropShadow_6_416" result="shape"/>
</filter>
<filter id="filter4_d_6_416" x="471" y="494" width="92" height="80" filterUnits="userSpaceOnUse" color-interpolation-filters="sRGB">
<feFlood flood-opacity="0" result="BackgroundImageFix"/>
<feColorMatrix in="SourceAlpha" type="matrix" values="0 0 0 0 0 0 0 0 0 0 0 0 0 0 0 0 0 0 127 0" result="hardAlpha"/>
<feMorphology radius="3" operator="dilate" in="SourceAlpha" result="effect1_dropShadow_6_416"/>
<feOffset/>
<feComposite in2="hardAlpha" operator="out"/>
<feColorMatrix type="matrix" values="0 0 0 0 1 0 0 0 0 1 0 0 0 0 1 0 0 0 1 0"/>
<feBlend mode="normal" in2="BackgroundImageFix" result="effect1_dropShadow_6_416"/>
<feBlend mode="normal" in="SourceGraphic" in2="effect1_dropShadow_6_416" result="shape"/>
</filter>
<filter id="filter5_d_6_416" x="577" y="494" width="92" height="80" filterUnits="userSpaceOnUse" color-interpolation-filters="sRGB">
<feFlood flood-opacity="0" result="BackgroundImageFix"/>
<feColorMatrix in="SourceAlpha" type="matrix" values="0 0 0 0 0 0 0 0 0 0 0 0 0 0 0 0 0 0 127 0" result="hardAlpha"/>
<feMorphology radius="3" operator="dilate" in="SourceAlpha" result="effect1_dropShadow_6_416"/>
<feOffset/>
<feComposite in2="hardAlpha" operator="out"/>
<feColorMatrix type="matrix" values="0 0 0 0 1 0 0 0 0 1 0 0 0 0 1 0 0 0 1 0"/>
<feBlend mode="normal" in2="BackgroundImageFix" result="effect1_dropShadow_6_416"/>
<feBlend mode="normal" in="SourceGraphic" in2="effect1_dropShadow_6_416" result="shape"/>
</filter>
<filter id="filter6_d_6_416" x="683" y="494" width="92" height="80" filterUnits="userSpaceOnUse" color-interpolation-filters="sRGB">
<feFlood flood-opacity="0" result="BackgroundImageFix"/>
<feColorMatrix in="SourceAlpha" type="matrix" values="0 0 0 0 0 0 0 0 0 0 0 0 0 0 0 0 0 0 127 0" result="hardAlpha"/>
<feMorphology radius="3" operator="dilate" in="SourceAlpha" result="effect1_dropShadow_6_416"/>
<feOffset/>
<feComposite in2="hardAlpha" operator="out"/>
<feColorMatrix type="matrix" values="0 0 0 0 1 0 0 0 0 1 0 0 0 0 1 0 0 0 1 0"/>
<feBlend mode="normal" in2="BackgroundImageFix" result="effect1_dropShadow_6_416"/>
<feBlend mode="normal" in="SourceGraphic" in2="effect1_dropShadow_6_416" result="shape"/>
</filter>
<filter id="filter7_d_6_416" x="789" y="494" width="92" height="80" filterUnits="userSpaceOnUse" color-interpolation-filters="sRGB">
<feFlood flood-opacity="0" result="BackgroundImageFix"/>
<feColorMatrix in="SourceAlpha" type="matrix" values="0 0 0 0 0 0 0 0 0 0 0 0 0 0 0 0 0 0 127 0" result="hardAlpha"/>
<feMorphology radius="3" operator="dilate" in="SourceAlpha" result="effect1_dropShadow_6_416"/>
<feOffset/>
<feComposite in2="hardAlpha" operator="out"/>
<feColorMatrix type="matrix" values="0 0 0 0 1 0 0 0 0 1 0 0 0 0 1 0 0 0 1 0"/>
<feBlend mode="normal" in2="BackgroundImageFix" result="effect1_dropShadow_6_416"/>
<feBlend mode="normal" in="SourceGraphic" in2="effect1_dropShadow_6_416" result="shape"/>
</filter>
<filter id="filter8_d_6_416" x="895" y="494" width="92" height="80" filterUnits="userSpaceOnUse" color-interpolation-filters="sRGB">
<feFlood flood-opacity="0" result="BackgroundImageFix"/>
<feColorMatrix in="SourceAlpha" type="matrix" values="0 0 0 0 0 0 0 0 0 0 0 0 0 0 0 0 0 0 127 0" result="hardAlpha"/>
<feMorphology radius="3" operator="dilate" in="SourceAlpha" result="effect1_dropShadow_6_416"/>
<feOffset/>
<feComposite in2="hardAlpha" operator="out"/>
<feColorMatrix type="matrix" values="0 0 0 0 1 0 0 0 0 1 0 0 0 0 1 0 0 0 1 0"/>
<feBlend mode="normal" in2="BackgroundImageFix" result="effect1_dropShadow_6_416"/>
<feBlend mode="normal" in="SourceGraphic" in2="effect1_dropShadow_6_416" result="shape"/>
</filter>
<filter id="filter9_d_6_416" x="47" y="245" width="160" height="80" filterUnits="userSpaceOnUse" color-interpolation-filters="sRGB">
<feFlood flood-opacity="0" result="BackgroundImageFix"/>
<feColorMatrix in="SourceAlpha" type="matrix" values="0 0 0 0 0 0 0 0 0 0 0 0 0 0 0 0 0 0 127 0" result="hardAlpha"/>
<feMorphology radius="3" operator="dilate" in="SourceAlpha" result="effect1_dropShadow_6_416"/>
<feOffset/>
<feComposite in2="hardAlpha" operator="out"/>
<feColorMatrix type="matrix" values="0 0 0 0 1 0 0 0 0 1 0 0 0 0 1 0 0 0 1 0"/>
<feBlend mode="normal" in2="BackgroundImageFix" result="effect1_dropShadow_6_416"/>
<feBlend mode="normal" in="SourceGraphic" in2="effect1_dropShadow_6_416" result="shape"/>
</filter>
<filter id="filter10_d_6_416" x="221" y="245" width="160" height="80" filterUnits="userSpaceOnUse" color-interpolation-filters="sRGB">
<feFlood flood-opacity="0" result="BackgroundImageFix"/>
<feColorMatrix in="SourceAlpha" type="matrix" values="0 0 0 0 0 0 0 0 0 0 0 0 0 0 0 0 0 0 127 0" result="hardAlpha"/>
<feMorphology radius="3" operator="dilate" in="SourceAlpha" result="effect1_dropShadow_6_416"/>
<feOffset/>
<feComposite in2="hardAlpha" operator="out"/>
<feColorMatrix type="matrix" values="0 0 0 0 1 0 0 0 0 1 0 0 0 0 1 0 0 0 1 0"/>
<feBlend mode="normal" in2="BackgroundImageFix" result="effect1_dropShadow_6_416"/>
<feBlend mode="normal" in="SourceGraphic" in2="effect1_dropShadow_6_416" result="shape"/>
</filter>
</defs>
</svg>
