<svg width="635" height="693" viewBox="0 0 635 693" fill="none" xmlns="http://www.w3.org/2000/svg">
<g id="Level_Preview">
<g id="Title">
<rect x="50" y="50" width="205" height="24" rx="4" fill="#FED70A"/>
<text id="MessageText" fill="#212121" xml:space="preserve" style="white-space: pre" font-family="Arial" font-size="14" letter-spacing="0em"><tspan x="58" y="66.8535">Level/Button/Unlocked/Default</tspan></text>
</g>
<g id="Level/Button/Unlocked/Default">
<rect id="Border" opacity="0.4" x="52" y="96" width="82" height="92" rx="4" fill="#029AE0" stroke="#F5FCFD" stroke-width="4"/>
<rect id="Background" x="54.5" y="98.5" width="77" height="87" rx="1.5" fill="#029AE0" stroke="#01699C"/>
</g>
<g id="Title_2">
<rect x="50" y="210" width="198" height="24" rx="4" fill="#FED70A"/>
<text id="MessageText_2" fill="#212121" xml:space="preserve" style="white-space: pre" font-family="Arial" font-size="14" letter-spacing="0em"><tspan x="58" y="226.854">Level/Button/Unlocked/Hover</tspan></text>
</g>
<g id="Level/Button/Unlocked/Hover">
<rect id="Background_2" x="52.5" y="256.5" width="81" height="91" rx="3.5" fill="#029AE0" stroke="#01699C" stroke-width="5"/>
<rect id="Background_3" x="52" y="256" width="82" height="92" rx="4" stroke="#F5FCFD" stroke-width="4"/>
</g>
<g id="Title_3">
<rect x="305" y="50" width="143" height="24" rx="4" fill="#FED70A"/>
<text id="MessageText_3" fill="#212121" xml:space="preserve" style="white-space: pre" font-family="Arial" font-size="14" letter-spacing="0em"><tspan x="313" y="66.8535">Level/Button/Locked</tspan></text>
</g>
<g id="Level/Button/Locked">
<g id="Level/Button/Unlocked">
<rect id="Background_4" x="308" y="97.4341" width="80" height="81.1321" rx="5" fill="white" fill-opacity="0.15" stroke="#F5FCFD" stroke-width="5"/>
</g>
<g id="Icons/Locker">
<path id="Vector" fill-rule="evenodd" clip-rule="evenodd" d="M352.667 131.667H342.333V127.518C342.333 124.199 344.206 121.71 347.5 121.71C350.792 121.71 352.667 124.199 352.667 127.518V131.667ZM347.5 149.238C345.367 149.238 343.625 147.481 343.625 145.333C343.625 143.186 345.367 141.429 347.5 141.429C349.631 141.429 351.375 143.186 351.375 145.333C351.375 147.481 349.631 149.238 347.5 149.238ZM359.125 131.667H357.188V127.762C357.188 122.295 352.925 118 347.5 118C342.074 118 337.812 122.295 337.812 127.762V131.667H335.875C333.742 131.667 332 133.424 332 135.571V155.095C332 157.243 333.742 159 335.875 159H359.125C361.256 159 363 157.243 363 155.095V135.571C363 133.424 361.256 131.667 359.125 131.667Z" fill="#F5F5F5"/>
</g>
</g>
<g id="Title_4">
<rect x="498" y="50" width="87" height="24" rx="4" fill="#FED70A"/>
<text id="MessageText_4" fill="#212121" xml:space="preserve" style="white-space: pre" font-family="Arial" font-size="14" letter-spacing="0em"><tspan x="506" y="66.8535">Level/Stars</tspan></text>
</g>
<g id="StarSmallGroup" clip-path="url(#clip0_6_894)">
<g id="Level/Stars/0-3">
<g id="Star/Small/Unactive">
<path id="StarIcon" d="M504.043 94.6736C504.344 93.7755 505.656 93.7755 505.957 94.6736L506.92 97.5456C507.054 97.9473 507.44 98.2192 507.876 98.2192H510.992C511.967 98.2192 512.372 99.4276 511.583 99.9826L509.062 101.758C508.71 102.006 508.562 102.446 508.697 102.847L509.66 105.72C509.961 106.618 508.9 107.364 508.112 106.809L505.591 105.034C505.239 104.786 504.761 104.786 504.409 105.034L501.888 106.809C501.1 107.364 500.039 106.618 500.34 105.72L501.303 102.847C501.438 102.446 501.29 102.006 500.938 101.758L498.417 99.9826C497.628 99.4276 498.033 98.2192 499.008 98.2192H502.124C502.56 98.2192 502.946 97.9473 503.08 97.5456L504.043 94.6736Z" fill="#01699C"/>
</g>
<g id="Star/Small/Unactive_2">
<path id="StarIcon_2" d="M522.043 94.6736C522.344 93.7755 523.656 93.7755 523.957 94.6736L524.92 97.5456C525.054 97.9473 525.44 98.2192 525.876 98.2192H528.992C529.967 98.2192 530.372 99.4276 529.583 99.9826L527.062 101.758C526.71 102.006 526.562 102.446 526.697 102.847L527.66 105.72C527.961 106.618 526.9 107.364 526.112 106.809L523.591 105.034C523.239 104.786 522.761 104.786 522.409 105.034L519.888 106.809C519.1 107.364 518.039 106.618 518.34 105.72L519.303 102.847C519.438 102.446 519.29 102.006 518.938 101.758L516.417 99.9826C515.628 99.4276 516.033 98.2192 517.008 98.2192H520.124C520.56 98.2192 520.946 97.9473 521.08 97.5456L522.043 94.6736Z" fill="#01699C"/>
</g>
<g id="Star/Small/Unactive_3">
<path id="StarIcon_3" d="M540.043 94.6736C540.344 93.7755 541.656 93.7755 541.957 94.6736L542.92 97.5456C543.054 97.9473 543.44 98.2192 543.876 98.2192H546.992C547.967 98.2192 548.372 99.4276 547.583 99.9826L545.062 101.758C544.71 102.006 544.562 102.446 544.697 102.847L545.66 105.72C545.961 106.618 544.9 107.364 544.112 106.809L541.591 105.034C541.239 104.786 540.761 104.786 540.409 105.034L537.888 106.809C537.1 107.364 536.039 106.618 536.34 105.72L537.303 102.847C537.438 102.446 537.29 102.006 536.938 101.758L534.417 99.9826C533.628 99.4276 534.033 98.2192 535.008 98.2192H538.124C538.56 98.2192 538.946 97.9473 539.08 97.5456L540.043 94.6736Z" fill="#01699C"/>
</g>
</g>
<g id="Level/Stars/3-3">
<g id="Star/Small/Active">
<path id="StarIcon_4" d="M504.043 127.674C504.344 126.775 505.656 126.775 505.957 127.674L506.92 130.546C507.054 130.947 507.44 131.219 507.876 131.219H510.992C511.967 131.219 512.372 132.428 511.583 132.983L509.062 134.758C508.71 135.006 508.562 135.446 508.697 135.847L509.66 138.72C509.961 139.618 508.9 140.364 508.112 139.809L505.591 138.034C505.239 137.786 504.761 137.786 504.409 138.034L501.888 139.809C501.1 140.364 500.039 139.618 500.34 138.72L501.303 135.847C501.438 135.446 501.29 135.006 500.938 134.758L498.417 132.983C497.628 132.428 498.033 131.219 499.008 131.219H502.124C502.56 131.219 502.946 130.947 503.08 130.546L504.043 127.674Z" fill="#F5FCFD"/>
</g>
<g id="Star/Small/Active_2">
<path id="StarIcon_5" d="M521.91 127.674C522.211 126.775 523.522 126.775 523.823 127.674L524.786 130.546C524.921 130.947 525.307 131.219 525.743 131.219H528.859C529.833 131.219 530.238 132.428 529.45 132.983L526.929 134.758C526.577 135.006 526.429 135.446 526.564 135.847L527.527 138.72C527.828 139.618 526.767 140.364 525.979 139.809L523.458 138.034C523.105 137.786 522.628 137.786 522.275 138.034L519.755 139.809C518.966 140.364 517.906 139.618 518.207 138.72L519.17 135.847C519.304 135.446 519.157 135.006 518.804 134.758L516.283 132.983C515.495 132.428 515.9 131.219 516.874 131.219H519.991C520.426 131.219 520.813 130.947 520.947 130.546L521.91 127.674Z" fill="#F5FCFD"/>
</g>
<g id="Star/Small/Active_3">
<path id="StarIcon_6" d="M539.777 127.674C540.078 126.775 541.389 126.775 541.69 127.674L542.653 130.546C542.788 130.947 543.174 131.219 543.61 131.219H546.726C547.7 131.219 548.105 132.428 547.317 132.983L544.796 134.758C544.443 135.006 544.296 135.446 544.431 135.847L545.393 138.72C545.695 139.618 544.634 140.364 543.846 139.809L541.325 138.034C540.972 137.786 540.495 137.786 540.142 138.034L537.621 139.809C536.833 140.364 535.772 139.618 536.073 138.72L537.036 135.847C537.171 135.446 537.023 135.006 536.671 134.758L534.15 132.983C533.362 132.428 533.767 131.219 534.741 131.219H537.857C538.293 131.219 538.679 130.947 538.814 130.546L539.777 127.674Z" fill="#F5FCFD"/>
</g>
</g>
<g id="Level/Stars/2-3">
<g id="Level/Stars/0-3_2">
<g id="Star/Small/Unactive_4">
<path id="StarIcon_7" d="M504.043 160.674C504.344 159.775 505.656 159.775 505.957 160.674L506.92 163.546C507.054 163.947 507.44 164.219 507.876 164.219H510.992C511.967 164.219 512.372 165.428 511.583 165.983L509.062 167.758C508.71 168.006 508.562 168.446 508.697 168.847L509.66 171.72C509.961 172.618 508.9 173.364 508.112 172.809L505.591 171.034C505.239 170.786 504.761 170.786 504.409 171.034L501.888 172.809C501.1 173.364 500.039 172.618 500.34 171.72L501.303 168.847C501.438 168.446 501.29 168.006 500.938 167.758L498.417 165.983C497.628 165.428 498.033 164.219 499.008 164.219H502.124C502.56 164.219 502.946 163.947 503.08 163.546L504.043 160.674Z" fill="#01699C"/>
</g>
<g id="Star/Small/Unactive_5">
<path id="StarIcon_8" d="M522.043 160.674C522.344 159.775 523.656 159.775 523.957 160.674L524.92 163.546C525.054 163.947 525.44 164.219 525.876 164.219H528.992C529.967 164.219 530.372 165.428 529.583 165.983L527.062 167.758C526.71 168.006 526.562 168.446 526.697 168.847L527.66 171.72C527.961 172.618 526.9 173.364 526.112 172.809L523.591 171.034C523.239 170.786 522.761 170.786 522.409 171.034L519.888 172.809C519.1 173.364 518.039 172.618 518.34 171.72L519.303 168.847C519.438 168.446 519.29 168.006 518.938 167.758L516.417 165.983C515.628 165.428 516.033 164.219 517.008 164.219H520.124C520.56 164.219 520.946 163.947 521.08 163.546L522.043 160.674Z" fill="#01699C"/>
</g>
<g id="Star/Small/Unactive_6">
<path id="StarIcon_9" d="M540.043 160.674C540.344 159.775 541.656 159.775 541.957 160.674L542.92 163.546C543.054 163.947 543.44 164.219 543.876 164.219H546.992C547.967 164.219 548.372 165.428 547.583 165.983L545.062 167.758C544.71 168.006 544.562 168.446 544.697 168.847L545.66 171.72C545.961 172.618 544.9 173.364 544.112 172.809L541.591 171.034C541.239 170.786 540.761 170.786 540.409 171.034L537.888 172.809C537.1 173.364 536.039 172.618 536.34 171.72L537.303 168.847C537.438 168.446 537.29 168.006 536.938 167.758L534.417 165.983C533.628 165.428 534.033 164.219 535.008 164.219H538.124C538.56 164.219 538.946 163.947 539.08 163.546L540.043 160.674Z" fill="#01699C"/>
</g>
</g>
<g id="Star/Small/Active_4">
<path id="StarIcon_10" d="M504.043 160.674C504.344 159.775 505.656 159.775 505.957 160.674L506.92 163.546C507.054 163.947 507.44 164.219 507.876 164.219H510.992C511.967 164.219 512.372 165.428 511.583 165.983L509.062 167.758C508.71 168.006 508.562 168.446 508.697 168.847L509.66 171.72C509.961 172.618 508.9 173.364 508.112 172.809L505.591 171.034C505.239 170.786 504.761 170.786 504.409 171.034L501.888 172.809C501.1 173.364 500.039 172.618 500.34 171.72L501.303 168.847C501.438 168.446 501.29 168.006 500.938 167.758L498.417 165.983C497.628 165.428 498.033 164.219 499.008 164.219H502.124C502.56 164.219 502.946 163.947 503.08 163.546L504.043 160.674Z" fill="#F5FCFD"/>
</g>
<g id="Star/Small/Active_5">
<path id="StarIcon_11" d="M522.043 160.674C522.344 159.775 523.656 159.775 523.957 160.674L524.92 163.546C525.054 163.947 525.44 164.219 525.876 164.219H528.992C529.967 164.219 530.372 165.428 529.583 165.983L527.062 167.758C526.71 168.006 526.562 168.446 526.697 168.847L527.66 171.72C527.961 172.618 526.9 173.364 526.112 172.809L523.591 171.034C523.239 170.786 522.761 170.786 522.409 171.034L519.888 172.809C519.1 173.364 518.039 172.618 518.34 171.72L519.303 168.847C519.438 168.446 519.29 168.006 518.938 167.758L516.417 165.983C515.628 165.428 516.033 164.219 517.008 164.219H520.124C520.56 164.219 520.946 163.947 521.08 163.546L522.043 160.674Z" fill="#F5FCFD"/>
</g>
</g>
<g id="Level/Stars/1-3">
<g id="Level/Stars/0-3_3">
<g id="Star/Small/Unactive_7">
<path id="StarIcon_12" d="M504.043 193.674C504.344 192.775 505.656 192.775 505.957 193.674L506.92 196.546C507.054 196.947 507.44 197.219 507.876 197.219H510.992C511.967 197.219 512.372 198.428 511.583 198.983L509.062 200.758C508.71 201.006 508.562 201.446 508.697 201.847L509.66 204.72C509.961 205.618 508.9 206.364 508.112 205.809L505.591 204.034C505.239 203.786 504.761 203.786 504.409 204.034L501.888 205.809C501.1 206.364 500.039 205.618 500.34 204.72L501.303 201.847C501.438 201.446 501.29 201.006 500.938 200.758L498.417 198.983C497.628 198.428 498.033 197.219 499.008 197.219H502.124C502.56 197.219 502.946 196.947 503.08 196.546L504.043 193.674Z" fill="#01699C"/>
</g>
<g id="Star/Small/Unactive_8">
<path id="StarIcon_13" d="M522.043 193.674C522.344 192.775 523.656 192.775 523.957 193.674L524.92 196.546C525.054 196.947 525.44 197.219 525.876 197.219H528.992C529.967 197.219 530.372 198.428 529.583 198.983L527.062 200.758C526.71 201.006 526.562 201.446 526.697 201.847L527.66 204.72C527.961 205.618 526.9 206.364 526.112 205.809L523.591 204.034C523.239 203.786 522.761 203.786 522.409 204.034L519.888 205.809C519.1 206.364 518.039 205.618 518.34 204.72L519.303 201.847C519.438 201.446 519.29 201.006 518.938 200.758L516.417 198.983C515.628 198.428 516.033 197.219 517.008 197.219H520.124C520.56 197.219 520.946 196.947 521.08 196.546L522.043 193.674Z" fill="#01699C"/>
</g>
<g id="Star/Small/Unactive_9">
<path id="StarIcon_14" d="M540.043 193.674C540.344 192.775 541.656 192.775 541.957 193.674L542.92 196.546C543.054 196.947 543.44 197.219 543.876 197.219H546.992C547.967 197.219 548.372 198.428 547.583 198.983L545.062 200.758C544.71 201.006 544.562 201.446 544.697 201.847L545.66 204.72C545.961 205.618 544.9 206.364 544.112 205.809L541.591 204.034C541.239 203.786 540.761 203.786 540.409 204.034L537.888 205.809C537.1 206.364 536.039 205.618 536.34 204.72L537.303 201.847C537.438 201.446 537.29 201.006 536.938 200.758L534.417 198.983C533.628 198.428 534.033 197.219 535.008 197.219H538.124C538.56 197.219 538.946 196.947 539.08 196.546L540.043 193.674Z" fill="#01699C"/>
</g>
</g>
<g id="Star/Small/Active_6">
<path id="StarIcon_15" d="M504.043 193.674C504.344 192.775 505.656 192.775 505.957 193.674L506.92 196.546C507.054 196.947 507.44 197.219 507.876 197.219H510.992C511.967 197.219 512.372 198.428 511.583 198.983L509.062 200.758C508.71 201.006 508.562 201.446 508.697 201.847L509.66 204.72C509.961 205.618 508.9 206.364 508.112 205.809L505.591 204.034C505.239 203.786 504.761 203.786 504.409 204.034L501.888 205.809C501.1 206.364 500.039 205.618 500.34 204.72L501.303 201.847C501.438 201.446 501.29 201.006 500.938 200.758L498.417 198.983C497.628 198.428 498.033 197.219 499.008 197.219H502.124C502.56 197.219 502.946 196.947 503.08 196.546L504.043 193.674Z" fill="#F5FCFD"/>
</g>
</g>
</g>
<g id="Level/Buttons/0-Star/Hover">
<g id="Level/Button/Dummy">
<rect id="Background_5" x="415.5" y="532.5" width="81" height="91" rx="3.5" fill="#029AE0" stroke="#01699C" stroke-width="5"/>
<rect id="Background_6" x="415" y="532" width="82" height="92" rx="4" stroke="#F5FCFD" stroke-width="4"/>
</g>
<g id="Level/Stars/0-3_4">
<g id="Star/Small/Unactive_10">
<path id="StarIcon_16" d="M438.043 601.674C438.344 600.775 439.656 600.775 439.957 601.674L440.92 604.546C441.054 604.947 441.44 605.219 441.876 605.219H444.992C445.967 605.219 446.372 606.428 445.583 606.983L443.062 608.758C442.71 609.006 442.562 609.446 442.697 609.847L443.66 612.72C443.961 613.618 442.9 614.364 442.112 613.809L439.591 612.034C439.239 611.786 438.761 611.786 438.409 612.034L435.888 613.809C435.1 614.364 434.039 613.618 434.34 612.72L435.303 609.847C435.438 609.446 435.29 609.006 434.938 608.758L432.417 606.983C431.628 606.428 432.033 605.219 433.008 605.219H436.124C436.56 605.219 436.946 604.947 437.08 604.546L438.043 601.674Z" fill="#01699C"/>
</g>
<g id="Star/Small/Unactive_11">
<path id="StarIcon_17" d="M456.043 601.674C456.344 600.775 457.656 600.775 457.957 601.674L458.92 604.546C459.054 604.947 459.44 605.219 459.876 605.219H462.992C463.967 605.219 464.372 606.428 463.583 606.983L461.062 608.758C460.71 609.006 460.562 609.446 460.697 609.847L461.66 612.72C461.961 613.618 460.9 614.364 460.112 613.809L457.591 612.034C457.239 611.786 456.761 611.786 456.409 612.034L453.888 613.809C453.1 614.364 452.039 613.618 452.34 612.72L453.303 609.847C453.438 609.446 453.29 609.006 452.938 608.758L450.417 606.983C449.628 606.428 450.033 605.219 451.008 605.219H454.124C454.56 605.219 454.946 604.947 455.08 604.546L456.043 601.674Z" fill="#01699C"/>
</g>
<g id="Star/Small/Unactive_12">
<path id="StarIcon_18" d="M474.043 601.674C474.344 600.775 475.656 600.775 475.957 601.674L476.92 604.546C477.054 604.947 477.44 605.219 477.876 605.219H480.992C481.967 605.219 482.372 606.428 481.583 606.983L479.062 608.758C478.71 609.006 478.562 609.446 478.697 609.847L479.66 612.72C479.961 613.618 478.9 614.364 478.112 613.809L475.591 612.034C475.239 611.786 474.761 611.786 474.409 612.034L471.888 613.809C471.1 614.364 470.039 613.618 470.34 612.72L471.303 609.847C471.438 609.446 471.29 609.006 470.938 608.758L468.417 606.983C467.628 606.428 468.033 605.219 469.008 605.219H472.124C472.56 605.219 472.946 604.947 473.08 604.546L474.043 601.674Z" fill="#01699C"/>
</g>
</g>
</g>
<g id="Level/Buttons/1-Star/Hover">
<g id="Level/Button/Dummy_2">
<rect id="Background_7" x="294.5" y="532.5" width="81" height="91" rx="3.5" fill="#029AE0" stroke="#01699C" stroke-width="5"/>
<rect id="Background_8" x="294" y="532" width="82" height="92" rx="4" stroke="#F5FCFD" stroke-width="4"/>
</g>
<g id="Level/Stars/1-3_2">
<g id="Level/Stars/0-3_5">
<g id="Star/Small/Unactive_13">
<path id="StarIcon_19" d="M316.043 601.674C316.344 600.775 317.656 600.775 317.957 601.674L318.92 604.546C319.054 604.947 319.44 605.219 319.876 605.219H322.992C323.967 605.219 324.372 606.428 323.583 606.983L321.062 608.758C320.71 609.006 320.562 609.446 320.697 609.847L321.66 612.72C321.961 613.618 320.9 614.364 320.112 613.809L317.591 612.034C317.239 611.786 316.761 611.786 316.409 612.034L313.888 613.809C313.1 614.364 312.039 613.618 312.34 612.72L313.303 609.847C313.438 609.446 313.29 609.006 312.938 608.758L310.417 606.983C309.628 606.428 310.033 605.219 311.008 605.219H314.124C314.56 605.219 314.946 604.947 315.08 604.546L316.043 601.674Z" fill="#01699C"/>
</g>
<g id="Star/Small/Unactive_14">
<path id="StarIcon_20" d="M334.043 601.674C334.344 600.775 335.656 600.775 335.957 601.674L336.92 604.546C337.054 604.947 337.44 605.219 337.876 605.219H340.992C341.967 605.219 342.372 606.428 341.583 606.983L339.062 608.758C338.71 609.006 338.562 609.446 338.697 609.847L339.66 612.72C339.961 613.618 338.9 614.364 338.112 613.809L335.591 612.034C335.239 611.786 334.761 611.786 334.409 612.034L331.888 613.809C331.1 614.364 330.039 613.618 330.34 612.72L331.303 609.847C331.438 609.446 331.29 609.006 330.938 608.758L328.417 606.983C327.628 606.428 328.033 605.219 329.008 605.219H332.124C332.56 605.219 332.946 604.947 333.08 604.546L334.043 601.674Z" fill="#01699C"/>
</g>
<g id="Star/Small/Unactive_15">
<path id="StarIcon_21" d="M352.043 601.674C352.344 600.775 353.656 600.775 353.957 601.674L354.92 604.546C355.054 604.947 355.44 605.219 355.876 605.219H358.992C359.967 605.219 360.372 606.428 359.583 606.983L357.062 608.758C356.71 609.006 356.562 609.446 356.697 609.847L357.66 612.72C357.961 613.618 356.9 614.364 356.112 613.809L353.591 612.034C353.239 611.786 352.761 611.786 352.409 612.034L349.888 613.809C349.1 614.364 348.039 613.618 348.34 612.72L349.303 609.847C349.438 609.446 349.29 609.006 348.938 608.758L346.417 606.983C345.628 606.428 346.033 605.219 347.008 605.219H350.124C350.56 605.219 350.946 604.947 351.08 604.546L352.043 601.674Z" fill="#01699C"/>
</g>
</g>
<g id="Star/Small/Active_7">
<path id="StarIcon_22" d="M316.043 601.674C316.344 600.775 317.656 600.775 317.957 601.674L318.92 604.546C319.054 604.947 319.44 605.219 319.876 605.219H322.992C323.967 605.219 324.372 606.428 323.583 606.983L321.062 608.758C320.71 609.006 320.562 609.446 320.697 609.847L321.66 612.72C321.961 613.618 320.9 614.364 320.112 613.809L317.591 612.034C317.239 611.786 316.761 611.786 316.409 612.034L313.888 613.809C313.1 614.364 312.039 613.618 312.34 612.72L313.303 609.847C313.438 609.446 313.29 609.006 312.938 608.758L310.417 606.983C309.628 606.428 310.033 605.219 311.008 605.219H314.124C314.56 605.219 314.946 604.947 315.08 604.546L316.043 601.674Z" fill="#F5FCFD"/>
</g>
</g>
</g>
<g id="Level/Buttons/2-Star/Hover">
<g id="Level/Button/Dummy_3">
<rect id="Background_9" x="173.5" y="532.5" width="81" height="91" rx="3.5" fill="#029AE0" stroke="#01699C" stroke-width="5"/>
<rect id="Background_10" x="173" y="532" width="82" height="92" rx="4" stroke="#F5FCFD" stroke-width="4"/>
</g>
<g id="Level/Stars/2-3_2">
<g id="Level/Stars/0-3_6">
<g id="Star/Small/Unactive_16">
<path id="StarIcon_23" d="M195.043 601.674C195.344 600.775 196.656 600.775 196.957 601.674L197.92 604.546C198.054 604.947 198.44 605.219 198.876 605.219H201.992C202.967 605.219 203.372 606.428 202.583 606.983L200.062 608.758C199.71 609.006 199.562 609.446 199.697 609.847L200.66 612.72C200.961 613.618 199.9 614.364 199.112 613.809L196.591 612.034C196.239 611.786 195.761 611.786 195.409 612.034L192.888 613.809C192.1 614.364 191.039 613.618 191.34 612.72L192.303 609.847C192.438 609.446 192.29 609.006 191.938 608.758L189.417 606.983C188.628 606.428 189.033 605.219 190.008 605.219H193.124C193.56 605.219 193.946 604.947 194.08 604.546L195.043 601.674Z" fill="#01699C"/>
</g>
<g id="Star/Small/Unactive_17">
<path id="StarIcon_24" d="M213.043 601.674C213.344 600.775 214.656 600.775 214.957 601.674L215.92 604.546C216.054 604.947 216.44 605.219 216.876 605.219H219.992C220.967 605.219 221.372 606.428 220.583 606.983L218.062 608.758C217.71 609.006 217.562 609.446 217.697 609.847L218.66 612.72C218.961 613.618 217.9 614.364 217.112 613.809L214.591 612.034C214.239 611.786 213.761 611.786 213.409 612.034L210.888 613.809C210.1 614.364 209.039 613.618 209.34 612.72L210.303 609.847C210.438 609.446 210.29 609.006 209.938 608.758L207.417 606.983C206.628 606.428 207.033 605.219 208.008 605.219H211.124C211.56 605.219 211.946 604.947 212.08 604.546L213.043 601.674Z" fill="#01699C"/>
</g>
<g id="Star/Small/Unactive_18">
<path id="StarIcon_25" d="M231.043 601.674C231.344 600.775 232.656 600.775 232.957 601.674L233.92 604.546C234.054 604.947 234.44 605.219 234.876 605.219H237.992C238.967 605.219 239.372 606.428 238.583 606.983L236.062 608.758C235.71 609.006 235.562 609.446 235.697 609.847L236.66 612.72C236.961 613.618 235.9 614.364 235.112 613.809L232.591 612.034C232.239 611.786 231.761 611.786 231.409 612.034L228.888 613.809C228.1 614.364 227.039 613.618 227.34 612.72L228.303 609.847C228.438 609.446 228.29 609.006 227.938 608.758L225.417 606.983C224.628 606.428 225.033 605.219 226.008 605.219H229.124C229.56 605.219 229.946 604.947 230.08 604.546L231.043 601.674Z" fill="#01699C"/>
</g>
</g>
<g id="Star/Small/Active_8">
<path id="StarIcon_26" d="M195.043 601.674C195.344 600.775 196.656 600.775 196.957 601.674L197.92 604.546C198.054 604.947 198.44 605.219 198.876 605.219H201.992C202.967 605.219 203.372 606.428 202.583 606.983L200.062 608.758C199.71 609.006 199.562 609.446 199.697 609.847L200.66 612.72C200.961 613.618 199.9 614.364 199.112 613.809L196.591 612.034C196.239 611.786 195.761 611.786 195.409 612.034L192.888 613.809C192.1 614.364 191.039 613.618 191.34 612.72L192.303 609.847C192.438 609.446 192.29 609.006 191.938 608.758L189.417 606.983C188.628 606.428 189.033 605.219 190.008 605.219H193.124C193.56 605.219 193.946 604.947 194.08 604.546L195.043 601.674Z" fill="#F5FCFD"/>
</g>
<g id="Star/Small/Active_9">
<path id="StarIcon_27" d="M213.043 601.674C213.344 600.775 214.656 600.775 214.957 601.674L215.92 604.546C216.054 604.947 216.44 605.219 216.876 605.219H219.992C220.967 605.219 221.372 606.428 220.583 606.983L218.062 608.758C217.71 609.006 217.562 609.446 217.697 609.847L218.66 612.72C218.961 613.618 217.9 614.364 217.112 613.809L214.591 612.034C214.239 611.786 213.761 611.786 213.409 612.034L210.888 613.809C210.1 614.364 209.039 613.618 209.34 612.72L210.303 609.847C210.438 609.446 210.29 609.006 209.938 608.758L207.417 606.983C206.628 606.428 207.033 605.219 208.008 605.219H211.124C211.56 605.219 211.946 604.947 212.08 604.546L213.043 601.674Z" fill="#F5FCFD"/>
</g>
</g>
</g>
<g id="Level/Buttons/3-Star/Hover">
<g id="Level/Button/Dummy_4">
<rect id="Background_11" x="52.5" y="532.5" width="81" height="91" rx="3.5" fill="#029AE0" stroke="#01699C" stroke-width="5"/>
<rect id="Background_12" x="52" y="532" width="82" height="92" rx="4" stroke="#F5FCFD" stroke-width="4"/>
</g>
<g id="Level/Stars/3-3_2">
<g id="Star/Small/Active_10">
<path id="StarIcon_28" d="M74.0434 601.674C74.3445 600.775 75.6555 600.775 75.9566 601.674L76.9195 604.546C77.0542 604.947 77.4404 605.219 77.8762 605.219H80.9922C81.9666 605.219 82.3717 606.428 81.5834 606.983L79.0625 608.758C78.71 609.006 78.5624 609.446 78.6971 609.847L79.66 612.72C79.9611 613.618 78.9005 614.364 78.1122 613.809L75.5912 612.034C75.2387 611.786 74.7613 611.786 74.4088 612.034L71.8878 613.809C71.0995 614.364 70.0389 613.618 70.34 612.72L71.3029 609.847C71.4376 609.446 71.29 609.006 70.9375 608.758L68.4166 606.983C67.6283 606.428 68.0334 605.219 69.0078 605.219H72.1238C72.5596 605.219 72.9458 604.947 73.0805 604.546L74.0434 601.674Z" fill="#F5FCFD"/>
</g>
<g id="Star/Small/Active_11">
<path id="StarIcon_29" d="M91.9101 601.674C92.2112 600.775 93.5222 600.775 93.8233 601.674L94.7862 604.546C94.9209 604.947 95.3071 605.219 95.7429 605.219H98.8589C99.8333 605.219 100.238 606.428 99.4501 606.983L96.9292 608.758C96.5767 609.006 96.4291 609.446 96.5638 609.847L97.5267 612.72C97.8278 613.618 96.7672 614.364 95.9789 613.809L93.4579 612.034C93.1054 611.786 92.628 611.786 92.2755 612.034L89.7545 613.809C88.9662 614.364 87.9056 613.618 88.2067 612.72L89.1696 609.847C89.3043 609.446 89.1567 609.006 88.8042 608.758L86.2833 606.983C85.495 606.428 85.9001 605.219 86.8745 605.219H89.9905C90.4263 605.219 90.8125 604.947 90.9472 604.546L91.9101 601.674Z" fill="#F5FCFD"/>
</g>
<g id="Star/Small/Active_12">
<path id="StarIcon_30" d="M109.777 601.674C110.078 600.775 111.389 600.775 111.69 601.674L112.653 604.546C112.788 604.947 113.174 605.219 113.61 605.219H116.726C117.7 605.219 118.105 606.428 117.317 606.983L114.796 608.758C114.443 609.006 114.296 609.446 114.431 609.847L115.393 612.72C115.695 613.618 114.634 614.364 113.846 613.809L111.325 612.034C110.972 611.786 110.495 611.786 110.142 612.034L107.621 613.809C106.833 614.364 105.772 613.618 106.073 612.72L107.036 609.847C107.171 609.446 107.023 609.006 106.671 608.758L104.15 606.983C103.362 606.428 103.767 605.219 104.741 605.219H107.857C108.293 605.219 108.679 604.947 108.814 604.546L109.777 601.674Z" fill="#F5FCFD"/>
</g>
</g>
</g>
<g id="Level/Buttons/0-Star/Default">
<g id="Level/Button/Dummy_5">
<rect id="Border_2" opacity="0.4" x="415" y="416" width="82" height="92" rx="4" fill="#029AE0" stroke="#F5FCFD" stroke-width="4"/>
<rect id="Background_13" x="417.5" y="418.5" width="77" height="87" rx="1.5" fill="#029AE0" stroke="#01699C"/>
</g>
<g id="Level/Stars/0-3_7">
<g id="Star/Small/Unactive_19">
<path id="StarIcon_31" d="M438.043 485.674C438.344 484.775 439.656 484.775 439.957 485.674L440.92 488.546C441.054 488.947 441.44 489.219 441.876 489.219H444.992C445.967 489.219 446.372 490.428 445.583 490.983L443.062 492.758C442.71 493.006 442.562 493.446 442.697 493.847L443.66 496.72C443.961 497.618 442.9 498.364 442.112 497.809L439.591 496.034C439.239 495.786 438.761 495.786 438.409 496.034L435.888 497.809C435.1 498.364 434.039 497.618 434.34 496.72L435.303 493.847C435.438 493.446 435.29 493.006 434.938 492.758L432.417 490.983C431.628 490.428 432.033 489.219 433.008 489.219H436.124C436.56 489.219 436.946 488.947 437.08 488.546L438.043 485.674Z" fill="#01699C"/>
</g>
<g id="Star/Small/Unactive_20">
<path id="StarIcon_32" d="M456.043 485.674C456.344 484.775 457.656 484.775 457.957 485.674L458.92 488.546C459.054 488.947 459.44 489.219 459.876 489.219H462.992C463.967 489.219 464.372 490.428 463.583 490.983L461.062 492.758C460.71 493.006 460.562 493.446 460.697 493.847L461.66 496.72C461.961 497.618 460.9 498.364 460.112 497.809L457.591 496.034C457.239 495.786 456.761 495.786 456.409 496.034L453.888 497.809C453.1 498.364 452.039 497.618 452.34 496.72L453.303 493.847C453.438 493.446 453.29 493.006 452.938 492.758L450.417 490.983C449.628 490.428 450.033 489.219 451.008 489.219H454.124C454.56 489.219 454.946 488.947 455.08 488.546L456.043 485.674Z" fill="#01699C"/>
</g>
<g id="Star/Small/Unactive_21">
<path id="StarIcon_33" d="M474.043 485.674C474.344 484.775 475.656 484.775 475.957 485.674L476.92 488.546C477.054 488.947 477.44 489.219 477.876 489.219H480.992C481.967 489.219 482.372 490.428 481.583 490.983L479.062 492.758C478.71 493.006 478.562 493.446 478.697 493.847L479.66 496.72C479.961 497.618 478.9 498.364 478.112 497.809L475.591 496.034C475.239 495.786 474.761 495.786 474.409 496.034L471.888 497.809C471.1 498.364 470.039 497.618 470.34 496.72L471.303 493.847C471.438 493.446 471.29 493.006 470.938 492.758L468.417 490.983C467.628 490.428 468.033 489.219 469.008 489.219H472.124C472.56 489.219 472.946 488.947 473.08 488.546L474.043 485.674Z" fill="#01699C"/>
</g>
</g>
</g>
<g id="Level/Buttons/1-Star/Default">
<g id="Level/Button/Dummy_6">
<rect id="Border_3" opacity="0.4" x="294" y="416" width="82" height="92" rx="4" fill="#029AE0" stroke="#F5FCFD" stroke-width="4"/>
<rect id="Background_14" x="296.5" y="418.5" width="77" height="87" rx="1.5" fill="#029AE0" stroke="#01699C"/>
</g>
<g id="Level/Stars/1-3_3">
<g id="Level/Stars/0-3_8">
<g id="Star/Small/Unactive_22">
<path id="StarIcon_34" d="M316.043 485.674C316.344 484.775 317.656 484.775 317.957 485.674L318.92 488.546C319.054 488.947 319.44 489.219 319.876 489.219H322.992C323.967 489.219 324.372 490.428 323.583 490.983L321.062 492.758C320.71 493.006 320.562 493.446 320.697 493.847L321.66 496.72C321.961 497.618 320.9 498.364 320.112 497.809L317.591 496.034C317.239 495.786 316.761 495.786 316.409 496.034L313.888 497.809C313.1 498.364 312.039 497.618 312.34 496.72L313.303 493.847C313.438 493.446 313.29 493.006 312.938 492.758L310.417 490.983C309.628 490.428 310.033 489.219 311.008 489.219H314.124C314.56 489.219 314.946 488.947 315.08 488.546L316.043 485.674Z" fill="#01699C"/>
</g>
<g id="Star/Small/Unactive_23">
<path id="StarIcon_35" d="M334.043 485.674C334.344 484.775 335.656 484.775 335.957 485.674L336.92 488.546C337.054 488.947 337.44 489.219 337.876 489.219H340.992C341.967 489.219 342.372 490.428 341.583 490.983L339.062 492.758C338.71 493.006 338.562 493.446 338.697 493.847L339.66 496.72C339.961 497.618 338.9 498.364 338.112 497.809L335.591 496.034C335.239 495.786 334.761 495.786 334.409 496.034L331.888 497.809C331.1 498.364 330.039 497.618 330.34 496.72L331.303 493.847C331.438 493.446 331.29 493.006 330.938 492.758L328.417 490.983C327.628 490.428 328.033 489.219 329.008 489.219H332.124C332.56 489.219 332.946 488.947 333.08 488.546L334.043 485.674Z" fill="#01699C"/>
</g>
<g id="Star/Small/Unactive_24">
<path id="StarIcon_36" d="M352.043 485.674C352.344 484.775 353.656 484.775 353.957 485.674L354.92 488.546C355.054 488.947 355.44 489.219 355.876 489.219H358.992C359.967 489.219 360.372 490.428 359.583 490.983L357.062 492.758C356.71 493.006 356.562 493.446 356.697 493.847L357.66 496.72C357.961 497.618 356.9 498.364 356.112 497.809L353.591 496.034C353.239 495.786 352.761 495.786 352.409 496.034L349.888 497.809C349.1 498.364 348.039 497.618 348.34 496.72L349.303 493.847C349.438 493.446 349.29 493.006 348.938 492.758L346.417 490.983C345.628 490.428 346.033 489.219 347.008 489.219H350.124C350.56 489.219 350.946 488.947 351.08 488.546L352.043 485.674Z" fill="#01699C"/>
</g>
</g>
<g id="Star/Small/Active_13">
<path id="StarIcon_37" d="M316.043 485.674C316.344 484.775 317.656 484.775 317.957 485.674L318.92 488.546C319.054 488.947 319.44 489.219 319.876 489.219H322.992C323.967 489.219 324.372 490.428 323.583 490.983L321.062 492.758C320.71 493.006 320.562 493.446 320.697 493.847L321.66 496.72C321.961 497.618 320.9 498.364 320.112 497.809L317.591 496.034C317.239 495.786 316.761 495.786 316.409 496.034L313.888 497.809C313.1 498.364 312.039 497.618 312.34 496.72L313.303 493.847C313.438 493.446 313.29 493.006 312.938 492.758L310.417 490.983C309.628 490.428 310.033 489.219 311.008 489.219H314.124C314.56 489.219 314.946 488.947 315.08 488.546L316.043 485.674Z" fill="#F5FCFD"/>
</g>
</g>
</g>
<g id="Level/Buttons/2-Star/Default">
<g id="Level/Button/Dummy_7">
<rect id="Border_4" opacity="0.4" x="173" y="416" width="82" height="92" rx="4" fill="#029AE0" stroke="#F5FCFD" stroke-width="4"/>
<rect id="Background_15" x="175.5" y="418.5" width="77" height="87" rx="1.5" fill="#029AE0" stroke="#01699C"/>
</g>
<g id="Level/Stars/2-3_3">
<g id="Level/Stars/0-3_9">
<g id="Star/Small/Unactive_25">
<path id="StarIcon_38" d="M195.043 485.674C195.344 484.775 196.656 484.775 196.957 485.674L197.92 488.546C198.054 488.947 198.44 489.219 198.876 489.219H201.992C202.967 489.219 203.372 490.428 202.583 490.983L200.062 492.758C199.71 493.006 199.562 493.446 199.697 493.847L200.66 496.72C200.961 497.618 199.9 498.364 199.112 497.809L196.591 496.034C196.239 495.786 195.761 495.786 195.409 496.034L192.888 497.809C192.1 498.364 191.039 497.618 191.34 496.72L192.303 493.847C192.438 493.446 192.29 493.006 191.938 492.758L189.417 490.983C188.628 490.428 189.033 489.219 190.008 489.219H193.124C193.56 489.219 193.946 488.947 194.08 488.546L195.043 485.674Z" fill="#01699C"/>
</g>
<g id="Star/Small/Unactive_26">
<path id="StarIcon_39" d="M213.043 485.674C213.344 484.775 214.656 484.775 214.957 485.674L215.92 488.546C216.054 488.947 216.44 489.219 216.876 489.219H219.992C220.967 489.219 221.372 490.428 220.583 490.983L218.062 492.758C217.71 493.006 217.562 493.446 217.697 493.847L218.66 496.72C218.961 497.618 217.9 498.364 217.112 497.809L214.591 496.034C214.239 495.786 213.761 495.786 213.409 496.034L210.888 497.809C210.1 498.364 209.039 497.618 209.34 496.72L210.303 493.847C210.438 493.446 210.29 493.006 209.938 492.758L207.417 490.983C206.628 490.428 207.033 489.219 208.008 489.219H211.124C211.56 489.219 211.946 488.947 212.08 488.546L213.043 485.674Z" fill="#01699C"/>
</g>
<g id="Star/Small/Unactive_27">
<path id="StarIcon_40" d="M231.043 485.674C231.344 484.775 232.656 484.775 232.957 485.674L233.92 488.546C234.054 488.947 234.44 489.219 234.876 489.219H237.992C238.967 489.219 239.372 490.428 238.583 490.983L236.062 492.758C235.71 493.006 235.562 493.446 235.697 493.847L236.66 496.72C236.961 497.618 235.9 498.364 235.112 497.809L232.591 496.034C232.239 495.786 231.761 495.786 231.409 496.034L228.888 497.809C228.1 498.364 227.039 497.618 227.34 496.72L228.303 493.847C228.438 493.446 228.29 493.006 227.938 492.758L225.417 490.983C224.628 490.428 225.033 489.219 226.008 489.219H229.124C229.56 489.219 229.946 488.947 230.08 488.546L231.043 485.674Z" fill="#01699C"/>
</g>
</g>
<g id="Star/Small/Active_14">
<path id="StarIcon_41" d="M195.043 485.674C195.344 484.775 196.656 484.775 196.957 485.674L197.92 488.546C198.054 488.947 198.44 489.219 198.876 489.219H201.992C202.967 489.219 203.372 490.428 202.583 490.983L200.062 492.758C199.71 493.006 199.562 493.446 199.697 493.847L200.66 496.72C200.961 497.618 199.9 498.364 199.112 497.809L196.591 496.034C196.239 495.786 195.761 495.786 195.409 496.034L192.888 497.809C192.1 498.364 191.039 497.618 191.34 496.72L192.303 493.847C192.438 493.446 192.29 493.006 191.938 492.758L189.417 490.983C188.628 490.428 189.033 489.219 190.008 489.219H193.124C193.56 489.219 193.946 488.947 194.08 488.546L195.043 485.674Z" fill="#F5FCFD"/>
</g>
<g id="Star/Small/Active_15">
<path id="StarIcon_42" d="M213.043 485.674C213.344 484.775 214.656 484.775 214.957 485.674L215.92 488.546C216.054 488.947 216.44 489.219 216.876 489.219H219.992C220.967 489.219 221.372 490.428 220.583 490.983L218.062 492.758C217.71 493.006 217.562 493.446 217.697 493.847L218.66 496.72C218.961 497.618 217.9 498.364 217.112 497.809L214.591 496.034C214.239 495.786 213.761 495.786 213.409 496.034L210.888 497.809C210.1 498.364 209.039 497.618 209.34 496.72L210.303 493.847C210.438 493.446 210.29 493.006 209.938 492.758L207.417 490.983C206.628 490.428 207.033 489.219 208.008 489.219H211.124C211.56 489.219 211.946 488.947 212.08 488.546L213.043 485.674Z" fill="#F5FCFD"/>
</g>
</g>
</g>
<g id="Level/Buttons/3-Star/Default">
<g id="Level/Button/Dummy_8">
<rect id="Border_5" opacity="0.4" x="52" y="416" width="82" height="92" rx="4" fill="#029AE0" stroke="#F5FCFD" stroke-width="4"/>
<rect id="Background_16" x="54.5" y="418.5" width="77" height="87" rx="1.5" fill="#029AE0" stroke="#01699C"/>
</g>
<g id="Level/Stars/3-3_3">
<g id="Star/Small/Active_16">
<path id="StarIcon_43" d="M74.0434 485.674C74.3445 484.775 75.6555 484.775 75.9566 485.674L76.9195 488.546C77.0542 488.947 77.4404 489.219 77.8762 489.219H80.9922C81.9666 489.219 82.3717 490.428 81.5834 490.983L79.0625 492.758C78.71 493.006 78.5624 493.446 78.6971 493.847L79.66 496.72C79.9611 497.618 78.9005 498.364 78.1122 497.809L75.5912 496.034C75.2387 495.786 74.7613 495.786 74.4088 496.034L71.8878 497.809C71.0995 498.364 70.0389 497.618 70.34 496.72L71.3029 493.847C71.4376 493.446 71.29 493.006 70.9375 492.758L68.4166 490.983C67.6283 490.428 68.0334 489.219 69.0078 489.219H72.1238C72.5596 489.219 72.9458 488.947 73.0805 488.546L74.0434 485.674Z" fill="#F5FCFD"/>
</g>
<g id="Star/Small/Active_17">
<path id="StarIcon_44" d="M91.9101 485.674C92.2112 484.775 93.5222 484.775 93.8233 485.674L94.7862 488.546C94.9209 488.947 95.3071 489.219 95.7429 489.219H98.8589C99.8333 489.219 100.238 490.428 99.4501 490.983L96.9292 492.758C96.5767 493.006 96.4291 493.446 96.5638 493.847L97.5267 496.72C97.8278 497.618 96.7672 498.364 95.9789 497.809L93.4579 496.034C93.1054 495.786 92.628 495.786 92.2755 496.034L89.7545 497.809C88.9662 498.364 87.9056 497.618 88.2067 496.72L89.1696 493.847C89.3043 493.446 89.1567 493.006 88.8042 492.758L86.2833 490.983C85.495 490.428 85.9001 489.219 86.8745 489.219H89.9905C90.4263 489.219 90.8125 488.947 90.9472 488.546L91.9101 485.674Z" fill="#F5FCFD"/>
</g>
<g id="Star/Small/Active_18">
<path id="StarIcon_45" d="M109.777 485.674C110.078 484.775 111.389 484.775 111.69 485.674L112.653 488.546C112.788 488.947 113.174 489.219 113.61 489.219H116.726C117.7 489.219 118.105 490.428 117.317 490.983L114.796 492.758C114.443 493.006 114.296 493.446 114.431 493.847L115.393 496.72C115.695 497.618 114.634 498.364 113.846 497.809L111.325 496.034C110.972 495.786 110.495 495.786 110.142 496.034L107.621 497.809C106.833 498.364 105.772 497.618 106.073 496.72L107.036 493.847C107.171 493.446 107.023 493.006 106.671 492.758L104.15 490.983C103.362 490.428 103.767 489.219 104.741 489.219H107.857C108.293 489.219 108.679 488.947 108.814 488.546L109.777 485.674Z" fill="#F5FCFD"/>
</g>
</g>
</g>
<g id="Title_5">
<rect x="50" y="370" width="101" height="24" rx="4" fill="#FED70A"/>
<text id="MessageText_5" fill="#212121" xml:space="preserve" style="white-space: pre" font-family="Arial" font-size="14" letter-spacing="0em"><tspan x="58" y="386.854">Level/Buttons</tspan></text>
</g>
<rect x="0.5" y="0.5" width="634" height="692" stroke="white"/>
</g>
<defs>
<clipPath id="clip0_6_894">
<rect width="50" height="112" fill="white" transform="translate(498 94)"/>
</clipPath>
</defs>
</svg>
