<svg width="238" height="382" viewBox="0 0 238 382" fill="none" xmlns="http://www.w3.org/2000/svg">
<g id="Star_Preview">
<g id="ColumnGroup">
<g id="Title">
<rect x="50" y="50" width="81" height="24" rx="4" fill="#FED70A"/>
<text id="MessageText" fill="#212121" xml:space="preserve" style="white-space: pre" font-family="Arial" font-size="14" letter-spacing="0em"><tspan x="58" y="66.8535">Star/Small</tspan></text>
</g>
<g id="Frame">
<g id="Star/Small/Unactive">
<path id="StarIcon" d="M56.0434 94.6736C56.3445 93.7755 57.6555 93.7755 57.9566 94.6736L58.9195 97.5456C59.0542 97.9473 59.4404 98.2192 59.8762 98.2192H62.9922C63.9666 98.2192 64.3717 99.4276 63.5834 99.9826L61.0625 101.758C60.71 102.006 60.5624 102.446 60.6971 102.847L61.66 105.72C61.9611 106.618 60.9005 107.364 60.1122 106.809L57.5912 105.034C57.2387 104.786 56.7613 104.786 56.4088 105.034L53.8878 106.809C53.0995 107.364 52.0389 106.618 52.34 105.72L53.3029 102.847C53.4376 102.446 53.29 102.006 52.9375 101.758L50.4166 99.9826C49.6283 99.4276 50.0334 98.2192 51.0078 98.2192H54.1238C54.5596 98.2192 54.9458 97.9473 55.0805 97.5456L56.0434 94.6736Z" fill="#01699C"/>
</g>
<g id="Star/Small/Active">
<path id="StarIcon_2" d="M90.0434 94.6736C90.3445 93.7755 91.6555 93.7755 91.9566 94.6736L92.9195 97.5456C93.0542 97.9473 93.4404 98.2192 93.8762 98.2192H96.9922C97.9666 98.2192 98.3717 99.4276 97.5834 99.9826L95.0625 101.758C94.71 102.006 94.5624 102.446 94.6971 102.847L95.66 105.72C95.9611 106.618 94.9005 107.364 94.1122 106.809L91.5912 105.034C91.2387 104.786 90.7613 104.786 90.4088 105.034L87.8878 106.809C87.0995 107.364 86.0389 106.618 86.34 105.72L87.3029 102.847C87.4376 102.446 87.29 102.006 86.9375 101.758L84.4166 99.9826C83.6283 99.4276 84.0334 98.2192 85.0078 98.2192H88.1238C88.5596 98.2192 88.9458 97.9473 89.0805 97.5456L90.0434 94.6736Z" fill="#F5FCFD"/>
</g>
</g>
<g id="Title_2">
<rect x="50" y="127" width="96" height="24" rx="4" fill="#FED70A"/>
<text id="MessageText_2" fill="#212121" xml:space="preserve" style="white-space: pre" font-family="Arial" font-size="14" letter-spacing="0em"><tspan x="58" y="143.854">Star/Medium</tspan></text>
</g>
<g id="Frame_2">
<g id="Star/Medium/Unactive">
<g id="StarIcon_3">
<mask id="path-8-inside-1_6_745" fill="white">
<path d="M67.8835 173.073C68.7745 170.309 72.6541 170.309 73.5451 173.073L76.3945 181.91C76.793 183.145 77.9359 183.982 79.2254 183.982H88.4464C91.3298 183.982 92.5286 187.7 90.1959 189.408L82.736 194.87C81.6927 195.633 81.2562 196.987 81.6547 198.223L84.5041 207.06C85.3952 209.824 82.2565 212.121 79.9238 210.414L72.4638 204.952C71.4206 204.188 70.008 204.188 68.9647 204.952L61.5048 210.414C59.1721 212.121 56.0334 209.824 56.9244 207.06L59.7739 198.223C60.1724 196.987 59.7358 195.633 58.6926 194.87L51.2327 189.408C48.8999 187.7 50.0988 183.982 52.9822 183.982H62.2032C63.4927 183.982 64.6355 183.145 65.034 181.91L67.8835 173.073Z"/>
</mask>
<path d="M67.8835 173.073C68.7745 170.309 72.6541 170.309 73.5451 173.073L76.3945 181.91C76.793 183.145 77.9359 183.982 79.2254 183.982H88.4464C91.3298 183.982 92.5286 187.7 90.1959 189.408L82.736 194.87C81.6927 195.633 81.2562 196.987 81.6547 198.223L84.5041 207.06C85.3952 209.824 82.2565 212.121 79.9238 210.414L72.4638 204.952C71.4206 204.188 70.008 204.188 68.9647 204.952L61.5048 210.414C59.1721 212.121 56.0334 209.824 56.9244 207.06L59.7739 198.223C60.1724 196.987 59.7358 195.633 58.6926 194.87L51.2327 189.408C48.8999 187.7 50.0988 183.982 52.9822 183.982H62.2032C63.4927 183.982 64.6355 183.145 65.034 181.91L67.8835 173.073Z" fill="#01699C" stroke="#01699C" stroke-width="2" mask="url(#path-8-inside-1_6_745)"/>
</g>
</g>
<g id="Star/Medium/Active">
<g id="Star/Medium/Unactive_2">
<path id="StarIcon_4" d="M129.883 173.073C130.774 170.309 134.654 170.309 135.545 173.073L138.395 181.91C138.793 183.145 139.936 183.982 141.225 183.982H150.446C153.33 183.982 154.529 187.7 152.196 189.408L144.736 194.87C143.693 195.633 143.256 196.987 143.655 198.223L146.504 207.06C147.395 209.824 144.256 212.121 141.924 210.414L134.464 204.952C133.421 204.188 132.008 204.188 130.965 204.952L123.505 210.414C121.172 212.121 118.033 209.824 118.924 207.06L121.774 198.223C122.172 196.987 121.736 195.633 120.693 194.87L113.233 189.408C110.9 187.7 112.099 183.982 114.982 183.982H124.203C125.493 183.982 126.636 183.145 127.034 181.91L129.883 173.073Z" fill="#F5FCFD"/>
</g>
</g>
</g>
<g id="Title_3">
<rect x="50" y="231" width="82" height="24" rx="4" fill="#FED70A"/>
<text id="MessageText_3" fill="#212121" xml:space="preserve" style="white-space: pre" font-family="Arial" font-size="14" letter-spacing="0em"><tspan x="58" y="247.854">Star/Large</tspan></text>
</g>
<g id="Frame_3">
<g id="Star/Large/Unactive">
<g id="Icons/Star">
<path id="Vector" d="M76.0369 277.902C77.2843 274.033 82.7157 274.033 83.9632 277.902L87.9524 290.273C88.5102 292.004 90.1102 293.175 91.9155 293.175H104.825C108.862 293.175 110.54 298.38 107.274 300.771L96.8304 308.418C95.3698 309.487 94.7587 311.382 95.3166 313.112L99.3058 325.484C100.553 329.353 96.1591 332.57 92.8933 330.179L82.4494 322.533C80.9888 321.463 79.0112 321.463 77.5506 322.533L67.1067 330.179C63.8409 332.57 59.4468 329.353 60.6942 325.484L64.6834 313.112C65.2413 311.382 64.6302 309.487 63.1696 308.418L52.7257 300.771C49.4599 298.38 51.1383 293.175 55.1751 293.175H68.0845C69.8898 293.175 71.4898 292.004 72.0476 290.273L76.0369 277.902Z" fill="#01699C"/>
</g>
</g>
<g id="Star/Large/Active">
<g id="Star/Large/Unactive_2">
<g id="Icons/Star_2">
<path id="Vector_2" d="M156.037 276.902C157.284 273.033 162.716 273.033 163.963 276.902L167.952 289.273C168.51 291.004 170.11 292.175 171.916 292.175H184.825C188.862 292.175 190.54 297.38 187.274 299.771L176.83 307.418C175.37 308.487 174.759 310.382 175.317 312.112L179.306 324.484C180.553 328.353 176.159 331.57 172.893 329.179L162.449 321.533C160.989 320.463 159.011 320.463 157.551 321.533L147.107 329.179C143.841 331.57 139.447 328.353 140.694 324.484L144.683 312.112C145.241 310.382 144.63 308.487 143.17 307.418L132.726 299.771C129.46 297.38 131.138 292.175 135.175 292.175H148.084C149.89 292.175 151.49 291.004 152.048 289.273L156.037 276.902Z" fill="#F5FCFD"/>
</g>
</g>
</g>
</g>
</g>
<rect x="0.5" y="0.5" width="237" height="381" stroke="white"/>
</g>
</svg>
