<svg width="86" height="96" viewBox="0 0 86 96" fill="none" xmlns="http://www.w3.org/2000/svg">
<g id="Level/Buttons/0-Star/Hover">
<g id="Level/Button/Dummy">
<rect id="Background" x="2.5" y="2.5" width="81" height="91" rx="3.5" fill="#029AE0" stroke="#01699C" stroke-width="5"/>
<rect id="Background_2" x="2" y="2" width="82" height="92" rx="4" stroke="#F5FCFD" stroke-width="4"/>
</g>
<g id="Level/Stars/0-3">
<g id="Star/Small/Unactive">
<path id="StarIcon" d="M25.0434 71.6736C25.3445 70.7755 26.6555 70.7755 26.9566 71.6736L27.9195 74.5456C28.0542 74.9473 28.4404 75.2192 28.8762 75.2192H31.9922C32.9666 75.2192 33.3717 76.4276 32.5834 76.9826L30.0625 78.7576C29.71 79.0059 29.5624 79.4459 29.6971 79.8475L30.66 82.7196C30.9611 83.6176 29.9005 84.3645 29.1122 83.8094L26.5912 82.0344C26.2387 81.7862 25.7613 81.7862 25.4088 82.0344L22.8878 83.8094C22.0995 84.3645 21.0389 83.6176 21.34 82.7196L22.3029 79.8475C22.4376 79.4459 22.29 79.0059 21.9375 78.7576L19.4166 76.9826C18.6283 76.4276 19.0334 75.2192 20.0078 75.2192H23.1238C23.5596 75.2192 23.9458 74.9473 24.0805 74.5456L25.0434 71.6736Z" fill="#01699C"/>
</g>
<g id="Star/Small/Unactive_2">
<path id="StarIcon_2" d="M43.0434 71.6736C43.3445 70.7755 44.6555 70.7755 44.9566 71.6736L45.9195 74.5456C46.0542 74.9473 46.4404 75.2192 46.8762 75.2192H49.9922C50.9666 75.2192 51.3717 76.4276 50.5834 76.9826L48.0625 78.7576C47.71 79.0059 47.5624 79.4459 47.6971 79.8475L48.66 82.7196C48.9611 83.6176 47.9005 84.3645 47.1122 83.8094L44.5912 82.0344C44.2387 81.7862 43.7613 81.7862 43.4088 82.0344L40.8878 83.8094C40.0995 84.3645 39.0389 83.6176 39.34 82.7196L40.3029 79.8475C40.4376 79.4459 40.29 79.0059 39.9375 78.7576L37.4166 76.9826C36.6283 76.4276 37.0334 75.2192 38.0078 75.2192H41.1238C41.5596 75.2192 41.9458 74.9473 42.0805 74.5456L43.0434 71.6736Z" fill="#01699C"/>
</g>
<g id="Star/Small/Unactive_3">
<path id="StarIcon_3" d="M61.0434 71.6736C61.3445 70.7755 62.6555 70.7755 62.9566 71.6736L63.9195 74.5456C64.0542 74.9473 64.4404 75.2192 64.8762 75.2192H67.9922C68.9666 75.2192 69.3717 76.4276 68.5834 76.9826L66.0625 78.7576C65.71 79.0059 65.5624 79.4459 65.6971 79.8475L66.66 82.7196C66.9611 83.6176 65.9005 84.3645 65.1122 83.8094L62.5912 82.0344C62.2387 81.7862 61.7613 81.7862 61.4088 82.0344L58.8878 83.8094C58.0995 84.3645 57.0389 83.6176 57.34 82.7196L58.3029 79.8475C58.4376 79.4459 58.29 79.0059 57.9375 78.7576L55.4166 76.9826C54.6283 76.4276 55.0334 75.2192 56.0078 75.2192H59.1238C59.5596 75.2192 59.9458 74.9473 60.0805 74.5456L61.0434 71.6736Z" fill="#01699C"/>
</g>
</g>
</g>
</svg>
