<svg width="600" height="203" viewBox="0 0 600 203" fill="none" xmlns="http://www.w3.org/2000/svg">
<g id="Panel/Body/Rounded">
<g id="Panel/Background">
<path d="M0 11C0 8.23858 2.23858 6 5 6H595C597.761 6 600 8.23858 600 11V194C600 196.761 597.761 199 595 199H5C2.23857 199 0 196.761 0 194V11Z" fill="#01699C"/>
<path d="M0 6H600H0ZM600 194C600 198.694 596.194 202.5 591.5 202.5H8.5C3.80558 202.5 0 198.694 0 194C0 194.828 2.23858 195.5 5 195.5H595C597.761 195.5 600 194.828 600 194ZM0 199V6V199ZM600 6V199V6Z" fill="#01699C"/>
</g>
<rect id="Panel/Background_2" x="0.5" y="0.5" width="599" height="199" rx="7.5" fill="#79CDE8" stroke="#01699C"/>
</g>
</svg>
