<svg width="1280" height="720" viewBox="0 0 1280 720" fill="none" xmlns="http://www.w3.org/2000/svg">
<g id="Scene/Home" clip-path="url(#clip0_6_149)">
<g id="Backgrounds" clip-path="url(#clip1_6_149)">
<rect id="Background" width="1280" height="720" fill="url(#paint0_linear_6_149)" fill-opacity="0.95"/>
</g>
<g id="BottomButtonsGroup">
<g id="Buttons/Square-Medium/SoundOn/Default">
<g id="Button/Square-Medium">
<rect id="Background_2" x="40" y="607" width="86" height="74" rx="4" fill="#01699C"/>
<rect id="Background_3" x="40.5" y="606.5" width="85" height="69" rx="4.5" fill="#029AE0" stroke="#01699C"/>
</g>
<g id="Icons/SoundOn">
<path id="Vector" d="M80.8752 624.171L73.5455 630.612L70.5325 633.259H65.2366C64.9437 633.257 64.6532 633.315 64.382 633.431C64.1107 633.546 63.864 633.717 63.6561 633.933C63.4482 634.148 63.2832 634.405 63.1706 634.688C63.058 634.971 63 635.274 63 635.58V646.402C63.0015 647.017 63.2358 647.606 63.6517 648.041C64.0675 648.476 64.6311 648.721 65.2192 648.722H70.5325L73.5397 651.364L80.8752 657.829C81.2722 658.179 81.7566 658.403 82.2714 658.475C82.7862 658.547 83.3098 658.463 83.7806 658.234C84.2514 658.005 84.6496 657.639 84.9284 657.181C85.2072 656.723 85.3549 656.191 85.3542 655.648V626.352C85.3549 625.809 85.2072 625.277 84.9284 624.819C84.6496 624.361 84.2514 623.996 83.7806 623.766C83.3098 623.537 82.7862 623.453 82.2714 623.525C81.7566 623.597 81.2722 623.821 80.8752 624.171Z" fill="#F5FCFD"/>
<path id="Vector_2" d="M96.1875 632.918C95.7946 632.49 95.2623 632.25 94.7074 632.25C94.1524 632.25 93.6201 632.49 93.2272 632.918C93.03 633.128 92.8733 633.379 92.7663 633.656C92.6593 633.934 92.6042 634.231 92.6042 634.532C92.6042 634.833 92.6593 635.131 92.7663 635.408C92.8733 635.685 93.03 635.937 93.2272 636.147C94.4047 637.437 95.0656 639.184 95.0656 641.005C95.0656 642.826 94.4047 644.572 93.2272 645.863C93.03 646.073 92.8733 646.324 92.7663 646.602C92.6593 646.879 92.6042 647.177 92.6042 647.478C92.6042 647.778 92.6593 648.076 92.7663 648.354C92.8733 648.631 93.03 648.882 93.2272 649.092C93.4174 649.306 93.6458 649.474 93.8982 649.587C94.1505 649.7 94.4215 649.755 94.6943 649.749C94.971 649.756 95.2461 649.701 95.5027 649.588C95.7594 649.475 95.9924 649.306 96.1875 649.092C98.1488 646.944 99.25 644.036 99.25 641.005C99.25 637.973 98.1488 635.065 96.1875 632.918Z" fill="#F5FCFD"/>
</g>
</g>
<g id="Buttons/Square-Medium/Star/Default">
<g id="Button/Square-Medium_2">
<rect id="Background_4" x="1154" y="607" width="86" height="74" rx="4" fill="#01699C"/>
<rect id="Background_5" x="1154.5" y="606.5" width="85" height="69" rx="4.5" fill="#029AE0" stroke="#01699C"/>
</g>
<g id="Icons/Star">
<path id="Vector_3" d="M1194.42 625.313C1195.18 622.896 1198.53 622.896 1199.3 625.313L1201.75 633.046C1202.1 634.127 1203.08 634.859 1204.19 634.859H1212.14C1214.63 634.859 1215.66 638.113 1213.65 639.607L1207.22 644.386C1206.32 645.054 1205.95 646.239 1206.29 647.32L1208.74 655.053C1209.51 657.471 1206.81 659.481 1204.8 657.987L1198.37 653.208C1197.47 652.54 1196.25 652.54 1195.35 653.208L1188.92 657.987C1186.91 659.481 1184.2 657.471 1184.97 655.053L1187.43 647.32C1187.77 646.239 1187.39 645.054 1186.49 644.386L1180.06 639.607C1178.05 638.113 1179.09 634.859 1181.57 634.859H1189.52C1190.63 634.859 1191.62 634.127 1191.96 633.046L1194.42 625.313Z" fill="#F5FCFD"/>
</g>
</g>
</g>
<g id="Center">
<g id="Buttons/Rect-Medium/PlayText/Default">
<g id="Button/Rect-Medium">
<g id="Background_6" filter="url(#filter0_d_6_149)">
<rect x="563" y="320" width="154" height="74" rx="4" fill="#01699C"/>
</g>
<rect id="Background_7" x="563.5" y="320.5" width="153" height="68" rx="4.5" fill="#029AE0" stroke="#01699C"/>
</g>
<text id="Play" fill="#F5FCFD" xml:space="preserve" style="white-space: pre" font-family="Rubik" font-size="36" font-weight="800" letter-spacing="0em"><tspan x="592.328" y="369.33">PLAY</tspan></text>
</g>
</g>
<g id="GameLogo">
<g id="SOLID" filter="url(#filter1_dd_6_149)">
<text fill="#F8FFFF" xml:space="preserve" style="white-space: pre" font-family="Rubik" font-size="96" font-weight="bold" letter-spacing="0em"><tspan x="495" y="226.88">SOLID</tspan></text>
</g>
</g>
<g id="Pointer">
<path id="Icon/Pointer" d="M705.077 410.972C710.83 410.972 715.5 406.999 715.5 401.284V389.022C715.5 387.524 714.271 386.27 712.763 386.303C711.31 386.325 710.137 387.512 710.137 388.966V385.415C710.137 383.917 708.909 382.663 707.4 382.696C705.948 382.719 704.775 383.906 704.775 385.36V383.04C704.775 381.564 703.579 380.377 702.094 380.377C700.608 380.377 699.412 381.564 699.412 383.04V373.663C699.412 372.187 698.217 371 696.731 371C695.245 371 694.05 372.187 694.05 373.663V394.437L694.027 396.834V390.675C691.246 390.675 689.022 392.906 689.022 395.669L689 399.497C689 401.106 689.123 404.735 693.402 408.686C694.932 410.095 696.921 410.905 698.999 410.961C701.535 411.027 704.685 410.994 705.077 410.972Z" fill="white"/>
<path id="Icon/Pointer(Stroke)" fill-rule="evenodd" clip-rule="evenodd" d="M693.05 373.663C693.05 371.629 694.699 370 696.731 370C698.763 370 700.412 371.629 700.412 373.663V379.779C700.916 379.522 701.488 379.377 702.094 379.377C703.82 379.377 705.27 380.553 705.667 382.154C706.177 381.871 706.761 381.707 707.382 381.697C709.472 381.652 711.137 383.38 711.137 385.415V385.703C711.621 385.456 712.166 385.312 712.744 385.303C714.834 385.259 716.5 386.987 716.5 389.022V401.284C716.5 407.634 711.3 411.96 705.102 411.972C704.565 411.996 701.462 412.026 698.973 411.96L698.972 411.96C696.651 411.898 694.432 410.994 692.724 409.421L692.723 409.42C690.47 407.34 689.275 405.309 688.653 403.546C688.032 401.787 688 400.345 688 399.497V399.492H688L688.022 395.669C688.022 395.668 688.022 395.667 688.022 395.666C688.024 392.683 690.187 390.217 693.05 389.753V373.663ZM693.027 391.799C691.289 392.239 690.022 393.801 690.022 395.669V395.675H690.022L690 399.497C690 399.498 690 399.499 690 399.5C690 400.261 690.03 401.438 690.539 402.881C691.048 404.323 692.055 406.081 694.08 407.951C695.433 409.197 697.191 409.912 699.026 409.961C701.554 410.027 704.671 409.993 705.02 409.973C705.039 409.972 705.058 409.972 705.077 409.972C710.374 409.972 714.5 406.355 714.5 401.284V389.022C714.5 388.062 713.71 387.282 712.785 387.303L712.778 387.303C711.871 387.317 711.137 388.06 711.137 388.966C711.137 389.518 710.69 389.966 710.137 389.966C709.585 389.966 709.137 389.518 709.137 388.966V385.415C709.137 384.455 708.347 383.676 707.422 383.696L707.416 383.696L707.416 383.696C706.508 383.71 705.775 384.454 705.775 385.36C705.775 385.405 705.772 385.451 705.766 385.495V389.947C705.766 390.5 705.318 390.947 704.766 390.947C704.214 390.947 703.766 390.5 703.766 389.947V385.404C703.766 385.359 703.769 385.314 703.775 385.269V383.04C703.775 382.123 703.034 381.377 702.094 381.377C701.154 381.377 700.412 382.123 700.412 383.04C700.412 383.097 700.408 383.152 700.399 383.206V391.831C700.399 392.383 699.951 392.831 699.399 392.831C698.846 392.831 698.399 392.383 698.399 391.831V383.078C698.399 383.021 698.403 382.966 698.412 382.912V373.663C698.412 372.746 697.671 372 696.731 372C695.791 372 695.05 372.746 695.05 373.663V394.437L695.05 394.446L695.027 396.843C695.022 397.394 694.573 397.837 694.023 397.834C693.472 397.831 693.027 397.385 693.027 396.834V391.799Z" fill="#212121"/>
</g>
</g>
<defs>
<filter id="filter0_d_6_149" x="560" y="317" width="160" height="80" filterUnits="userSpaceOnUse" color-interpolation-filters="sRGB">
<feFlood flood-opacity="0" result="BackgroundImageFix"/>
<feColorMatrix in="SourceAlpha" type="matrix" values="0 0 0 0 0 0 0 0 0 0 0 0 0 0 0 0 0 0 127 0" result="hardAlpha"/>
<feMorphology radius="3" operator="dilate" in="SourceAlpha" result="effect1_dropShadow_6_149"/>
<feOffset/>
<feComposite in2="hardAlpha" operator="out"/>
<feColorMatrix type="matrix" values="0 0 0 0 1 0 0 0 0 1 0 0 0 0 1 0 0 0 1 0"/>
<feBlend mode="normal" in2="BackgroundImageFix" result="effect1_dropShadow_6_149"/>
<feBlend mode="normal" in="SourceGraphic" in2="effect1_dropShadow_6_149" result="shape"/>
</filter>
<filter id="filter1_dd_6_149" x="492.784" y="153.84" width="291.753" height="79.1199" filterUnits="userSpaceOnUse" color-interpolation-filters="sRGB">
<feFlood flood-opacity="0" result="BackgroundImageFix"/>
<feColorMatrix in="SourceAlpha" type="matrix" values="0 0 0 0 0 0 0 0 0 0 0 0 0 0 0 0 0 0 127 0" result="hardAlpha"/>
<feMorphology radius="3" operator="dilate" in="SourceAlpha" result="effect1_dropShadow_6_149"/>
<feOffset/>
<feGaussianBlur stdDeviation="1"/>
<feComposite in2="hardAlpha" operator="out"/>
<feColorMatrix type="matrix" values="0 0 0 0 0.403704 0 0 0 0 0.745064 0 0 0 0 0.829401 0 0 0 1 0"/>
<feBlend mode="normal" in2="BackgroundImageFix" result="effect1_dropShadow_6_149"/>
<feColorMatrix in="SourceAlpha" type="matrix" values="0 0 0 0 0 0 0 0 0 0 0 0 0 0 0 0 0 0 127 0" result="hardAlpha"/>
<feOffset dy="4"/>
<feComposite in2="hardAlpha" operator="out"/>
<feColorMatrix type="matrix" values="0 0 0 0 0.501961 0 0 0 0 0.72549 0 0 0 0 0.760784 0 0 0 1 0"/>
<feBlend mode="normal" in2="effect1_dropShadow_6_149" result="effect2_dropShadow_6_149"/>
<feBlend mode="normal" in="SourceGraphic" in2="effect2_dropShadow_6_149" result="shape"/>
</filter>
<linearGradient id="paint0_linear_6_149" x1="150.9" y1="360" x2="150.9" y2="910.237" gradientUnits="userSpaceOnUse">
<stop stop-color="#ADE9F3"/>
<stop offset="1" stop-color="#82CEE0"/>
</linearGradient>
<clipPath id="clip0_6_149">
<rect width="1280" height="720" fill="white"/>
</clipPath>
<clipPath id="clip1_6_149">
<rect width="1280" height="720" fill="white"/>
</clipPath>
</defs>
</svg>
