<svg width="1280" height="720" viewBox="0 0 1280 720" fill="none" xmlns="http://www.w3.org/2000/svg">
<g id="Scene/Levels(A)" clip-path="url(#clip0_6_119)">
<g id="Backgrounds" clip-path="url(#clip1_6_119)">
<rect id="Background" width="1280" height="720" fill="url(#paint0_linear_6_119)" fill-opacity="0.95"/>
</g>
<g id="Center">
<g id="LevelButtonsRow">
<g id="Level/Buttons/3-Star/Default">
<g id="Level/Button/Dummy">
<rect id="Background_2" x="347.5" y="122.5" width="81" height="91" rx="3.5" fill="#029AE0" stroke="#01699C" stroke-width="5"/>
<rect id="Background_3" x="347" y="122" width="82" height="92" rx="4" stroke="#F5FCFD" stroke-width="4"/>
</g>
<text id="Number" fill="#F5F5F5" xml:space="preserve" style="white-space: pre" font-family="Rubik" font-size="48" font-weight="900" letter-spacing="0em"><tspan x="374.641" y="172.94">1</tspan></text>
<g id="Level/Stars/3-3">
<g id="Star/Small/Active">
<path id="StarIcon" d="M369.043 191.674C369.344 190.775 370.656 190.775 370.957 191.674L371.92 194.546C372.054 194.947 372.44 195.219 372.876 195.219H375.992C376.967 195.219 377.372 196.428 376.583 196.983L374.062 198.758C373.71 199.006 373.562 199.446 373.697 199.847L374.66 202.72C374.961 203.618 373.9 204.364 373.112 203.809L370.591 202.034C370.239 201.786 369.761 201.786 369.409 202.034L366.888 203.809C366.1 204.364 365.039 203.618 365.34 202.72L366.303 199.847C366.438 199.446 366.29 199.006 365.937 198.758L363.417 196.983C362.628 196.428 363.033 195.219 364.008 195.219H367.124C367.56 195.219 367.946 194.947 368.08 194.546L369.043 191.674Z" fill="#F5FCFD"/>
</g>
<g id="Star/Small/Active_2">
<path id="StarIcon_2" d="M386.91 191.674C387.211 190.775 388.522 190.775 388.823 191.674L389.786 194.546C389.921 194.947 390.307 195.219 390.743 195.219H393.859C394.833 195.219 395.238 196.428 394.45 196.983L391.929 198.758C391.577 199.006 391.429 199.446 391.564 199.847L392.527 202.72C392.828 203.618 391.767 204.364 390.979 203.809L388.458 202.034C388.105 201.786 387.628 201.786 387.275 202.034L384.755 203.809C383.966 204.364 382.906 203.618 383.207 202.72L384.17 199.847C384.304 199.446 384.157 199.006 383.804 198.758L381.283 196.983C380.495 196.428 380.9 195.219 381.874 195.219H384.991C385.426 195.219 385.813 194.947 385.947 194.546L386.91 191.674Z" fill="#F5FCFD"/>
</g>
<g id="Star/Small/Active_3">
<path id="StarIcon_3" d="M404.777 191.674C405.078 190.775 406.389 190.775 406.69 191.674L407.653 194.546C407.788 194.947 408.174 195.219 408.61 195.219H411.726C412.7 195.219 413.105 196.428 412.317 196.983L409.796 198.758C409.443 199.006 409.296 199.446 409.431 199.847L410.393 202.72C410.695 203.618 409.634 204.364 408.846 203.809L406.325 202.034C405.972 201.786 405.495 201.786 405.142 202.034L402.621 203.809C401.833 204.364 400.772 203.618 401.073 202.72L402.036 199.847C402.171 199.446 402.023 199.006 401.671 198.758L399.15 196.983C398.362 196.428 398.767 195.219 399.741 195.219H402.857C403.293 195.219 403.679 194.947 403.814 194.546L404.777 191.674Z" fill="#F5FCFD"/>
</g>
</g>
</g>
<g id="Level/Buttons/2-Star/Default">
<g id="Level/Button/Dummy_2">
<rect id="Border" opacity="0.4" x="473" y="122" width="82" height="92" rx="4" fill="#029AE0" stroke="#F5FCFD" stroke-width="4"/>
<rect id="Background_4" x="475.5" y="124.5" width="77" height="87" rx="1.5" fill="#029AE0" stroke="#01699C"/>
</g>
<text id="Number_2" fill="#F5F5F5" xml:space="preserve" style="white-space: pre" font-family="Rubik" font-size="48" font-weight="900" letter-spacing="0em"><tspan x="497.102" y="173.44">2</tspan></text>
<g id="Level/Stars/2-3">
<g id="Level/Stars/0-3">
<g id="Star/Small/Unactive">
<path id="StarIcon_4" d="M495.043 191.674C495.344 190.775 496.656 190.775 496.957 191.674L497.92 194.546C498.054 194.947 498.44 195.219 498.876 195.219H501.992C502.967 195.219 503.372 196.428 502.583 196.983L500.062 198.758C499.71 199.006 499.562 199.446 499.697 199.847L500.66 202.72C500.961 203.618 499.9 204.364 499.112 203.809L496.591 202.034C496.239 201.786 495.761 201.786 495.409 202.034L492.888 203.809C492.1 204.364 491.039 203.618 491.34 202.72L492.303 199.847C492.438 199.446 492.29 199.006 491.937 198.758L489.417 196.983C488.628 196.428 489.033 195.219 490.008 195.219H493.124C493.56 195.219 493.946 194.947 494.08 194.546L495.043 191.674Z" fill="#01699C"/>
</g>
<g id="Star/Small/Unactive_2">
<path id="StarIcon_5" d="M513.043 191.674C513.344 190.775 514.656 190.775 514.957 191.674L515.92 194.546C516.054 194.947 516.44 195.219 516.876 195.219H519.992C520.967 195.219 521.372 196.428 520.583 196.983L518.062 198.758C517.71 199.006 517.562 199.446 517.697 199.847L518.66 202.72C518.961 203.618 517.9 204.364 517.112 203.809L514.591 202.034C514.239 201.786 513.761 201.786 513.409 202.034L510.888 203.809C510.1 204.364 509.039 203.618 509.34 202.72L510.303 199.847C510.438 199.446 510.29 199.006 509.937 198.758L507.417 196.983C506.628 196.428 507.033 195.219 508.008 195.219H511.124C511.56 195.219 511.946 194.947 512.08 194.546L513.043 191.674Z" fill="#01699C"/>
</g>
<g id="Star/Small/Unactive_3">
<path id="StarIcon_6" d="M531.043 191.674C531.344 190.775 532.656 190.775 532.957 191.674L533.92 194.546C534.054 194.947 534.44 195.219 534.876 195.219H537.992C538.967 195.219 539.372 196.428 538.583 196.983L536.062 198.758C535.71 199.006 535.562 199.446 535.697 199.847L536.66 202.72C536.961 203.618 535.9 204.364 535.112 203.809L532.591 202.034C532.239 201.786 531.761 201.786 531.409 202.034L528.888 203.809C528.1 204.364 527.039 203.618 527.34 202.72L528.303 199.847C528.438 199.446 528.29 199.006 527.937 198.758L525.417 196.983C524.628 196.428 525.033 195.219 526.008 195.219H529.124C529.56 195.219 529.946 194.947 530.08 194.546L531.043 191.674Z" fill="#01699C"/>
</g>
</g>
<g id="Star/Small/Active_4">
<path id="StarIcon_7" d="M495.043 191.674C495.344 190.775 496.656 190.775 496.957 191.674L497.92 194.546C498.054 194.947 498.44 195.219 498.876 195.219H501.992C502.967 195.219 503.372 196.428 502.583 196.983L500.062 198.758C499.71 199.006 499.562 199.446 499.697 199.847L500.66 202.72C500.961 203.618 499.9 204.364 499.112 203.809L496.591 202.034C496.239 201.786 495.761 201.786 495.409 202.034L492.888 203.809C492.1 204.364 491.039 203.618 491.34 202.72L492.303 199.847C492.438 199.446 492.29 199.006 491.937 198.758L489.417 196.983C488.628 196.428 489.033 195.219 490.008 195.219H493.124C493.56 195.219 493.946 194.947 494.08 194.546L495.043 191.674Z" fill="#F5FCFD"/>
</g>
<g id="Star/Small/Active_5">
<path id="StarIcon_8" d="M513.043 191.674C513.344 190.775 514.656 190.775 514.957 191.674L515.92 194.546C516.054 194.947 516.44 195.219 516.876 195.219H519.992C520.967 195.219 521.372 196.428 520.583 196.983L518.062 198.758C517.71 199.006 517.562 199.446 517.697 199.847L518.66 202.72C518.961 203.618 517.9 204.364 517.112 203.809L514.591 202.034C514.239 201.786 513.761 201.786 513.409 202.034L510.888 203.809C510.1 204.364 509.039 203.618 509.34 202.72L510.303 199.847C510.438 199.446 510.29 199.006 509.937 198.758L507.417 196.983C506.628 196.428 507.033 195.219 508.008 195.219H511.124C511.56 195.219 511.946 194.947 512.08 194.546L513.043 191.674Z" fill="#F5FCFD"/>
</g>
</g>
</g>
<g id="Level/Buttons/1-Star/Default">
<g id="Level/Button/Dummy_3">
<rect id="Border_2" opacity="0.4" x="599" y="122" width="82" height="92" rx="4" fill="#029AE0" stroke="#F5FCFD" stroke-width="4"/>
<rect id="Background_5" x="601.5" y="124.5" width="77" height="87" rx="1.5" fill="#029AE0" stroke="#01699C"/>
</g>
<g id="Level/Stars/1-3">
<g id="Level/Stars/0-3_2">
<g id="Star/Small/Unactive_4">
<path id="StarIcon_9" d="M621.043 191.674C621.344 190.775 622.656 190.775 622.957 191.674L623.92 194.546C624.054 194.947 624.44 195.219 624.876 195.219H627.992C628.967 195.219 629.372 196.428 628.583 196.983L626.062 198.758C625.71 199.006 625.562 199.446 625.697 199.847L626.66 202.72C626.961 203.618 625.9 204.364 625.112 203.809L622.591 202.034C622.239 201.786 621.761 201.786 621.409 202.034L618.888 203.809C618.1 204.364 617.039 203.618 617.34 202.72L618.303 199.847C618.438 199.446 618.29 199.006 617.937 198.758L615.417 196.983C614.628 196.428 615.033 195.219 616.008 195.219H619.124C619.56 195.219 619.946 194.947 620.08 194.546L621.043 191.674Z" fill="#01699C"/>
</g>
<g id="Star/Small/Unactive_5">
<path id="StarIcon_10" d="M639.043 191.674C639.344 190.775 640.656 190.775 640.957 191.674L641.92 194.546C642.054 194.947 642.44 195.219 642.876 195.219H645.992C646.967 195.219 647.372 196.428 646.583 196.983L644.062 198.758C643.71 199.006 643.562 199.446 643.697 199.847L644.66 202.72C644.961 203.618 643.9 204.364 643.112 203.809L640.591 202.034C640.239 201.786 639.761 201.786 639.409 202.034L636.888 203.809C636.1 204.364 635.039 203.618 635.34 202.72L636.303 199.847C636.438 199.446 636.29 199.006 635.937 198.758L633.417 196.983C632.628 196.428 633.033 195.219 634.008 195.219H637.124C637.56 195.219 637.946 194.947 638.08 194.546L639.043 191.674Z" fill="#01699C"/>
</g>
<g id="Star/Small/Unactive_6">
<path id="StarIcon_11" d="M657.043 191.674C657.344 190.775 658.656 190.775 658.957 191.674L659.92 194.546C660.054 194.947 660.44 195.219 660.876 195.219H663.992C664.967 195.219 665.372 196.428 664.583 196.983L662.062 198.758C661.71 199.006 661.562 199.446 661.697 199.847L662.66 202.72C662.961 203.618 661.9 204.364 661.112 203.809L658.591 202.034C658.239 201.786 657.761 201.786 657.409 202.034L654.888 203.809C654.1 204.364 653.039 203.618 653.34 202.72L654.303 199.847C654.438 199.446 654.29 199.006 653.937 198.758L651.417 196.983C650.628 196.428 651.033 195.219 652.008 195.219H655.124C655.56 195.219 655.946 194.947 656.08 194.546L657.043 191.674Z" fill="#01699C"/>
</g>
</g>
<g id="Star/Small/Active_6">
<path id="StarIcon_12" d="M621.043 191.674C621.344 190.775 622.656 190.775 622.957 191.674L623.92 194.546C624.054 194.947 624.44 195.219 624.876 195.219H627.992C628.967 195.219 629.372 196.428 628.583 196.983L626.062 198.758C625.71 199.006 625.562 199.446 625.697 199.847L626.66 202.72C626.961 203.618 625.9 204.364 625.112 203.809L622.591 202.034C622.239 201.786 621.761 201.786 621.409 202.034L618.888 203.809C618.1 204.364 617.039 203.618 617.34 202.72L618.303 199.847C618.438 199.446 618.29 199.006 617.937 198.758L615.417 196.983C614.628 196.428 615.033 195.219 616.008 195.219H619.124C619.56 195.219 619.946 194.947 620.08 194.546L621.043 191.674Z" fill="#F5FCFD"/>
</g>
</g>
<text id="Number_3" fill="#F5F5F5" xml:space="preserve" style="white-space: pre" font-family="Rubik" font-size="48" font-weight="900" letter-spacing="0em"><tspan x="622.984" y="173.44">3</tspan></text>
</g>
<g id="Level/Buttons/0-Star/Default">
<g id="Level/Button/Dummy_4">
<rect id="Border_3" opacity="0.4" x="725" y="122" width="82" height="92" rx="4" fill="#029AE0" stroke="#F5FCFD" stroke-width="4"/>
<rect id="Background_6" x="727.5" y="124.5" width="77" height="87" rx="1.5" fill="#029AE0" stroke="#01699C"/>
</g>
<g id="Level/Stars/0-3_3">
<g id="Star/Small/Unactive_7">
<path id="StarIcon_13" d="M748.043 191.674C748.344 190.775 749.656 190.775 749.957 191.674L750.92 194.546C751.054 194.947 751.44 195.219 751.876 195.219H754.992C755.967 195.219 756.372 196.428 755.583 196.983L753.062 198.758C752.71 199.006 752.562 199.446 752.697 199.847L753.66 202.72C753.961 203.618 752.9 204.364 752.112 203.809L749.591 202.034C749.239 201.786 748.761 201.786 748.409 202.034L745.888 203.809C745.1 204.364 744.039 203.618 744.34 202.72L745.303 199.847C745.438 199.446 745.29 199.006 744.937 198.758L742.417 196.983C741.628 196.428 742.033 195.219 743.008 195.219H746.124C746.56 195.219 746.946 194.947 747.08 194.546L748.043 191.674Z" fill="#01699C"/>
</g>
<g id="Star/Small/Unactive_8">
<path id="StarIcon_14" d="M766.043 191.674C766.344 190.775 767.656 190.775 767.957 191.674L768.92 194.546C769.054 194.947 769.44 195.219 769.876 195.219H772.992C773.967 195.219 774.372 196.428 773.583 196.983L771.062 198.758C770.71 199.006 770.562 199.446 770.697 199.847L771.66 202.72C771.961 203.618 770.9 204.364 770.112 203.809L767.591 202.034C767.239 201.786 766.761 201.786 766.409 202.034L763.888 203.809C763.1 204.364 762.039 203.618 762.34 202.72L763.303 199.847C763.438 199.446 763.29 199.006 762.937 198.758L760.417 196.983C759.628 196.428 760.033 195.219 761.008 195.219H764.124C764.56 195.219 764.946 194.947 765.08 194.546L766.043 191.674Z" fill="#01699C"/>
</g>
<g id="Star/Small/Unactive_9">
<path id="StarIcon_15" d="M784.043 191.674C784.344 190.775 785.656 190.775 785.957 191.674L786.92 194.546C787.054 194.947 787.44 195.219 787.876 195.219H790.992C791.967 195.219 792.372 196.428 791.583 196.983L789.062 198.758C788.71 199.006 788.562 199.446 788.697 199.847L789.66 202.72C789.961 203.618 788.9 204.364 788.112 203.809L785.591 202.034C785.239 201.786 784.761 201.786 784.409 202.034L781.888 203.809C781.1 204.364 780.039 203.618 780.34 202.72L781.303 199.847C781.438 199.446 781.29 199.006 780.937 198.758L778.417 196.983C777.628 196.428 778.033 195.219 779.008 195.219H782.124C782.56 195.219 782.946 194.947 783.08 194.546L784.043 191.674Z" fill="#01699C"/>
</g>
</g>
<text id="Number_4" fill="#F5F5F5" xml:space="preserve" style="white-space: pre" font-family="Rubik" font-size="48" font-weight="900" letter-spacing="0em"><tspan x="748.352" y="173.44">4</tspan></text>
</g>
<g id="Level/Buttons/Locked">
<g id="Level/Button/Locked">
<g id="Level/Button/Unlocked">
<rect id="Background_7" x="852" y="127.434" width="80" height="81.1321" rx="5" fill="white" fill-opacity="0.15" stroke="#F5FCFD" stroke-width="5"/>
</g>
<g id="Icons/Locker">
<path id="Vector" fill-rule="evenodd" clip-rule="evenodd" d="M896.667 161.667H886.333V157.518C886.333 154.199 888.206 151.71 891.5 151.71C894.792 151.71 896.667 154.199 896.667 157.518V161.667ZM891.5 179.238C889.367 179.238 887.625 177.481 887.625 175.333C887.625 173.186 889.367 171.429 891.5 171.429C893.631 171.429 895.375 173.186 895.375 175.333C895.375 177.481 893.631 179.238 891.5 179.238ZM903.125 161.667H901.187V157.762C901.187 152.295 896.925 148 891.5 148C886.074 148 881.812 152.295 881.812 157.762V161.667H879.875C877.742 161.667 876 163.424 876 165.571V185.095C876 187.243 877.742 189 879.875 189H903.125C905.256 189 907 187.243 907 185.095V165.571C907 163.424 905.256 161.667 903.125 161.667Z" fill="#F5F5F5"/>
</g>
</g>
</g>
</g>
<g id="LevelButtonsRow_2">
<g id="Level/Buttons/Locked_2">
<g id="Level/Button/Locked_2">
<g id="Level/Button/Unlocked_2">
<rect id="Background_8" x="348" y="259.434" width="80" height="81.1321" rx="5" fill="white" fill-opacity="0.15" stroke="#F5FCFD" stroke-width="5"/>
</g>
<g id="Icons/Locker_2">
<path id="Vector_2" fill-rule="evenodd" clip-rule="evenodd" d="M392.667 293.667H382.333V289.518C382.333 286.199 384.206 283.71 387.5 283.71C390.792 283.71 392.667 286.199 392.667 289.518V293.667ZM387.5 311.238C385.367 311.238 383.625 309.481 383.625 307.333C383.625 305.186 385.367 303.429 387.5 303.429C389.631 303.429 391.375 305.186 391.375 307.333C391.375 309.481 389.631 311.238 387.5 311.238ZM399.125 293.667H397.187V289.762C397.187 284.295 392.925 280 387.5 280C382.074 280 377.812 284.295 377.812 289.762V293.667H375.875C373.742 293.667 372 295.424 372 297.571V317.095C372 319.243 373.742 321 375.875 321H399.125C401.256 321 403 319.243 403 317.095V297.571C403 295.424 401.256 293.667 399.125 293.667Z" fill="#F5F5F5"/>
</g>
</g>
</g>
<g id="Level/Buttons/Locked_3">
<g id="Level/Button/Locked_3">
<g id="Level/Button/Unlocked_3">
<rect id="Background_9" x="474" y="259.434" width="80" height="81.1321" rx="5" fill="white" fill-opacity="0.15" stroke="#F5FCFD" stroke-width="5"/>
</g>
<g id="Icons/Locker_3">
<path id="Vector_3" fill-rule="evenodd" clip-rule="evenodd" d="M518.667 293.667H508.333V289.518C508.333 286.199 510.206 283.71 513.5 283.71C516.792 283.71 518.667 286.199 518.667 289.518V293.667ZM513.5 311.238C511.367 311.238 509.625 309.481 509.625 307.333C509.625 305.186 511.367 303.429 513.5 303.429C515.631 303.429 517.375 305.186 517.375 307.333C517.375 309.481 515.631 311.238 513.5 311.238ZM525.125 293.667H523.187V289.762C523.187 284.295 518.925 280 513.5 280C508.074 280 503.812 284.295 503.812 289.762V293.667H501.875C499.742 293.667 498 295.424 498 297.571V317.095C498 319.243 499.742 321 501.875 321H525.125C527.256 321 529 319.243 529 317.095V297.571C529 295.424 527.256 293.667 525.125 293.667Z" fill="#F5F5F5"/>
</g>
</g>
</g>
<g id="Level/Buttons/Locked_4">
<g id="Level/Button/Locked_4">
<g id="Level/Button/Unlocked_4">
<rect id="Background_10" x="600" y="259.434" width="80" height="81.1321" rx="5" fill="white" fill-opacity="0.15" stroke="#F5FCFD" stroke-width="5"/>
</g>
<g id="Icons/Locker_4">
<path id="Vector_4" fill-rule="evenodd" clip-rule="evenodd" d="M644.667 293.667H634.333V289.518C634.333 286.199 636.206 283.71 639.5 283.71C642.792 283.71 644.667 286.199 644.667 289.518V293.667ZM639.5 311.238C637.367 311.238 635.625 309.481 635.625 307.333C635.625 305.186 637.367 303.429 639.5 303.429C641.631 303.429 643.375 305.186 643.375 307.333C643.375 309.481 641.631 311.238 639.5 311.238ZM651.125 293.667H649.187V289.762C649.187 284.295 644.925 280 639.5 280C634.074 280 629.812 284.295 629.812 289.762V293.667H627.875C625.742 293.667 624 295.424 624 297.571V317.095C624 319.243 625.742 321 627.875 321H651.125C653.256 321 655 319.243 655 317.095V297.571C655 295.424 653.256 293.667 651.125 293.667Z" fill="#F5F5F5"/>
</g>
</g>
</g>
<g id="Level/Buttons/Locked_5">
<g id="Level/Button/Locked_5">
<g id="Level/Button/Unlocked_5">
<rect id="Background_11" x="726" y="259.434" width="80" height="81.1321" rx="5" fill="white" fill-opacity="0.15" stroke="#F5FCFD" stroke-width="5"/>
</g>
<g id="Icons/Locker_5">
<path id="Vector_5" fill-rule="evenodd" clip-rule="evenodd" d="M770.667 293.667H760.333V289.518C760.333 286.199 762.206 283.71 765.5 283.71C768.792 283.71 770.667 286.199 770.667 289.518V293.667ZM765.5 311.238C763.367 311.238 761.625 309.481 761.625 307.333C761.625 305.186 763.367 303.429 765.5 303.429C767.631 303.429 769.375 305.186 769.375 307.333C769.375 309.481 767.631 311.238 765.5 311.238ZM777.125 293.667H775.187V289.762C775.187 284.295 770.925 280 765.5 280C760.074 280 755.812 284.295 755.812 289.762V293.667H753.875C751.742 293.667 750 295.424 750 297.571V317.095C750 319.243 751.742 321 753.875 321H777.125C779.256 321 781 319.243 781 317.095V297.571C781 295.424 779.256 293.667 777.125 293.667Z" fill="#F5F5F5"/>
</g>
</g>
</g>
<g id="Level/Buttons/Locked_6">
<g id="Level/Button/Locked_6">
<g id="Level/Button/Unlocked_6">
<rect id="Background_12" x="852" y="259.434" width="80" height="81.1321" rx="5" fill="white" fill-opacity="0.15" stroke="#F5FCFD" stroke-width="5"/>
</g>
<g id="Icons/Locker_6">
<path id="Vector_6" fill-rule="evenodd" clip-rule="evenodd" d="M896.667 293.667H886.333V289.518C886.333 286.199 888.206 283.71 891.5 283.71C894.792 283.71 896.667 286.199 896.667 289.518V293.667ZM891.5 311.238C889.367 311.238 887.625 309.481 887.625 307.333C887.625 305.186 889.367 303.429 891.5 303.429C893.631 303.429 895.375 305.186 895.375 307.333C895.375 309.481 893.631 311.238 891.5 311.238ZM903.125 293.667H901.187V289.762C901.187 284.295 896.925 280 891.5 280C886.074 280 881.812 284.295 881.812 289.762V293.667H879.875C877.742 293.667 876 295.424 876 297.571V317.095C876 319.243 877.742 321 879.875 321H903.125C905.256 321 907 319.243 907 317.095V297.571C907 295.424 905.256 293.667 903.125 293.667Z" fill="#F5F5F5"/>
</g>
</g>
</g>
</g>
<g id="LevelButtonsRow_3">
<g id="Level/Buttons/Locked_7">
<g id="Level/Button/Locked_7">
<g id="Level/Button/Unlocked_7">
<rect id="Background_13" x="348" y="387.434" width="80" height="81.1321" rx="5" fill="white" fill-opacity="0.15" stroke="#F5FCFD" stroke-width="5"/>
</g>
<g id="Icons/Locker_7">
<path id="Vector_7" fill-rule="evenodd" clip-rule="evenodd" d="M392.667 421.667H382.333V417.518C382.333 414.199 384.206 411.71 387.5 411.71C390.792 411.71 392.667 414.199 392.667 417.518V421.667ZM387.5 439.238C385.367 439.238 383.625 437.481 383.625 435.333C383.625 433.186 385.367 431.429 387.5 431.429C389.631 431.429 391.375 433.186 391.375 435.333C391.375 437.481 389.631 439.238 387.5 439.238ZM399.125 421.667H397.187V417.762C397.187 412.295 392.925 408 387.5 408C382.074 408 377.812 412.295 377.812 417.762V421.667H375.875C373.742 421.667 372 423.424 372 425.571V445.095C372 447.243 373.742 449 375.875 449H399.125C401.256 449 403 447.243 403 445.095V425.571C403 423.424 401.256 421.667 399.125 421.667Z" fill="#F5F5F5"/>
</g>
</g>
</g>
<g id="Level/Buttons/Locked_8">
<g id="Level/Button/Locked_8">
<g id="Level/Button/Unlocked_8">
<rect id="Background_14" x="474" y="387.434" width="80" height="81.1321" rx="5" fill="white" fill-opacity="0.15" stroke="#F5FCFD" stroke-width="5"/>
</g>
<g id="Icons/Locker_8">
<path id="Vector_8" fill-rule="evenodd" clip-rule="evenodd" d="M518.667 421.667H508.333V417.518C508.333 414.199 510.206 411.71 513.5 411.71C516.792 411.71 518.667 414.199 518.667 417.518V421.667ZM513.5 439.238C511.367 439.238 509.625 437.481 509.625 435.333C509.625 433.186 511.367 431.429 513.5 431.429C515.631 431.429 517.375 433.186 517.375 435.333C517.375 437.481 515.631 439.238 513.5 439.238ZM525.125 421.667H523.187V417.762C523.187 412.295 518.925 408 513.5 408C508.074 408 503.812 412.295 503.812 417.762V421.667H501.875C499.742 421.667 498 423.424 498 425.571V445.095C498 447.243 499.742 449 501.875 449H525.125C527.256 449 529 447.243 529 445.095V425.571C529 423.424 527.256 421.667 525.125 421.667Z" fill="#F5F5F5"/>
</g>
</g>
</g>
<g id="Level/Buttons/Locked_9">
<g id="Level/Button/Locked_9">
<g id="Level/Button/Unlocked_9">
<rect id="Background_15" x="600" y="387.434" width="80" height="81.1321" rx="5" fill="white" fill-opacity="0.15" stroke="#F5FCFD" stroke-width="5"/>
</g>
<g id="Icons/Locker_9">
<path id="Vector_9" fill-rule="evenodd" clip-rule="evenodd" d="M644.667 421.667H634.333V417.518C634.333 414.199 636.206 411.71 639.5 411.71C642.792 411.71 644.667 414.199 644.667 417.518V421.667ZM639.5 439.238C637.367 439.238 635.625 437.481 635.625 435.333C635.625 433.186 637.367 431.429 639.5 431.429C641.631 431.429 643.375 433.186 643.375 435.333C643.375 437.481 641.631 439.238 639.5 439.238ZM651.125 421.667H649.187V417.762C649.187 412.295 644.925 408 639.5 408C634.074 408 629.812 412.295 629.812 417.762V421.667H627.875C625.742 421.667 624 423.424 624 425.571V445.095C624 447.243 625.742 449 627.875 449H651.125C653.256 449 655 447.243 655 445.095V425.571C655 423.424 653.256 421.667 651.125 421.667Z" fill="#F5F5F5"/>
</g>
</g>
</g>
<g id="Level/Buttons/Locked_10">
<g id="Level/Button/Locked_10">
<g id="Level/Button/Unlocked_10">
<rect id="Background_16" x="726" y="387.434" width="80" height="81.1321" rx="5" fill="white" fill-opacity="0.15" stroke="#F5FCFD" stroke-width="5"/>
</g>
<g id="Icons/Locker_10">
<path id="Vector_10" fill-rule="evenodd" clip-rule="evenodd" d="M770.667 421.667H760.333V417.518C760.333 414.199 762.206 411.71 765.5 411.71C768.792 411.71 770.667 414.199 770.667 417.518V421.667ZM765.5 439.238C763.367 439.238 761.625 437.481 761.625 435.333C761.625 433.186 763.367 431.429 765.5 431.429C767.631 431.429 769.375 433.186 769.375 435.333C769.375 437.481 767.631 439.238 765.5 439.238ZM777.125 421.667H775.187V417.762C775.187 412.295 770.925 408 765.5 408C760.074 408 755.812 412.295 755.812 417.762V421.667H753.875C751.742 421.667 750 423.424 750 425.571V445.095C750 447.243 751.742 449 753.875 449H777.125C779.256 449 781 447.243 781 445.095V425.571C781 423.424 779.256 421.667 777.125 421.667Z" fill="#F5F5F5"/>
</g>
</g>
</g>
<g id="Level/Buttons/Locked_11">
<g id="Level/Button/Locked_11">
<g id="Level/Button/Unlocked_11">
<rect id="Background_17" x="852" y="387.434" width="80" height="81.1321" rx="5" fill="white" fill-opacity="0.15" stroke="#F5FCFD" stroke-width="5"/>
</g>
<g id="Icons/Locker_11">
<path id="Vector_11" fill-rule="evenodd" clip-rule="evenodd" d="M896.667 421.667H886.333V417.518C886.333 414.199 888.206 411.71 891.5 411.71C894.792 411.71 896.667 414.199 896.667 417.518V421.667ZM891.5 439.238C889.367 439.238 887.625 437.481 887.625 435.333C887.625 433.186 889.367 431.429 891.5 431.429C893.631 431.429 895.375 433.186 895.375 435.333C895.375 437.481 893.631 439.238 891.5 439.238ZM903.125 421.667H901.187V417.762C901.187 412.295 896.925 408 891.5 408C886.074 408 881.812 412.295 881.812 417.762V421.667H879.875C877.742 421.667 876 423.424 876 425.571V445.095C876 447.243 877.742 449 879.875 449H903.125C905.256 449 907 447.243 907 445.095V425.571C907 423.424 905.256 421.667 903.125 421.667Z" fill="#F5F5F5"/>
</g>
</g>
</g>
</g>
</g>
<g id="BottomButtonsGroup">
<g id="Buttons/Square-Medium/SoundOn/Default">
<g id="Button/Square-Medium">
<rect id="Background_18" x="40" y="607" width="86" height="74" rx="4" fill="#01699C"/>
<rect id="Background_19" x="40.5" y="606.5" width="85" height="69" rx="4.5" fill="#029AE0" stroke="#01699C"/>
</g>
<g id="Icons/SoundOn">
<path id="Vector_12" d="M80.8752 624.171L73.5455 630.612L70.5325 633.259H65.2366C64.9437 633.257 64.6532 633.315 64.382 633.431C64.1107 633.546 63.864 633.717 63.6561 633.933C63.4482 634.148 63.2832 634.405 63.1706 634.688C63.058 634.971 63 635.274 63 635.58V646.402C63.0015 647.017 63.2358 647.606 63.6517 648.041C64.0675 648.476 64.6311 648.721 65.2192 648.722H70.5325L73.5397 651.364L80.8752 657.829C81.2722 658.179 81.7566 658.403 82.2714 658.475C82.7862 658.547 83.3098 658.463 83.7806 658.234C84.2514 658.005 84.6496 657.639 84.9284 657.181C85.2072 656.723 85.3549 656.191 85.3542 655.648V626.352C85.3549 625.809 85.2072 625.277 84.9284 624.819C84.6496 624.361 84.2514 623.996 83.7806 623.766C83.3098 623.537 82.7862 623.453 82.2714 623.525C81.7566 623.597 81.2722 623.821 80.8752 624.171Z" fill="#F5FCFD"/>
<path id="Vector_13" d="M96.1875 632.918C95.7946 632.49 95.2623 632.25 94.7073 632.25C94.1524 632.25 93.6201 632.49 93.2272 632.918C93.03 633.128 92.8732 633.379 92.7662 633.656C92.6592 633.934 92.6041 634.231 92.6041 634.532C92.6041 634.833 92.6592 635.131 92.7662 635.408C92.8732 635.685 93.03 635.937 93.2272 636.147C94.4046 637.437 95.0656 639.184 95.0656 641.005C95.0656 642.826 94.4046 644.572 93.2272 645.863C93.03 646.073 92.8732 646.324 92.7662 646.602C92.6592 646.879 92.6041 647.177 92.6041 647.478C92.6041 647.778 92.6592 648.076 92.7662 648.354C92.8732 648.631 93.03 648.882 93.2272 649.092C93.4174 649.306 93.6458 649.474 93.8981 649.587C94.1505 649.7 94.4215 649.755 94.6942 649.749C94.971 649.756 95.246 649.701 95.5027 649.588C95.7594 649.475 95.9924 649.306 96.1875 649.092C98.1488 646.944 99.25 644.036 99.25 641.005C99.25 637.973 98.1488 635.065 96.1875 632.918Z" fill="#F5FCFD"/>
</g>
</g>
<g id="Pagination">
<g id="Buttons/Square-Medium/ArrowLeft/Default">
<g id="Button/Square-Medium_2">
<rect id="Background_20" x="537" y="607" width="86" height="74" rx="4" fill="#01699C"/>
<rect id="Background_21" x="537.5" y="606.5" width="85" height="69" rx="4.5" fill="#029AE0" stroke="#01699C"/>
</g>
<g id="Icons/ArrowLeft">
<path id="Vector_14" d="M569.726 644.809C567.425 642.855 567.425 639.145 569.726 637.191L584.584 624.58C587.597 622.022 592.063 624.296 592.063 628.388V653.612C592.063 657.704 587.597 659.978 584.584 657.42L569.726 644.809Z" fill="#F5FCFD"/>
</g>
</g>
<g id="Buttons/Square-Medium/ArrowRight/Default">
<g id="Button/Square-Medium_3">
<rect id="Background_22" x="657" y="607" width="86" height="74" rx="4" fill="#01699C"/>
<rect id="Background_23" x="657.5" y="606.5" width="85" height="69" rx="4.5" fill="#029AE0" stroke="#01699C"/>
</g>
<g id="Icons/ArrowRight">
<path id="Vector_15" d="M710.337 637.191C712.638 639.145 712.638 642.855 710.337 644.809L695.478 657.42C692.465 659.978 688 657.704 688 653.612V628.388C688 624.296 692.465 622.022 695.478 624.58L710.337 637.191Z" fill="#F5FCFD"/>
</g>
</g>
</g>
<g id="Buttons/Square-Medium/Home/Default">
<g id="Button/Square-Medium_4">
<rect id="Background_24" x="1154" y="607" width="86" height="74" rx="4" fill="#01699C"/>
<rect id="Background_25" x="1154.5" y="606.5" width="85" height="69" rx="4.5" fill="#029AE0" stroke="#01699C"/>
</g>
<g id="Icons/Home">
<path id="Vector_16" d="M1213.41 639.78L1198.83 625.014L1197.92 624.095C1197.73 623.906 1197.51 623.757 1197.27 623.655C1197.02 623.553 1196.76 623.5 1196.5 623.5C1196.24 623.5 1195.98 623.553 1195.73 623.655C1195.49 623.757 1195.27 623.906 1195.08 624.095L1194.17 625.014L1179.59 639.78C1179.4 639.968 1179.25 640.192 1179.15 640.438C1179.05 640.684 1179 640.948 1179 641.215C1179 641.481 1179.05 641.745 1179.15 641.991C1179.25 642.237 1179.4 642.461 1179.59 642.649L1180.49 643.568C1180.67 643.757 1180.9 643.906 1181.14 644.008C1181.38 644.111 1181.64 644.163 1181.91 644.163C1182.17 644.163 1182.43 644.111 1182.67 644.008C1182.92 643.906 1183.14 643.757 1183.32 643.568L1185.03 641.847V657.308C1185.03 657.465 1185.06 657.62 1185.12 657.765C1185.17 657.909 1185.26 658.041 1185.37 658.152C1185.48 658.262 1185.61 658.35 1185.75 658.41C1185.9 658.47 1186.05 658.5 1186.21 658.5H1206.56C1206.71 658.5 1206.87 658.47 1207.01 658.41C1207.15 658.35 1207.28 658.262 1207.39 658.151C1207.5 658.041 1207.59 657.909 1207.65 657.765C1207.71 657.62 1207.74 657.465 1207.74 657.308V641.616L1209.67 643.568C1210.04 643.949 1210.55 644.162 1211.09 644.162C1211.62 644.162 1212.13 643.949 1212.5 643.568L1213.41 642.649C1213.6 642.461 1213.75 642.237 1213.85 641.991C1213.95 641.745 1214 641.481 1214 641.215C1214 640.948 1213.95 640.684 1213.85 640.438C1213.75 640.192 1213.6 639.968 1213.41 639.78Z" fill="#F5FCFD"/>
</g>
</g>
</g>
<g id="Pointer">
<path id="Icon/Pointer" d="M416.077 235.972C421.83 235.972 426.5 231.999 426.5 226.284V214.022C426.5 212.524 425.271 211.27 423.763 211.303C422.31 211.325 421.137 212.512 421.137 213.966V210.415C421.137 208.917 419.909 207.663 418.4 207.696C416.948 207.719 415.775 208.906 415.775 210.36V208.04C415.775 206.564 414.579 205.377 413.094 205.377C411.608 205.377 410.412 206.564 410.412 208.04V198.663C410.412 197.187 409.217 196 407.731 196C406.245 196 405.05 197.187 405.05 198.663V219.437L405.027 221.834V215.675C402.246 215.675 400.022 217.906 400.022 220.669L400 224.497C400 226.106 400.123 229.735 404.402 233.686C405.932 235.095 407.921 235.905 409.999 235.961C412.535 236.027 415.685 235.994 416.077 235.972Z" fill="white"/>
<path id="Icon/Pointer(Stroke)" fill-rule="evenodd" clip-rule="evenodd" d="M404.05 198.663C404.05 196.629 405.699 195 407.731 195C409.763 195 411.412 196.629 411.412 198.663V204.779C411.916 204.522 412.488 204.377 413.094 204.377C414.82 204.377 416.27 205.553 416.667 207.154C417.177 206.871 417.761 206.707 418.382 206.697C420.472 206.652 422.137 208.38 422.137 210.415V210.703C422.621 210.456 423.166 210.312 423.744 210.303C425.834 210.259 427.5 211.987 427.5 214.022V226.284C427.5 232.634 422.3 236.96 416.102 236.972C415.565 236.996 412.462 237.026 409.973 236.96L409.972 236.96C407.651 236.898 405.432 235.994 403.724 234.421L403.723 234.42C401.47 232.34 400.275 230.309 399.653 228.546C399.032 226.787 399 225.345 399 224.497V224.492H399L399.022 220.669C399.022 220.668 399.022 220.667 399.022 220.666C399.024 217.683 401.187 215.217 404.05 214.753V198.663ZM404.027 216.799C402.289 217.239 401.022 218.801 401.022 220.669V220.675H401.022L401 224.497C401 224.498 401 224.499 401 224.5C401 225.261 401.03 226.438 401.539 227.881C402.048 229.323 403.055 231.081 405.08 232.951C406.433 234.197 408.191 234.912 410.026 234.961C412.554 235.027 415.671 234.993 416.02 234.973C416.039 234.972 416.058 234.972 416.077 234.972C421.374 234.972 425.5 231.355 425.5 226.284V214.022C425.5 213.062 424.71 212.282 423.785 212.303L423.778 212.303C422.871 212.317 422.137 213.06 422.137 213.966C422.137 214.518 421.69 214.966 421.137 214.966C420.585 214.966 420.137 214.518 420.137 213.966V210.415C420.137 209.455 419.347 208.676 418.422 208.696L418.416 208.696L418.416 208.696C417.508 208.71 416.775 209.454 416.775 210.36C416.775 210.405 416.772 210.451 416.766 210.495V214.947C416.766 215.5 416.318 215.947 415.766 215.947C415.214 215.947 414.766 215.5 414.766 214.947V210.404C414.766 210.359 414.769 210.314 414.775 210.269V208.04C414.775 207.123 414.034 206.377 413.094 206.377C412.154 206.377 411.412 207.123 411.412 208.04C411.412 208.097 411.408 208.152 411.399 208.206V216.831C411.399 217.383 410.951 217.831 410.399 217.831C409.846 217.831 409.399 217.383 409.399 216.831V208.078C409.399 208.021 409.403 207.966 409.412 207.912V198.663C409.412 197.746 408.671 197 407.731 197C406.791 197 406.05 197.746 406.05 198.663V219.437L406.05 219.446L406.027 221.843C406.022 222.394 405.573 222.837 405.023 222.834C404.472 222.831 404.027 222.385 404.027 221.834V216.799Z" fill="#212121"/>
</g>
</g>
<defs>
<linearGradient id="paint0_linear_6_119" x1="150.9" y1="360" x2="150.9" y2="910.237" gradientUnits="userSpaceOnUse">
<stop stop-color="#ADE9F3"/>
<stop offset="1" stop-color="#82CEE0"/>
</linearGradient>
<clipPath id="clip0_6_119">
<rect width="1280" height="720" fill="white"/>
</clipPath>
<clipPath id="clip1_6_119">
<rect width="1280" height="720" fill="white"/>
</clipPath>
</defs>
</svg>
