<svg width="1280" height="720" viewBox="0 0 1280 720" fill="none" xmlns="http://www.w3.org/2000/svg">
<g id="Scene/LevelComplete(A)" clip-path="url(#clip0_6_76)">
<g id="Backgrounds/ShadowOverlay">
<g id="Backgrounds" clip-path="url(#clip1_6_76)">
<rect id="Background" width="1280" height="720" fill="url(#paint0_linear_6_76)" fill-opacity="0.95"/>
</g>
<rect id="ShadowOverlay" width="1280" height="720" fill="#001722" fill-opacity="0.4"/>
</g>
<g id="GameWinWindow">
<g id="Panel/Body/Titled">
<path id="WindowContent" d="M340 398H940V552C940 556.418 936.418 560 932 560H348C343.582 560 340 556.418 340 552V398Z" fill="#01699C"/>
<path id="WindowContent_2" d="M340.5 240.5H939.5V548.049C939.5 552.192 936.142 555.549 932 555.549H348C343.858 555.549 340.5 552.192 340.5 548.049V240.5Z" fill="#79CDE8" stroke="#01699C"/>
</g>
<g id="ScoreText">
<text id="ScoreText_2" fill="#0B5F7A" xml:space="preserve" style="white-space: pre" font-family="Rubik" font-size="36" font-weight="600" letter-spacing="0em"><tspan x="523" y="393.83">SCORE &#xb7; 1352</tspan></text>
</g>
<g id="Panel/Title/Example">
<g id="Panel/Title/Dummy">
<g id="Background_2">
<mask id="path-8-inside-1_6_76" fill="white">
<path d="M340 165C340 162.239 342.239 160 345 160H935C937.761 160 940 162.239 940 165V240H340V165Z"/>
</mask>
<path d="M340 165C340 162.239 342.239 160 345 160H935C937.761 160 940 162.239 940 165V240H340V165Z" fill="#029AE0"/>
<path d="M339 165C339 161.686 341.686 159 345 159H935C938.314 159 941 161.686 941 165H939C939 162.791 937.209 161 935 161H345C342.791 161 341 162.791 341 165H339ZM941 241H339L341 239H939L941 241ZM339 241V165C339 161.686 341.686 159 345 159V161C342.791 161 341 162.791 341 165V239L339 241ZM935 159C938.314 159 941 161.686 941 165V241L939 239V165C939 162.791 937.209 161 935 161V159Z" fill="#01699C" mask="url(#path-8-inside-1_6_76)"/>
</g>
</g>
<text id="TitleText" fill="#F5FCFD" xml:space="preserve" style="white-space: pre" font-family="Rubik" font-size="40" font-weight="bold" letter-spacing="0em"><tspan x="450.273" y="213.7">LEVEL COMPLETED</tspan></text>
</g>
<g id="ButtonsGroup">
<g id="Buttons/Square-Medium/Repeat/Default">
<g id="Button/Square-Medium">
<rect id="Background_3" x="447" y="441" width="86" height="74" rx="4" fill="#01699C"/>
<rect id="Background_4" x="447.5" y="440.5" width="85" height="69" rx="4.5" fill="#029AE0" stroke="#01699C"/>
</g>
<g id="Icons/Replay">
<path id="Fill" fill-rule="evenodd" clip-rule="evenodd" d="M501.604 475.625C501.604 475.625 498.819 475.313 498.311 477.67C497.838 482.192 494.239 485.709 489.868 485.709C485.176 485.709 481.372 481.655 481.372 476.654C481.372 472.482 484.759 469.761 488.608 468.974C489.261 468.84 489.868 469.375 489.868 470.084V472.219C489.868 473.133 490.835 473.669 491.537 473.145L500.036 466.805C500.32 466.592 500.489 466.248 500.489 465.878C500.489 465.536 500.343 465.21 500.091 464.996L491.592 457.749C490.897 457.157 489.868 457.684 489.868 458.632V460.949C489.868 461.523 489.465 462.009 488.929 462.072C481.507 462.949 475 468.619 475 476.654C475 485.405 481.657 492.501 489.868 492.501C497.696 492.501 504.111 486.053 504.694 477.87C504.694 476.563 503.46 475.625 501.604 475.625Z" fill="#F5FCFD"/>
</g>
</g>
<g id="Buttons/Rect-Medium/PlayIcon/Default">
<g id="Button/Rect-Medium">
<rect id="Background_5" x="563" y="440" width="154" height="74" rx="5" fill="#01699C"/>
<rect id="Background_6" x="563.5" y="440.5" width="153" height="68" rx="4.5" fill="#029AE0" stroke="#01699C"/>
</g>
<g id="Icons/Play">
<path id="Vector" d="M653.698 471.151C656.61 472.87 656.61 477.13 653.698 478.849L631.62 491.886C628.685 493.619 625 491.476 625 488.037L625 461.963C625 458.524 628.685 456.381 631.62 458.114L653.698 471.151Z" fill="#F5FCFD"/>
</g>
</g>
<g id="Buttons/Square-Medium/Levels/Default">
<g id="Button/Square-Medium_2">
<rect id="Background_7" x="747" y="441" width="86" height="74" rx="4" fill="#01699C"/>
<rect id="Background_8" x="747.5" y="440.5" width="85" height="69" rx="4.5" fill="#029AE0" stroke="#01699C"/>
</g>
<g id="Icons/Levels">
<path id="Rectangle" d="M785.906 457.5H774.094C773.49 457.5 773 457.99 773 458.594V465.156C773 465.76 773.49 466.25 774.094 466.25H785.906C786.51 466.25 787 465.76 787 465.156V458.594C787 457.99 786.51 457.5 785.906 457.5Z" fill="#F5FCFD"/>
<path id="Rectangle_2" d="M785.906 470.625H774.094C773.49 470.625 773 471.115 773 471.719V478.281C773 478.885 773.49 479.375 774.094 479.375H785.906C786.51 479.375 787 478.885 787 478.281V471.719C787 471.115 786.51 470.625 785.906 470.625Z" fill="#F5FCFD"/>
<path id="Rectangle_3" d="M785.906 483.75H774.094C773.49 483.75 773 484.24 773 484.844V491.406C773 492.01 773.49 492.5 774.094 492.5H785.906C786.51 492.5 787 492.01 787 491.406V484.844C787 484.24 786.51 483.75 785.906 483.75Z" fill="#F5FCFD"/>
<path id="Rectangle_4" d="M806.906 457.5H795.094C794.49 457.5 794 457.99 794 458.594V465.156C794 465.76 794.49 466.25 795.094 466.25H806.906C807.51 466.25 808 465.76 808 465.156V458.594C808 457.99 807.51 457.5 806.906 457.5Z" fill="#F5FCFD"/>
<path id="Rectangle_5" d="M806.906 470.625H795.094C794.49 470.625 794 471.115 794 471.719V478.281C794 478.885 794.49 479.375 795.094 479.375H806.906C807.51 479.375 808 478.885 808 478.281V471.719C808 471.115 807.51 470.625 806.906 470.625Z" fill="#F5FCFD"/>
<path id="Rectangle_6" d="M806.906 483.75H795.094C794.49 483.75 794 484.24 794 484.844V491.406C794 492.01 794.49 492.5 795.094 492.5H806.906C807.51 492.5 808 492.01 808 491.406V484.844C808 484.24 807.51 483.75 806.906 483.75Z" fill="#F5FCFD"/>
</g>
</g>
</g>
<g id="StarGroup">
<g id="Star/Large/Unactive">
<g id="Icons/Star">
<path id="Vector_2" d="M724.037 269.902C725.284 266.033 730.716 266.033 731.963 269.902L735.952 282.273C736.51 284.004 738.11 285.175 739.916 285.175H752.825C756.862 285.175 758.54 290.38 755.274 292.771L744.83 300.418C743.37 301.487 742.759 303.382 743.317 305.112L747.306 317.484C748.553 321.353 744.159 324.57 740.893 322.179L730.449 314.533C728.989 313.463 727.011 313.463 725.551 314.533L715.107 322.179C711.841 324.57 707.447 321.353 708.694 317.484L712.683 305.112C713.241 303.382 712.63 301.487 711.17 300.418L700.726 292.771C697.46 290.38 699.138 285.175 703.175 285.175H716.084C717.89 285.175 719.49 284.004 720.048 282.273L724.037 269.902Z" fill="#01699C"/>
</g>
</g>
<g id="Star/Large/Active">
<g id="Star/Large/Unactive_2">
<g id="Icons/Star_2">
<path id="Vector_3" d="M551.037 268.902C552.284 265.033 557.716 265.033 558.963 268.902L562.952 281.273C563.51 283.004 565.11 284.175 566.916 284.175H579.825C583.862 284.175 585.54 289.38 582.274 291.771L571.83 299.418C570.37 300.487 569.759 302.382 570.317 304.112L574.306 316.484C575.553 320.353 571.159 323.57 567.893 321.179L557.449 313.533C555.989 312.463 554.011 312.463 552.551 313.533L542.107 321.179C538.841 323.57 534.447 320.353 535.694 316.484L539.683 304.112C540.241 302.382 539.63 300.487 538.17 299.418L527.726 291.771C524.46 289.38 526.138 284.175 530.175 284.175H543.084C544.89 284.175 546.49 283.004 547.048 281.273L551.037 268.902Z" fill="#F5FCFD"/>
</g>
</g>
</g>
<g id="Star/Large/Active_2">
<g id="Star/Large/Unactive_3">
<g id="Icons/Star_3">
<path id="Vector_4" d="M638.037 268.902C639.284 265.033 644.716 265.033 645.963 268.902L649.952 281.273C650.51 283.004 652.11 284.175 653.916 284.175H666.825C670.862 284.175 672.54 289.38 669.274 291.771L658.83 299.418C657.37 300.487 656.759 302.382 657.317 304.112L661.306 316.484C662.553 320.353 658.159 323.57 654.893 321.179L644.449 313.533C642.989 312.463 641.011 312.463 639.551 313.533L629.107 321.179C625.841 323.57 621.447 320.353 622.694 316.484L626.683 304.112C627.241 302.382 626.63 300.487 625.17 299.418L614.726 291.771C611.46 289.38 613.138 284.175 617.175 284.175H630.084C631.89 284.175 633.49 283.004 634.048 281.273L638.037 268.902Z" fill="#F5FCFD"/>
</g>
</g>
</g>
</g>
</g>
</g>
<defs>
<linearGradient id="paint0_linear_6_76" x1="150.9" y1="360" x2="150.9" y2="910.237" gradientUnits="userSpaceOnUse">
<stop stop-color="#ADE9F3"/>
<stop offset="1" stop-color="#82CEE0"/>
</linearGradient>
<clipPath id="clip0_6_76">
<rect width="1280" height="720" fill="white"/>
</clipPath>
<clipPath id="clip1_6_76">
<rect width="1280" height="720" fill="white"/>
</clipPath>
</defs>
</svg>
