<svg width="1280" height="720" viewBox="0 0 1280 720" fill="none" xmlns="http://www.w3.org/2000/svg">
<g id="Scene/Pause(A)" clip-path="url(#clip0_6_67)">
<g id="Backgrounds/ShadowOverlay">
<g id="Backgrounds" clip-path="url(#clip1_6_67)">
<rect id="Background" width="1280" height="720" fill="url(#paint0_linear_6_67)" fill-opacity="0.95"/>
</g>
<rect id="ShadowOverlay" width="1280" height="720" fill="#001722" fill-opacity="0.4"/>
</g>
<g id="GameOverWindow">
<g id="Panel/Body/Titled">
<path id="WindowContent" d="M340 320H940V474C940 478.418 936.418 482 932 482H348C343.582 482 340 478.418 340 474V320Z" fill="#01699C"/>
<path id="WindowContent_2" d="M340.5 320.5H939.5V472C939.5 476.142 936.142 479.5 932 479.5H348C343.858 479.5 340.5 476.142 340.5 472V320.5Z" fill="#79CDE8" stroke="#01699C"/>
</g>
<g id="ButtonsGroup">
<g id="Buttons/Square-Medium/Repeat/Default">
<g id="Button/Square-Medium">
<rect id="Background_2" x="437" y="361" width="86" height="74" rx="4" fill="#01699C"/>
<rect id="Background_3" x="437.5" y="360.5" width="85" height="69" rx="4.5" fill="#029AE0" stroke="#01699C"/>
</g>
<g id="Icons/Replay">
<path id="Fill" fill-rule="evenodd" clip-rule="evenodd" d="M491.604 395.625C491.604 395.625 488.819 395.313 488.311 397.67C487.838 402.192 484.239 405.709 479.868 405.709C475.176 405.709 471.372 401.655 471.372 396.654C471.372 392.482 474.759 389.761 478.608 388.974C479.261 388.84 479.868 389.375 479.868 390.084V392.219C479.868 393.133 480.835 393.669 481.537 393.145L490.036 386.805C490.32 386.592 490.489 386.248 490.489 385.878C490.489 385.536 490.343 385.21 490.091 384.996L481.592 377.749C480.897 377.157 479.868 377.684 479.868 378.632V380.949C479.868 381.523 479.465 382.009 478.929 382.072C471.507 382.949 465 388.619 465 396.654C465 405.405 471.657 412.501 479.868 412.501C487.696 412.501 494.111 406.053 494.694 397.87C494.694 396.563 493.46 395.625 491.604 395.625Z" fill="#F5FCFD"/>
</g>
</g>
<g id="Buttons/Rect-Medium/PlayIcon/Default">
<g id="Button/Rect-Medium">
<rect id="Background_4" x="563" y="360" width="154" height="74" rx="5" fill="#01699C"/>
<rect id="Background_5" x="563.5" y="360.5" width="153" height="68" rx="4.5" fill="#029AE0" stroke="#01699C"/>
</g>
<g id="Icons/Play">
<path id="Vector" d="M653.698 391.151C656.61 392.87 656.61 397.13 653.698 398.849L631.62 411.886C628.685 413.619 625 411.476 625 408.037L625 381.963C625 378.524 628.685 376.381 631.62 378.114L653.698 391.151Z" fill="#F5FCFD"/>
</g>
</g>
<g id="Buttons/Square-Medium/Levels/Default">
<g id="Button/Square-Medium_2">
<rect id="Background_6" x="757" y="361" width="86" height="74" rx="4" fill="#01699C"/>
<rect id="Background_7" x="757.5" y="360.5" width="85" height="69" rx="4.5" fill="#029AE0" stroke="#01699C"/>
</g>
<g id="Icons/Levels">
<path id="Rectangle" d="M795.906 377.5H784.094C783.49 377.5 783 377.99 783 378.594V385.156C783 385.76 783.49 386.25 784.094 386.25H795.906C796.51 386.25 797 385.76 797 385.156V378.594C797 377.99 796.51 377.5 795.906 377.5Z" fill="#F5FCFD"/>
<path id="Rectangle_2" d="M795.906 390.625H784.094C783.49 390.625 783 391.115 783 391.719V398.281C783 398.885 783.49 399.375 784.094 399.375H795.906C796.51 399.375 797 398.885 797 398.281V391.719C797 391.115 796.51 390.625 795.906 390.625Z" fill="#F5FCFD"/>
<path id="Rectangle_3" d="M795.906 403.75H784.094C783.49 403.75 783 404.24 783 404.844V411.406C783 412.01 783.49 412.5 784.094 412.5H795.906C796.51 412.5 797 412.01 797 411.406V404.844C797 404.24 796.51 403.75 795.906 403.75Z" fill="#F5FCFD"/>
<path id="Rectangle_4" d="M816.906 377.5H805.094C804.49 377.5 804 377.99 804 378.594V385.156C804 385.76 804.49 386.25 805.094 386.25H816.906C817.51 386.25 818 385.76 818 385.156V378.594C818 377.99 817.51 377.5 816.906 377.5Z" fill="#F5FCFD"/>
<path id="Rectangle_5" d="M816.906 390.625H805.094C804.49 390.625 804 391.115 804 391.719V398.281C804 398.885 804.49 399.375 805.094 399.375H816.906C817.51 399.375 818 398.885 818 398.281V391.719C818 391.115 817.51 390.625 816.906 390.625Z" fill="#F5FCFD"/>
<path id="Rectangle_6" d="M816.906 403.75H805.094C804.49 403.75 804 404.24 804 404.844V411.406C804 412.01 804.49 412.5 805.094 412.5H816.906C817.51 412.5 818 412.01 818 411.406V404.844C818 404.24 817.51 403.75 816.906 403.75Z" fill="#F5FCFD"/>
</g>
</g>
</g>
<g id="Panel/Title/Example">
<g id="Panel/Title/Dummy">
<g id="Background_8">
<mask id="path-21-inside-1_6_67" fill="white">
<path d="M340 245C340 242.239 342.239 240 345 240H935C937.761 240 940 242.239 940 245V320H340V245Z"/>
</mask>
<path d="M340 245C340 242.239 342.239 240 345 240H935C937.761 240 940 242.239 940 245V320H340V245Z" fill="#029AE0"/>
<path d="M339 245C339 241.686 341.686 239 345 239H935C938.314 239 941 241.686 941 245H939C939 242.791 937.209 241 935 241H345C342.791 241 341 242.791 341 245H339ZM941 321H339L341 319H939L941 321ZM339 321V245C339 241.686 341.686 239 345 239V241C342.791 241 341 242.791 341 245V319L339 321ZM935 239C938.314 239 941 241.686 941 245V321L939 319V245C939 242.791 937.209 241 935 241V239Z" fill="#01699C" mask="url(#path-21-inside-1_6_67)"/>
</g>
</g>
<text id="TitleText" fill="#F5FCFD" xml:space="preserve" style="white-space: pre" font-family="Rubik" font-size="40" font-weight="bold" letter-spacing="0em"><tspan x="572.949" y="293.7">PAUSE</tspan></text>
</g>
</g>
</g>
<defs>
<linearGradient id="paint0_linear_6_67" x1="150.9" y1="360" x2="150.9" y2="910.237" gradientUnits="userSpaceOnUse">
<stop stop-color="#ADE9F3"/>
<stop offset="1" stop-color="#82CEE0"/>
</linearGradient>
<clipPath id="clip0_6_67">
<rect width="1280" height="720" fill="white"/>
</clipPath>
<clipPath id="clip1_6_67">
<rect width="1280" height="720" fill="white"/>
</clipPath>
</defs>
</svg>
