<svg width="86" height="75" viewBox="0 0 86 75" fill="none" xmlns="http://www.w3.org/2000/svg">
<g id="Buttons/Square-Medium/Home/Default">
<g id="Button/Square-Medium">
<rect id="Background" y="1" width="86" height="74" rx="4" fill="#01699C"/>
<rect id="Background_2" x="0.5" y="0.5" width="85" height="69" rx="4.5" fill="#029AE0" stroke="#01699C"/>
</g>
<g id="Icons/Home">
<path id="Vector" d="M59.4121 33.7798L44.8262 19.0137L43.918 18.0948C43.7319 17.9062 43.5108 17.7567 43.2675 17.6546C43.0242 17.5525 42.7634 17.5 42.5 17.5C42.2366 17.5 41.9758 17.5525 41.7325 17.6546C41.4892 17.7567 41.2681 17.9062 41.082 18.0948L40.1738 19.0137L25.5879 33.7798C25.4015 33.9681 25.2537 34.1918 25.1528 34.438C25.0519 34.6841 25 34.948 25 35.2146C25 35.4811 25.0519 35.745 25.1528 35.9912C25.2537 36.2374 25.4015 36.461 25.5879 36.6494L26.4885 37.5682C26.6747 37.7568 26.8957 37.9064 27.139 38.0085C27.3824 38.1105 27.6432 38.163 27.9066 38.163C28.17 38.163 28.4308 38.1105 28.6741 38.0085C28.9174 37.9064 29.1385 37.7568 29.3246 37.5682L31.0255 35.8472V51.3081C31.0255 51.4648 31.056 51.6199 31.1153 51.7647C31.1747 51.9094 31.2616 52.0409 31.3712 52.1516C31.4808 52.2623 31.6108 52.35 31.754 52.4098C31.8971 52.4696 32.0505 52.5002 32.2053 52.5H52.5583C52.7131 52.5002 52.8664 52.4696 53.0094 52.4098C53.1524 52.35 53.2824 52.2622 53.3918 52.1515C53.5013 52.0407 53.588 51.9092 53.6471 51.7645C53.7062 51.6198 53.7365 51.4647 53.7363 51.3081V35.6156L55.6661 37.5682C56.0426 37.9487 56.5529 38.1624 57.0851 38.1624C57.6172 38.1624 58.1275 37.9487 58.504 37.5682L59.4121 36.6494C59.5985 36.461 59.7463 36.2374 59.8472 35.9912C59.9481 35.745 60 35.4811 60 35.2146C60 34.948 59.9481 34.6841 59.8472 34.438C59.7463 34.1918 59.5985 33.9681 59.4121 33.7798Z" fill="#F5FCFD"/>
</g>
</g>
</svg>
