<svg width="86" height="96" viewBox="0 0 86 96" fill="none" xmlns="http://www.w3.org/2000/svg">
<g id="Level/Buttons/3-Star/Hover">
<g id="Level/Button/Dummy">
<rect id="Background" x="2.5" y="2.5" width="81" height="91" rx="3.5" fill="#029AE0" stroke="#01699C" stroke-width="5"/>
<rect id="Background_2" x="2" y="2" width="82" height="92" rx="4" stroke="#F5FCFD" stroke-width="4"/>
</g>
<g id="Level/Stars/3-3">
<g id="Star/Small/Active">
<path id="StarIcon" d="M24.0434 71.6736C24.3445 70.7755 25.6555 70.7755 25.9566 71.6736L26.9195 74.5456C27.0542 74.9473 27.4404 75.2192 27.8762 75.2192H30.9922C31.9666 75.2192 32.3717 76.4276 31.5834 76.9826L29.0625 78.7576C28.71 79.0059 28.5624 79.4459 28.6971 79.8475L29.66 82.7196C29.9611 83.6176 28.9005 84.3645 28.1122 83.8094L25.5912 82.0344C25.2387 81.7862 24.7613 81.7862 24.4088 82.0344L21.8878 83.8094C21.0995 84.3645 20.0389 83.6176 20.34 82.7196L21.3029 79.8475C21.4376 79.4459 21.29 79.0059 20.9375 78.7576L18.4166 76.9826C17.6283 76.4276 18.0334 75.2192 19.0078 75.2192H22.1238C22.5596 75.2192 22.9458 74.9473 23.0805 74.5456L24.0434 71.6736Z" fill="#F5FCFD"/>
</g>
<g id="Star/Small/Active_2">
<path id="StarIcon_2" d="M41.9101 71.6736C42.2112 70.7755 43.5222 70.7755 43.8233 71.6736L44.7862 74.5456C44.9209 74.9473 45.3071 75.2192 45.7429 75.2192H48.8589C49.8333 75.2192 50.2384 76.4276 49.4501 76.9826L46.9292 78.7576C46.5767 79.0059 46.4291 79.4459 46.5638 79.8475L47.5267 82.7196C47.8278 83.6176 46.7672 84.3645 45.9789 83.8094L43.4579 82.0344C43.1054 81.7862 42.628 81.7862 42.2755 82.0344L39.7545 83.8094C38.9662 84.3645 37.9056 83.6176 38.2067 82.7196L39.1696 79.8475C39.3043 79.4459 39.1567 79.0059 38.8042 78.7576L36.2833 76.9826C35.495 76.4276 35.9001 75.2192 36.8745 75.2192H39.9905C40.4263 75.2192 40.8125 74.9473 40.9472 74.5456L41.9101 71.6736Z" fill="#F5FCFD"/>
</g>
<g id="Star/Small/Active_3">
<path id="StarIcon_3" d="M59.7768 71.6736C60.0779 70.7755 61.3889 70.7755 61.69 71.6736L62.6529 74.5456C62.7876 74.9473 63.1738 75.2192 63.6096 75.2192H66.7256C67.7 75.2192 68.1051 76.4276 67.3168 76.9826L64.7959 78.7576C64.4434 79.0059 64.2958 79.4459 64.4305 79.8475L65.3934 82.7196C65.6945 83.6176 64.6339 84.3645 63.8456 83.8094L61.3246 82.0344C60.9721 81.7862 60.4947 81.7862 60.1422 82.0344L57.6212 83.8094C56.8329 84.3645 55.7723 83.6176 56.0734 82.7196L57.0363 79.8475C57.171 79.4459 57.0234 79.0059 56.6709 78.7576L54.15 76.9826C53.3617 76.4276 53.7668 75.2192 54.7412 75.2192H57.8572C58.293 75.2192 58.6792 74.9473 58.8139 74.5456L59.7768 71.6736Z" fill="#F5FCFD"/>
</g>
</g>
</g>
</svg>
