<svg width="60" height="58" viewBox="0 0 60 58" fill="none" xmlns="http://www.w3.org/2000/svg">
<path d="M27.0369 2.90153C28.2843 -0.967177 33.7157 -0.967175 34.9632 2.90153L38.9524 15.2734C39.5102 17.0036 41.1102 18.175 42.9155 18.175H55.8249C59.8617 18.175 61.5401 23.3803 58.2743 25.7713L47.8304 33.4175C46.3698 34.4868 45.7587 36.3822 46.3166 38.1123L50.3058 50.4842C51.5532 54.3529 47.1591 57.57 43.8933 55.179L33.4494 47.5327C31.9888 46.4634 30.0112 46.4635 28.5506 47.5327L18.1067 55.179C14.8409 57.57 10.4468 54.3529 11.6942 50.4842L15.6834 38.1123C16.2413 36.3822 15.6302 34.4868 14.1696 33.4175L3.72573 25.7713C0.459912 23.3803 2.13832 18.175 6.17509 18.175H19.0845C20.8898 18.175 22.4898 17.0036 23.0476 15.2734L27.0369 2.90153Z" fill="#F5FCFD"/>
</svg>
