<svg width="59" height="57" viewBox="0 0 59 57" fill="none" xmlns="http://www.w3.org/2000/svg">
<path d="M26.0369 2.90153C27.2843 -0.967177 32.7157 -0.967175 33.9632 2.90153L37.9524 15.2734C38.5102 17.0036 40.1102 18.175 41.9155 18.175H54.8249C58.8617 18.175 60.5401 23.3803 57.2743 25.7713L46.8304 33.4175C45.3698 34.4868 44.7587 36.3822 45.3166 38.1123L49.3058 50.4842C50.5532 54.3529 46.1591 57.57 42.8933 55.179L32.4494 47.5327C30.9888 46.4634 29.0112 46.4635 27.5506 47.5327L17.1067 55.179C13.8409 57.57 9.44678 54.3529 10.6942 50.4842L14.6834 38.1123C15.2413 36.3822 14.6302 34.4868 13.1696 33.4175L2.72573 25.7713C-0.540088 23.3803 1.13832 18.175 5.17509 18.175H18.0845C19.8898 18.175 21.4898 17.0036 22.0476 15.2734L26.0369 2.90153Z" fill="#01699C"/>
</svg>
